<?xml version="1.0" encoding="utf-8"?>
<!-- Generator: Adobe Illustrator 24.2.0, SVG Export Plug-In . SVG Version: 6.00 Build 0)  -->
<svg version="1.1" id="Layer_1" xmlns="http://www.w3.org/2000/svg" xmlns:xlink="http://www.w3.org/1999/xlink" x="0px" y="0px"
	 viewBox="0 0 200 200" style="enable-background:new 0 0 200 200;" xml:space="preserve">
<style type="text/css">
	.st0{fill:#494949;}
	.st1{fill:#FFFFFF;}
</style>
<g>
	<g>
		<g>
			<polygon class="st0" points="104.8,20.2 100.1,26.4 95.4,20.2 91.7,27.1 86.1,21.7 83.5,29 77.1,24.6 75.8,32.3 68.8,28.8 
				68.6,36.6 61.2,34.4 62.3,42.1 54.5,41 56.8,48.5 49,48.6 52.4,55.6 44.8,57 49.2,63.4 41.8,65.9 47.3,71.5 40.4,75.2 46.6,79.9 
				40.4,84.6 47.3,88.3 41.8,93.9 49.2,96.4 44.8,102.8 52.4,104.2 49,111.2 56.8,111.3 54.5,118.8 62.3,117.7 61.2,125.4 
				68.6,123.1 68.8,130.9 75.8,127.5 77.1,135.2 83.5,130.7 86.1,138.1 91.7,132.7 95.4,139.6 100.1,133.4 104.8,139.6 108.4,132.7 
				114,138.1 116.6,130.7 123,135.2 124.3,127.5 131.4,130.9 131.5,123.1 138.9,125.4 137.9,117.7 145.6,118.8 143.3,111.3 
				151.1,111.2 147.7,104.2 155.4,102.8 150.9,96.4 158.3,93.9 152.9,88.3 159.8,84.6 153.5,79.9 159.8,75.2 152.9,71.5 158.3,65.9 
				150.9,63.4 155.4,57 147.7,55.6 151.1,48.6 143.3,48.5 145.6,41 137.9,42.1 138.9,34.4 131.5,36.6 131.4,28.8 124.3,32.3 
				123,24.6 116.6,29 114,21.7 108.4,27.1 			"/>
		</g>
		<path class="st0" d="M53.5,175h6.4v-1.6h-2.5l2.1-5.8h8.7l2.1,5.8h-2.4v1.6h6.4v-1.6h-2l-6.6-17.3H68v-1.6h-8.3v1.6h2.4l-6.6,17.3
			h-2V175z M60.1,166.2l3.8-10.2l3.8,10.2H60.1z M75.9,175H82v-1.4h-2.3v-3.2l2.5-2.1l4.7,6.8h3.4v-1.4h-2.5l-4.4-6.2l4.6-4h2.3V162
			H83v1.4h2.9l-6.2,5.4v-16.5h-3.8v1.4h2.2v19.9h-2.2L75.9,175L75.9,175z M104,168.9c0.1-0.3,0.1-0.7,0.1-1c0-3.2-2.1-6.1-5.8-6.1
			c-3.9,0-6.3,3.2-6.3,6.8c0,3.9,2.7,6.7,6.8,6.7c1.6,0,3.2-0.4,4.6-1.3l0.2-1.6c-1.6,0.9-2.7,1.5-4.5,1.5c-3.1,0-5.1-1.6-5.4-4.9
			L104,168.9z M98.2,163.2c2.7,0,4.2,1.8,4.3,4.3h-8.8C94,164.8,95.9,163.2,98.2,163.2 M110.4,162h-3.7v1.4h2.2v10.2h-2.2v1.4h5.9
			v-1.4h-2.2v-7.7c1.2-1.5,2.9-2.7,4.7-2.7c1.2,0,2,0.4,2.5,1.3c0.3,0.6,0.4,1.2,0.3,1.9v7.2h-2.2v1.4h5.9v-1.4h-2.2v-7.4
			c0-1-0.2-1.9-0.6-2.8c-0.6-1.1-1.7-1.7-3.5-1.7c-1.8,0-3.8,1.3-5,2.8L110.4,162L110.4,162z M129.5,175.3c1.8,0,3.5-0.8,4.6-2.3v2
			h3.7v-1.4h-2.2v-21.3h-4.3v1.4h2.7v9.7c-1.2-1.1-2.7-1.7-4.3-1.7c-4.1,0-6.6,3.2-6.6,6.9C123.2,172.6,126,175.3,129.5,175.3
			 M129.5,173.9c-2.7,0-4.7-2.2-4.7-5.3c0-3,1.9-5.4,4.8-5.4c1.6,0,3.1,0.6,4.3,1.7v6.8C132.9,173,131.3,173.8,129.5,173.9
			 M143.3,158c0.8,0,1.5-0.6,1.5-1.5c0-0.8-0.6-1.5-1.5-1.5c-0.8,0-1.5,0.6-1.5,1.5c0,0,0,0,0,0C141.8,157.3,142.5,158,143.3,158
			 M140.4,175h6.2v-1.4h-2.3V162h-3.9v1.4h2.3v10.2h-2.3L140.4,175L140.4,175z M103.9,180.4c-2-3.1-6.2-4.1-9.3-2.1
			c-0.8,0.5-1.5,1.2-2.1,2.1l0.5,0.3c1.9-2.9,5.8-3.7,8.6-1.8c0.7,0.5,1.3,1.1,1.8,1.8L103.9,180.4L103.9,180.4z M103.9,156.4
			l-0.5-0.3c-1.1,1.8-3.1,2.8-5.2,2.8c-2.1,0-4.1-1-5.2-2.8l-0.5,0.3c2,3.1,6.2,4.1,9.3,2.1C102.7,157.9,103.4,157.2,103.9,156.4"/>
	</g>
	<path class="st1" d="M80.1,95.5c-1.9,3-4.8,5.2-10.1,5.2h-3.1C59.6,100.6,55,96,55,89.3V70.4c0-6.6,4.6-11.3,11.9-11.3H70
		c5.3,0,8.2,2.2,10.1,5.2c0.6,1,1.2,2,1.2,2.4c0,0.2-0.1,0.3-0.4,0.4l-5.1,2.6c-0.3,0.1-0.5,0.3-0.8,0.3c-0.2,0-0.4-0.1-0.5-0.4
		c-1.1-2.7-2.8-3.8-4.5-3.8h-3.1c-2.5,0-4.6,2.1-4.6,4.6v18.9c0,2.5,2.1,4.6,4.6,4.6H70c1.7,0,3.4-1,4.5-3.8
		c0.1-0.3,0.3-0.4,0.5-0.4c0.3,0,0.5,0.2,0.8,0.3l5.1,2.6c0.3,0.1,0.4,0.3,0.4,0.4C81.3,93.5,80.7,94.5,80.1,95.5"/>
	<path class="st1" d="M112.3,100h-7c-0.3,0-0.4-0.1-0.6-0.4l-5.4-11.6c-0.1-0.3-0.4-0.5-0.6-0.5c-0.2,0-0.5,0.2-0.6,0.5l-5.6,11.6
		c-0.1,0.2-0.3,0.4-0.6,0.4h-6.8c-0.5,0-0.7-0.2-0.7-0.5c0-0.3,0.3-0.8,0.7-1.6l8.6-17c0.3-0.5,0.4-0.8,0.4-1c0-0.3-0.1-0.4-0.3-0.9
		l-8.9-17.4c-0.2-0.4-0.5-0.9-0.5-1.2c0-0.3,0.3-0.5,0.7-0.5h6.8c0.3,0,0.4,0.2,0.6,0.4l5.7,11.7c0.1,0.3,0.4,0.5,0.6,0.5
		c0.2,0,0.4-0.2,0.6-0.5l5.5-11.7c0.1-0.3,0.3-0.4,0.6-0.4h6.9c0.5,0,0.7,0.2,0.7,0.5c0,0.3-0.3,0.6-0.5,1.2l-8.7,17.4
		c-0.3,0.4-0.3,0.8-0.3,1c0,0.3,0.1,0.5,0.3,1l8.6,17.2c0.3,0.6,0.6,1.1,0.6,1.4C113,99.8,112.7,100,112.3,100"/>
	<path class="st1" d="M133.2,100h-14.4c-0.4,0-0.6-0.2-0.6-0.6V60.4c0-0.4,0.2-0.6,0.6-0.6h14.4c7.3,0,11.9,4.7,11.9,11.9v16.5
		C145.1,95.4,140.5,100,133.2,100 M137.8,71.1c0-2.5-2.1-4.6-4.6-4.6h-7c-0.5,0-0.6,0.2-0.6,0.6v25.5c0,0.4,0.2,0.6,0.6,0.6h7
		c2.5,0,4.6-2,4.6-4.6V71.1z"/>
</g>
</svg>
