<svg id="Layer_1" data-name="Layer 1" xmlns="http://www.w3.org/2000/svg" viewBox="0 0 200 200"><defs><style>.cls-1{fill:#0acf83;}.cls-2{fill:#a259ff;}.cls-3{fill:#f24e1e;}.cls-4{fill:#ff7262;}.cls-5{fill:#1abcfe;}</style></defs><path id="path0_fill" data-name="path0 fill" class="cls-1" d="M72.43,183.75a27.92,27.92,0,0,0,27.92-27.91V127.92H72.43a27.92,27.92,0,1,0,0,55.83Z"/><path id="path1_fill" data-name="path1 fill" class="cls-2" d="M44.51,100A27.93,27.93,0,0,1,72.43,72.08h27.92v55.84H72.43A27.93,27.93,0,0,1,44.51,100Z"/><path id="path1_fill-2" data-name="path1 fill" class="cls-3" d="M44.51,44.16A27.92,27.92,0,0,1,72.43,16.25h27.92V72.08H72.43A27.93,27.93,0,0,1,44.51,44.16Z"/><path id="path2_fill" data-name="path2 fill" class="cls-4" d="M100.35,16.25h27.92a27.92,27.92,0,1,1,0,55.83H100.35Z"/><path id="path3_fill" data-name="path3 fill" class="cls-5" d="M156.19,100a27.92,27.92,0,1,1-27.92-27.92A27.93,27.93,0,0,1,156.19,100Z"/></svg>