<?xml version="1.0" encoding="utf-8"?>
<!-- Generator: Adobe Illustrator 24.2.3, SVG Export Plug-In . SVG Version: 6.00 Build 0)  -->
<svg version="1.1" id="Layer_1" xmlns="http://www.w3.org/2000/svg" xmlns:xlink="http://www.w3.org/1999/xlink" x="0px" y="0px"
	 viewBox="0 0 200 200" style="enable-background:new 0 0 200 200;" xml:space="preserve">
<style type="text/css">
	.st0{fill:#470137;}
	.st1{fill:#FF61F6;}
</style>
<g id="Layer_2_1_">
	<g id="Surfaces">
		<g id="UI_UX_Surface">
			<g id="Outline_no_shadow">
				<path class="st0" d="M45.3,17.8h109.6c16.6,0,30.1,13.4,30.1,30.1v105.4c0,16.6-13.4,30.1-30.1,30.1H45.3
					c-16.6,0-30.1-13.4-30.1-30.1V47.9C15.2,31.3,28.7,17.8,45.3,17.8z"/>
			</g>
		</g>
	</g>
	<g id="Outlined_Mnemonics_Logos">
		<g id="Xd">
			<path class="st1" d="M104.5,61.3l-21.2,35l22.6,37.1c0.1,0.3,0.2,0.6,0.1,0.8c-0.1,0.3-0.4,0.1-0.8,0.1H89
				c-1.1,0-1.9-0.1-2.4-0.8c-1.5-3-3-5.9-4.5-8.8c-1.5-2.9-3.1-5.9-4.8-8.9c-1.7-3-3.4-6.1-5.1-9.2h-0.1c-1.5,3-3.1,6.1-4.7,9.1
				c-1.6,3-3.3,6.1-4.8,9.1c-1.6,3-3.3,6-4.9,8.9c-0.3,0.7-0.8,0.8-1.6,0.8H40.5c-0.3,0-0.5,0.1-0.5-0.2c-0.1-0.3,0-0.6,0.1-0.8
				l22-36.1L40.7,61.2c-0.2-0.3-0.3-0.6-0.1-0.7c0.1-0.2,0.4-0.3,0.7-0.3h16.1c0.4,0,0.7,0.1,1,0.1c0.3,0.1,0.5,0.4,0.7,0.6
				c1.3,3,2.9,6.1,4.5,9.1c1.7,3,3.3,6,5.1,9c1.7,3,3.3,5.9,4.7,9h0.1c1.5-3.1,3-6.2,4.6-9.1s3.2-5.9,4.8-8.9c1.6-3,3.2-6,4.7-8.9
				c0.1-0.3,0.2-0.6,0.4-0.7c0.3-0.1,0.6-0.2,0.9-0.1h14.9c0.4-0.1,0.7,0.1,0.8,0.5C104.7,60.9,104.6,61.2,104.5,61.3L104.5,61.3z"
				/>
			<path class="st1" d="M137.1,135.9c-5.2,0.1-10.5-1-15.2-3.2c-4.5-2.1-8.1-5.4-10.7-9.6c-2.6-4.3-3.9-9.7-3.9-16.1
				c-0.1-5.2,1.3-10.4,3.9-14.9c2.7-4.6,6.6-8.4,11.2-11c4.9-2.8,10.9-4.1,17.9-4.1c0.4,0,0.8,0,1.5,0.1c0.6,0.1,1.3,0.1,2.2,0.1
				V54.9c0-0.5,0.2-0.8,0.7-0.8h14.4c0.4-0.1,0.6,0.2,0.7,0.5c0,0.1,0,0.1,0,0.1v67.3c0,1.3,0.1,2.7,0.1,4.2
				c0.1,1.5,0.2,2.9,0.3,4.1c0,0.5-0.2,0.9-0.7,1.1c-3.7,1.6-7.6,2.7-11.5,3.4C144.4,135.6,140.8,135.9,137.1,135.9z M144.1,121.8
				V90.7c-0.6-0.1-1.3-0.3-1.9-0.4c-0.8-0.1-1.6-0.1-2.3-0.1c-2.8,0-5.5,0.6-8,1.8c-2.4,1.2-4.5,3-6,5.2c-1.6,2.3-2.3,5.3-2.3,9
				c-0.1,2.5,0.4,4.9,1.2,7.3c0.7,1.9,1.8,3.6,3.2,5c1.3,1.3,3,2.3,4.8,2.8c1.9,0.6,3.9,0.9,5.9,0.9c1.1,0,2.1-0.1,3-0.1
				C142.4,122.2,143.2,122.1,144.1,121.8z"/>
		</g>
	</g>
</g>
</svg>
