<?xml version="1.0" encoding="utf-8"?>
<!-- Generator: Adobe Illustrator 25.1.0, SVG Export Plug-In . SVG Version: 6.00 Build 0)  -->
<svg version="1.1" id="Layer_1" xmlns="http://www.w3.org/2000/svg" xmlns:xlink="http://www.w3.org/1999/xlink" x="0px" y="0px"
	 viewBox="0 0 200 200" style="enable-background:new 0 0 200 200;" xml:space="preserve">
<style type="text/css">
	.st0{fill-rule:evenodd;clip-rule:evenodd;fill:#494949;}
	.st1{fill:#494949;}
</style>
<g>
	<g>
		<g>
			<rect x="61.5" y="67.1" class="st0" width="31" height="0.7"/>
			<rect x="110" y="67.1" class="st0" width="31" height="0.7"/>
			<g>
				<path class="st1" d="M101,62.1l1.3,2.7c0,0,0.1,0.1,0.1,0.1l3,0.4c0.1,0,0.2,0.2,0.1,0.3l-2.1,2.1c0,0-0.1,0.1,0,0.1l0.5,2.9
					c0,0.1-0.1,0.2-0.2,0.2l-2.6-1.4c0,0-0.1,0-0.1,0l-2.6,1.4c-0.1,0.1-0.2,0-0.2-0.2l0.5-2.9c0,0,0-0.1,0-0.1l-2.1-2.1
					c-0.1-0.1,0-0.2,0.1-0.3l3-0.4c0,0,0.1,0,0.1-0.1l1.3-2.7C100.8,62,101,62,101,62.1z"/>
			</g>
		</g>
		<g>
			<path class="st1" d="M61.9,78.6h-2.7V86h-1.1v-7.4h-2.7v-0.9h6.5V78.6z"/>
			<path class="st1" d="M67,83.9h-3.5L62.8,86h-1.1l3.2-8.3h1L69,86h-1.1L67,83.9z M63.9,82.9h2.8l-1.4-3.8h0L63.9,82.9z"/>
			<path class="st1" d="M71.2,85.1h3.9V86h-5.1v-8.3h1.1V85.1z"/>
			<path class="st1" d="M81.4,82.1h-3.8v3h4.4V86h-5.5v-8.3h5.5v0.9h-4.3v2.7h3.8V82.1z"/>
			<path class="st1" d="M89.5,86h-1.1l-4-6.4l0,0V86h-1.1v-8.3h1.1l4,6.4l0,0v-6.4h1.1V86z"/>
			<path class="st1" d="M97.1,78.6h-2.7V86h-1.1v-7.4h-2.7v-0.9h6.5V78.6z"/>
			<path class="st1" d="M102.7,83.9c0-0.4-0.1-0.7-0.4-1s-0.8-0.5-1.5-0.6c-0.9-0.2-1.6-0.5-2.1-0.9C98.2,81,98,80.5,98,79.8
				c0-0.6,0.3-1.2,0.8-1.6s1.2-0.7,2.1-0.7c0.9,0,1.6,0.2,2.2,0.7c0.5,0.5,0.8,1.1,0.8,1.7l0,0h-1.1c0-0.5-0.2-0.9-0.5-1.2
				c-0.3-0.3-0.8-0.5-1.4-0.5c-0.6,0-1,0.1-1.3,0.4c-0.3,0.3-0.4,0.6-0.4,1c0,0.4,0.2,0.7,0.5,0.9c0.3,0.2,0.8,0.5,1.6,0.6
				c0.9,0.2,1.5,0.5,2,1c0.5,0.4,0.7,0.9,0.7,1.6c0,0.7-0.3,1.2-0.8,1.6c-0.5,0.4-1.3,0.6-2.1,0.6c-0.8,0-1.6-0.2-2.2-0.7
				s-0.9-1.1-0.9-1.8l0,0h1.1c0,0.5,0.2,0.9,0.6,1.2c0.4,0.3,0.9,0.4,1.5,0.4c0.6,0,1-0.1,1.3-0.4C102.6,84.6,102.7,84.3,102.7,83.9
				z"/>
			<path class="st1" d="M108.1,86v-8.3h2.9c1,0,1.9,0.3,2.5,1c0.7,0.6,1,1.5,1,2.5v1.4c0,1-0.3,1.9-1,2.5c-0.7,0.6-1.5,1-2.5,1
				H108.1z M109.8,79v5.7h1.1c0.6,0,1.1-0.2,1.4-0.6c0.3-0.4,0.5-0.9,0.5-1.6v-1.4c0-0.6-0.2-1.2-0.5-1.6s-0.8-0.6-1.4-0.6H109.8z"
				/>
			<path class="st1" d="M120.9,82.3h-3.4v2.4h4V86h-5.7v-8.3h5.7V79h-4v2.1h3.4V82.3z"/>
			<path class="st1" d="M127,83.8c0-0.3-0.1-0.6-0.3-0.8s-0.6-0.4-1.2-0.5c-1-0.3-1.7-0.6-2.2-1c-0.5-0.4-0.8-0.9-0.8-1.6
				c0-0.7,0.3-1.2,0.9-1.7c0.6-0.4,1.3-0.6,2.2-0.6c0.9,0,1.7,0.2,2.2,0.7s0.9,1.1,0.8,1.8l0,0H127c0-0.4-0.1-0.7-0.4-0.9
				s-0.6-0.4-1.1-0.4c-0.4,0-0.8,0.1-1,0.3c-0.2,0.2-0.4,0.5-0.4,0.8c0,0.3,0.1,0.5,0.4,0.7c0.3,0.2,0.7,0.4,1.4,0.6
				c0.9,0.3,1.6,0.6,2.1,1c0.5,0.4,0.7,1,0.7,1.7c0,0.7-0.3,1.3-0.8,1.7s-1.3,0.6-2.2,0.6c-0.9,0-1.7-0.2-2.4-0.7s-1-1.1-1-2l0,0
				h1.6c0,0.5,0.2,0.9,0.5,1.1c0.3,0.2,0.7,0.3,1.3,0.3c0.5,0,0.8-0.1,1-0.3S127,84.1,127,83.8z"/>
			<path class="st1" d="M131.7,86H130v-8.3h1.7V86z"/>
			<path class="st1" d="M139.8,84.9c-0.2,0.3-0.6,0.6-1.2,0.9s-1.2,0.4-2,0.4c-1,0-1.8-0.3-2.5-0.9c-0.6-0.6-1-1.5-1-2.5V81
				c0-1,0.3-1.8,0.9-2.5c0.6-0.6,1.4-1,2.4-1c1,0,1.8,0.2,2.3,0.7s0.8,1.1,0.8,1.9l0,0H138c0-0.4-0.2-0.8-0.4-1
				c-0.3-0.3-0.6-0.4-1.1-0.4c-0.5,0-0.9,0.2-1.2,0.6s-0.5,0.9-0.5,1.5v1.7c0,0.6,0.2,1.1,0.5,1.5c0.3,0.4,0.8,0.6,1.3,0.6
				c0.4,0,0.7,0,0.9-0.1c0.2-0.1,0.4-0.2,0.5-0.3v-1.5h-1.5v-1.2h3.1V84.9z"/>
			<path class="st1" d="M147.9,86h-1.7l-3.4-5.7l0,0V86h-1.7v-8.3h1.7l3.4,5.7l0,0v-5.7h1.7V86z"/>
		</g>
		<path class="st0" d="M128.3,122.8c-0.3,0.6-3.5,1.5-3.6-1.8c-0.1-2.4,1.3-3,3.6-2.8V122.8z M68.6,120.5c-0.2-0.2-0.3-0.7-0.4-0.9
			l-1.5-2.6c-0.3-0.6-0.6-1.1-0.9-1.6c-0.4-0.7-0.6-1.2-0.9-1.9c-0.2,0.5-0.4,0.7-0.5,1.3c-0.5,3.2,4.3,5.6,2.3,9.1
			c-0.4-1.3-1.5-2.9-2.2-4.1c-0.6-1-1.1-1.8-1.1-2.9c-0.6,0-2.2,0.8-2.8,1.1c-3.8,2.6-0.8,6.9,6.1,6.9c7.5,0,10.3-5,5.2-7.4
			l-1.8-0.7c-0.1-0.8-0.5-1.5-0.9-2.2c-0.8-1.3-2-3.2-2.5-4.5c-0.5,0.7-0.7,1.9-0.4,2.9c0.2,0.8,0.9,1.7,1.3,2.3
			c0.4,0.7,1,1.6,1.3,2.3C69.2,118.6,69.1,119.8,68.6,120.5L68.6,120.5z M95.5,118.5c0.6-0.1,1.6-0.2,2.3,0c0.7,0.2,1,0.6,1,1.4
			l0,4.8l1.6,0l0-3.7c0-1.2,0.1-2.3-0.6-3.1c-1.2-1.4-4-1-5.9-0.6l0,7.3h1.6L95.5,118.5z M90.5,122.8c-0.3,0.6-3.5,1.5-3.6-1.8
			c-0.1-2.4,1.3-3,3.6-2.8V122.8z M92.1,117.2c-1.3-0.4-3.3-0.6-4.6-0.1c-1.3,0.5-2.1,1.5-2.2,3.1c-0.5,5.2,4.4,5.2,5.2,3.6l0,0.8
			l1.6,0L92.1,117.2z M128.3,116.8c-1-0.1-2.2-0.1-3,0.2c-1.3,0.5-2.1,1.5-2.2,3.1c-0.5,5.2,4.4,5.2,5.2,3.6l0,0.8l1.6,0l0-7.2
			l0-0.1l0-3c-0.6-0.1-1.1,0.1-1.6,0.2L128.3,116.8L128.3,116.8z M139.5,117.3l0,7.4l1.7,0l0-6.6h2.4l0.1-1.3
			C143.3,116.6,139.5,116.8,139.5,117.3L139.5,117.3z M106.1,117l-2.5,0l0-2.8c-0.5,0-1.2,0-1.6,0.2l0,7.2c0,1.3,0.1,2.1,1,2.6
			c0.9,0.5,2,0.4,3,0.2l0.2-1.4c-1.2,0.2-2.4,0.5-2.5-0.9c-0.1-0.9-0.1-2.8,0-3.8l2.4,0L106.1,117L106.1,117z M116.9,118.2
			c0.6-0.1,1.6-0.2,2.3,0c0.7,0.2,1,0.6,1,1.4l0,4.8l1.6,0l0-3.7c0-1.2,0.1-2.3-0.6-3.1c-1.2-1.4-4-1-5.9-0.6l0,7.3l1.6,0
			L116.9,118.2L116.9,118.2z M111.9,122.7c-0.3,0.6-3.5,1.5-3.6-1.8c-0.1-2.4,1.3-3,3.6-2.8L111.9,122.7L111.9,122.7z M113.5,117.1
			c-1.3-0.4-3.3-0.6-4.6-0.1c-1.3,0.5-2.1,1.5-2.2,3.1c-0.5,5.2,4.4,5.2,5.2,3.6l0,0.8l1.6,0L113.5,117.1z M132.9,120
			c-0.1-0.5,0.2-1.1,0.5-1.4c1.1-1.2,3.4-0.3,3.1,1.4H132.9z M138,121.3c0.4-1.8-0.1-4.1-2.3-4.5c-1-0.2-2.2,0-2.9,0.4
			c-1.6,1-1.8,3.6-1.2,5.2c0.7,2,2.8,2.4,4.7,2.2c0.3,0,1.2-0.2,1.3-0.4l0.3-1.5c-1,0.3-1.8,0.7-3.1,0.5c-1-0.1-1.7-0.8-1.8-1.9
			L138,121.3z M77.7,122.7c-0.1,0.3-0.3,1-0.3,1.5c0.9,0.7,4,0.8,5.4,0.1c0.6-0.3,1.2-1,1.3-1.9c0.5-3.6-4.1-3.3-4.9-5
			c-0.5-1,0.3-1.6,1.2-1.8c1.4-0.2,2.2,0.3,2.9,0.4c0.1-0.5,0.2-0.9,0.3-1.5c-1.7-0.5-4.1-0.8-5.4,0.4c-1.2,1-1.2,3.2,0.5,4.4
			c0.7,0.4,1.5,0.7,2.2,1c0.7,0.4,1.6,0.8,1.4,1.8c-0.1,0.9-1.1,1.1-2.1,1.1c-0.5,0-1-0.1-1.5-0.2C78.5,122.9,78.1,122.8,77.7,122.7
			L77.7,122.7z M77.7,122.7"/>
		<g>
			<path class="st1" d="M76.5,95c1-0.8,2.1-1.1,3.3-1c1.7,0.1,2.9,1.2,3,3c0.2,2.1,0,4.3,0.1,6.4c0,0.3-0.1,0.4-0.4,0.4
				c-0.5,0-1,0-1.5,0c-0.4,0-0.5-0.1-0.5-0.5c0-1.5,0-3,0-4.5c0-0.3,0-0.6,0-0.9C80.4,96.6,80,96,79,96c-1.3-0.1-2,0.4-2.3,1.6
				c-0.1,0.5-0.1,1.1-0.1,1.6c0,1.4,0,2.7,0,4.1c0,0.4-0.1,0.5-0.5,0.5c-0.6-0.1-1.4,0.2-1.8-0.1c-0.4-0.3-0.1-1.1-0.1-1.7
				c0-2.4,0-4.8,0-7.2c0-0.4,0.1-0.6,0.5-0.5c0.4,0,0.7,0,1.1,0C76.3,94.2,76.8,94.2,76.5,95z"/>
			<path class="st1" d="M63.5,97.5c0-1,0-1.9,0-2.9c0-0.3,0.1-0.5,0.4-0.4c0.6,0.1,1.4-0.3,1.8,0.1c0.3,0.3,0.1,1.1,0.1,1.7
				c0,1.2,0,2.5,0,3.7c0,1.5,0.7,2.2,1.8,2.3c1.2,0.1,1.9-0.5,2-1.7c0.2-1.6,0.1-3.1,0.1-4.7c0-1.4,0-1.4,1.4-1.4
				c0.9,0,0.9,0,0.9,0.9c0,1.6,0,3.2,0,4.8c0,2.3-1.2,3.6-3.5,4c-0.8,0.1-1.7,0.1-2.5-0.2c-1.7-0.5-2.6-1.8-2.7-3.5
				C63.4,99.4,63.5,98.4,63.5,97.5C63.5,97.5,63.5,97.5,63.5,97.5z"/>
			<path class="st1" d="M121.3,104c-1.5,0-2.7-0.6-3.4-2c-0.2-0.3-0.2-0.4,0.2-0.5c0.2-0.1,0.4-0.2,0.6-0.3c0.3-0.1,0.6-0.4,1-0.4
				c0.3,0,0.4,0.5,0.6,0.7c0.3,0.3,0.6,0.4,1,0.5c0.5,0,1,0,1.3-0.6c0.2-0.6-0.1-1-0.5-1.3c-0.8-0.4-1.6-0.8-2.3-1.2
				c-0.9-0.5-1.4-1.3-1.3-2.3c0.1-1.3,1-2.4,2.4-2.6c1.5-0.3,3,0.4,3.5,1.6c0.1,0.2,0.1,0.3-0.1,0.4c-0.3,0.1-0.5,0.2-0.8,0.4
				c-0.5,0.3-0.9,0.6-1.4-0.1c-0.3-0.5-1-0.4-1.3,0.1c-0.3,0.5,0,0.8,0.4,1c0.3,0.2,0.6,0.3,0.9,0.5c0.5,0.3,1.1,0.5,1.6,0.8
				c1.6,0.9,1.9,3,0.6,4.3C123.4,103.7,122.4,104,121.3,104z"/>
			<path class="st1" d="M94.7,99c-1.7-0.7-3.2-1.4-4.8-2c-0.7-0.3-0.9-0.6-0.9-1.3c0.1-0.5,0-1,0-1.4c0.3,0,0.4,0.1,0.6,0.2
				c2.7,1.2,5.3,2.5,8,3.6c0.7,0.3,0.4,0.8,0.5,1.3c0.1,0.4-0.1,0.6-0.5,0.8c-2.7,1.2-5.4,2.4-8,3.6c-0.5,0.2-0.6,0.1-0.6-0.4
				c0-0.6-0.2-1.3,0.1-1.8c0.3-0.5,1.1-0.6,1.6-0.8c1.2-0.5,2.5-1.1,3.7-1.6C94.5,99.1,94.6,99.1,94.7,99z"/>
			<path class="st1" d="M113.3,94.9c1.1-1.1,2.4-1.2,3.8-0.7c0.4,0.2,0.5,0.4,0.2,0.7c-0.1,0.1-0.2,0.3-0.2,0.4
				c-0.2,0.3-0.3,0.8-0.6,1c-0.3,0.2-0.6-0.2-1-0.3c-0.9-0.2-1.6,0.2-2,1c-0.2,0.5-0.3,1.1-0.3,1.6c0,1.5,0,3,0,4.4
				c0,0.4-0.1,0.6-0.6,0.5c-0.6,0-1.3,0.2-1.7-0.1c-0.4-0.3-0.1-1.1-0.1-1.7c0-2.4,0-4.8,0-7.2c0-0.4,0.1-0.6,0.5-0.6
				c0.4,0,0.8,0,1.2,0C113.1,94.2,113.4,94.3,113.3,94.9z"/>
			<path class="st1" d="M87.2,99c0,1.4,0,2.8,0,4.2c0,0.4-0.1,0.6-0.5,0.6c-0.4,0-0.9,0-1.3,0c-0.4,0-0.5-0.1-0.5-0.5
				c0-2.9,0-5.8,0-8.6c0-0.3,0.1-0.4,0.4-0.4c0.6,0,1.4-0.2,1.8,0.1c0.4,0.3,0.1,1.1,0.1,1.7C87.2,97.1,87.2,98,87.2,99z"/>
			<path class="st1" d="M129.1,98.9c0,1.4,0,2.9,0,4.3c0,0.4-0.1,0.5-0.5,0.5c-0.4,0-0.9,0-1.3,0c-0.4,0-0.5-0.1-0.5-0.5
				c0-2.6,0-5.1,0-7.7c0-1.3,0-1.3,1.3-1.3c1.1,0,1.1,0,1.1,1.1C129.1,96.5,129.1,97.7,129.1,98.9z"/>
			<path class="st1" d="M102.4,99.5c1,0,2.1,0,3.1,0c1.1,0,2.2,0,3.2,0c0.3,0,0.4-0.1,0.4-0.4c0.2-3.1-1.8-5.2-4.9-5.1
				c-2,0-3.6,0.9-4.4,2.8c-0.8,2.1-0.6,4.1,0.9,5.8c0.3,0.3,0.6,0.5,1,0.8c2.2,1.3,5.3,0.7,6.9-1.3c0.6-0.8,0.6-0.8-0.3-1.3
				c-0.2-0.1-0.3-0.1-0.5-0.3c-0.5-0.4-0.8-0.3-1.1,0.2c-0.1,0.2-0.4,0.4-0.6,0.6c-0.8,0.7-1.7,0.8-2.6,0.5c-0.9-0.3-1.4-1-1.7-1.9
				C101.9,99.7,101.9,99.5,102.4,99.5z M104.5,96c1.1,0,1.9,0.6,2.2,1.7c-1.5,0-3,0-4.5,0C102.5,96.5,103.3,95.9,104.5,96z"/>
			<path class="st1" d="M139.6,101.2c0-1.4,0-2.8,0-4.2c0-1.1-0.5-1.9-1.5-2.2c-1.9-0.7-3.7-0.7-5.6,0.1c-0.9,0.4-1.5,1.1-1.7,2.1
				c-0.1,0.3,0,0.4,0.3,0.4c0.6,0,1.3,0,2,0c0.2,0,0.3,0,0.4-0.2c0.6-1.1,1.5-1.5,2.7-1.1c0.5,0.2,0.7,0.5,0.8,1.1
				c0,0.5-0.3,0.8-0.8,0.9c-0.3,0.1-0.7,0.1-1,0.2c-1,0.2-2.1,0.2-3.1,0.6c-0.9,0.3-1.4,0.9-1.6,1.9c-0.2,1.7,0.6,2.9,2.3,3.2
				c1.5,0.3,2.9,0,4.3-1c-0.1,0.8,0.4,0.9,1,0.8c0.6,0,1.2,0,1.9,0C139.6,102.9,139.6,102,139.6,101.2z M136.7,100
				c0,1.8-1.2,2.7-2.9,2.2c-0.5-0.1-0.8-0.4-0.8-0.9c-0.1-0.5,0.1-0.9,0.6-1.2c0.4-0.2,0.8-0.3,1.2-0.3c0.7-0.1,1.3-0.2,2-0.4
				C136.7,99.6,136.7,99.8,136.7,100z"/>
		</g>
		<polygon class="st0" points="110,133.2 61.5,133.2 61.5,133.9 110,133.9 141.1,133.9 141.1,133.2 		"/>
	</g>
	<g>
		<g>
			<g>
				<path class="st1" d="M143.8,148.1c-1.1,3.2-0.9,6.7,1,9.2c3.6-1.2,6.8-4.2,7.7-7.8c0.5-1.7,0.4-3.5,0-5
					c-0.5-1.5-1.4-2.9-2.5-3.8c-0.7,0.4-1.4,0.9-2,1.4c-0.6,0.5-1.1,1.1-1.7,1.7c-0.5,0.6-1,1.2-1.4,2S144.1,147.2,143.8,148.1z"/>
				<path class="st1" d="M143.8,148.1c-1.1,3.2-0.9,6.7,1,9.2c3.6-1.2,6.8-4.2,7.7-7.8c0.5-1.7,0.4-3.5,0-5
					c-0.5-1.5-1.4-2.9-2.5-3.8c-0.7,0.4-1.4,0.9-2,1.4c-0.6,0.5-1.1,1.1-1.7,1.7c-0.5,0.6-1,1.2-1.4,2S144.1,147.2,143.8,148.1z"/>
				<path class="st1" d="M153.3,165.3c-4.2-0.5-6.6-2.9-7.4-5.8c3.4-2.2,7.3-3.5,11.3-3.5c2,0,3.7,0.5,5.2,1.2
					c1.4,0.7,2.5,1.9,3.2,3.3c-0.9,0.9-1.7,1.5-2.7,2.1c-1,0.6-2,1.2-3.1,1.6s-2.1,0.7-3.2,0.9C155.4,165.5,154.4,165.5,153.3,165.3
					z"/>
			</g>
			<g>
				<path class="st1" d="M160.5,58.5c3.4,0.5,6.7-0.5,8.8-2.9c-1-1.6-2.2-3.2-4-4.2c-0.7-0.5-1.6-1-2.5-1.2
					c-0.9-0.4-1.9-0.5-2.7-0.5c-3.6-0.2-6.6,1.6-8.1,4.2c0.6,0.6,1.1,1.1,1.7,1.7c0.6,0.5,1.4,1,2,1.4
					C157.2,57.8,158.8,58.3,160.5,58.5z"/>
				<path class="st1" d="M175.6,45.7c0.4,4.2-1.5,7.1-4.3,8.4c-1.5-1.4-2.6-3.1-3.6-4.8c-0.5-0.9-0.9-1.7-1.2-2.7
					c-0.4-1-0.6-1.9-0.7-2.9c-0.6-4,0.2-7.2,2.9-9.1c1,0.6,1.9,1.5,2.6,2.2c0.7,0.9,1.5,1.7,2.2,2.7
					C174.5,41.6,175.4,43.6,175.6,45.7z"/>
			</g>
			<g>
				<path class="st1" d="M167.7,69.3c1.6,0.6,3.4,0.9,4.8,0.7c1.6-0.1,3.1-0.6,4.3-1.5c-0.2-0.9-0.7-1.7-1.2-2.6
					c-0.5-0.9-1-1.6-1.7-2.4c-0.6-0.7-1.4-1.2-2.2-1.7c-0.4-0.2-0.7-0.5-1.2-0.6c-0.4-0.1-0.9-0.4-1.4-0.5c-3.6-1-6.7,0.1-8.8,2.4
					c0.4,0.7,0.7,1.4,1.2,2c0.5,0.6,1.1,1.2,1.6,1.7C164.6,67.8,166.2,68.7,167.7,69.3z"/>
				<path class="st1" d="M185.3,60.1c-0.2,2.1-1,3.7-2.1,5c-1.1,1.2-2.5,2-4,2.4c-0.5-0.9-1-1.7-1.4-2.6c-0.4-0.9-0.7-1.9-1-2.9
					c-0.2-1-0.5-2-0.6-3c0-0.5-0.1-1-0.1-1.5c0-0.5,0-1,0-1.5c0.1-4,1.9-7.1,4.7-8.3c0.7,0.9,1.5,1.9,2.1,2.9s1.1,2,1.5,3.1
					C185.2,55.9,185.6,58,185.3,60.1z"/>
			</g>
			<g>
				<path class="st1" d="M172.4,81.5c3,1.9,6.3,2.5,9.2,1.2c0-1-0.2-1.9-0.6-2.9c-0.2-0.9-0.6-1.9-1.1-2.6c-1-1.6-2.4-3-4-4
					c-3.4-1.7-6.6-1.4-9.2,0.4c0.4,1.6,1.2,3,2.1,4.3c0.5,0.6,1,1.2,1.6,1.9C171.1,80.4,171.7,81,172.4,81.5z"/>
				<path class="st1" d="M191.5,76.4c-1.4,4-4.3,5.7-7.4,5.7c-0.2-1-0.6-1.9-0.7-2.9c-0.2-1-0.2-2-0.4-3c-0.1-2,0-4,0.6-6
					c1-3.7,3.3-6.5,6.5-7.1c1.1,2,2,4.3,2.2,6.6c0.1,1.1,0.1,2.2,0.1,3.3C192.1,74.3,191.9,75.4,191.5,76.4z"/>
			</g>
			<g>
				<path class="st1" d="M174.3,94.3c2.5,2.5,5.6,3.7,8.7,3.2c0.1-1,0.1-2,0.1-2.9c-0.1-1-0.2-1.9-0.5-2.9c-0.6-1.9-1.6-3.5-3-4.7
					c-2.9-2.5-6.2-2.7-9.1-1.6c0,0.9,0.1,1.6,0.4,2.4c0.2,0.7,0.4,1.6,0.7,2.4c0.4,0.7,0.7,1.5,1.2,2.1
					C173.2,93,173.7,93.6,174.3,94.3z"/>
				<path class="st1" d="M194,93.5c-2.2,3.5-5.6,4.6-8.6,4c0-1-0.1-2-0.1-3s0.1-2,0.4-3c0.2-2,0.9-3.8,1.9-5.6
					c1.7-3.5,4.6-5.6,7.8-5.5c0.4,1.1,0.6,2.2,0.7,3.5c0.1,1.1,0.1,2.4,0,3.5c-0.1,1.1-0.2,2.2-0.6,3.2
					C195.1,91.6,194.6,92.6,194,93.5z"/>
			</g>
			<g>
				<path class="st1" d="M173.3,107.3c1.9,3,4.6,4.8,7.7,5c0.4-0.9,0.6-1.9,0.7-2.9c0.1-1,0.1-2,0.1-2.9c-0.2-1.9-0.9-3.7-1.9-5.2
					c-2.2-3-5.5-4-8.4-3.6c-0.1,0.7-0.2,1.6-0.1,2.4c0,0.9,0,1.6,0.2,2.4c0.1,0.7,0.4,1.6,0.7,2.4
					C172.5,105.8,172.9,106.5,173.3,107.3z"/>
				<path class="st1" d="M192.8,110.9c-2.9,3-6.5,3.3-9.2,2c0.1-1,0.4-2,0.5-3c0.2-1,0.5-2,1-2.9c0.7-1.9,1.7-3.6,3.1-5.1
					c2.5-3,5.7-4.3,8.8-3.6c0.1,1.1,0.1,2.4,0,3.5c-0.1,1.1-0.4,2.4-0.7,3.3c-0.4,1.1-0.7,2.1-1.4,3.1
					C194.3,109.3,193.5,110.1,192.8,110.9z"/>
			</g>
			<g>
				<path class="st1" d="M169.6,119.7c0.2,0.9,0.6,1.6,1.1,2.4c0.4,0.7,0.9,1.4,1.5,1.9c1.1,1.1,2.4,2,4,2.4c1.1-1.6,1.7-3.5,2-5.3
					s0-3.8-0.6-5.5c-1.5-3.5-4.5-5.1-7.4-5.3c-0.4,0.7-0.5,1.5-0.7,2.4c-0.2,0.7-0.4,1.6-0.4,2.4
					C168.8,116.3,168.9,117.9,169.6,119.7z"/>
				<path class="st1" d="M187.8,127.5c-0.9,0.6-1.7,1-2.6,1.2c-0.9,0.2-1.7,0.4-2.5,0.2c-1.6-0.1-3.1-0.6-4.3-1.6
					c0.7-1.9,1.5-3.7,2.7-5.3c1.1-1.6,2.5-3.1,4.1-4.3c3.1-2.4,6.6-3,9.3-1.6c-0.1,1.1-0.5,2.4-0.7,3.5c-0.4,1.1-0.9,2.1-1.5,3.1
					C191.2,124.8,189.5,126.4,187.8,127.5z"/>
			</g>
			<g>
				<path class="st1" d="M163.2,131c0.4,3.5,2.1,6.3,4.8,7.8c0.7-0.6,1.4-1.4,1.9-2.2c0.5-0.9,1-1.7,1.2-2.6
					c0.7-1.7,0.9-3.7,0.5-5.5c-0.2-1.7-1.1-3.3-2.2-4.5c-1.1-1.1-2.5-2-3.8-2.4C163.7,124.3,162.7,127.5,163.2,131z"/>
				<path class="st1" d="M179.2,142.5c-4,1.4-7.2,0.2-9.2-2.1c0.5-0.9,1.1-1.6,1.7-2.4c0.6-0.7,1.2-1.5,2-2.2c1.5-1.4,3.1-2.5,5-3.3
					c1.9-0.7,3.6-1.2,5.2-1.1c1.6,0.1,3.1,0.6,4.3,1.6C186.7,137.4,183.1,141.2,179.2,142.5z"/>
			</g>
			<g>
				<path class="st1" d="M154.4,140.7c-0.4,3.3,0.6,6.7,3,8.7c1.6-1,3.1-2.4,4.1-4c0.5-0.9,1-1.6,1.2-2.5c0.2-0.9,0.5-1.9,0.5-2.7
					c0.1-1.9-0.4-3.5-1.1-4.8c-0.9-1.4-2-2.5-3.3-3.2c-0.2,0.2-0.6,0.6-0.9,0.9c-0.2,0.2-0.5,0.6-0.7,0.9c-0.5,0.6-1,1.4-1.2,2.1
					C155.2,137.2,154.6,138.8,154.4,140.7z"/>
				<path class="st1" d="M167.6,155.4c-4.2,0.5-7.1-1.4-8.6-4.1c1.4-1.5,3.1-2.6,4.7-3.7c0.9-0.5,1.7-0.9,2.7-1.2
					c0.9-0.4,1.9-0.6,2.9-0.9c2-0.4,3.7-0.4,5.3,0.1c1.6,0.4,2.9,1.2,3.8,2.5c-0.4,0.5-0.6,1-1,1.5c-0.4,0.5-0.7,0.9-1.2,1.2
					c-0.9,0.9-1.7,1.6-2.6,2.2C171.7,154.3,169.6,155.2,167.6,155.4z"/>
			</g>
			<path class="st1" d="M156.5,36.2c1.9,1.4,3.4,2.9,4.3,4.6c0.5,0.9,0.9,1.7,1.1,2.6c0.2,0.9,0.4,1.7,0.4,2.6
				c-0.9,0.1-1.7,0-2.6-0.1c-0.9-0.1-1.7-0.2-2.6-0.5c-1.7-0.6-3.5-1.2-5.1-2.5c-0.7-0.6-1.6-1.1-2.2-1.9c-0.7-0.6-1.2-1.4-1.9-2.1
				c-1.1-1.4-2-3-2.5-4.7c1.6-0.6,3.5-0.7,5.5-0.5c1,0.1,2,0.5,3,0.9C154.6,35.1,155.7,35.6,156.5,36.2z"/>
		</g>
		<g>
			<g>
				<path class="st1" d="M55.9,148.1c1.1,3.2,0.9,6.7-1,9.2c-3.6-1.2-6.8-4.2-7.7-7.8c-0.5-1.7-0.4-3.5,0-5c0.5-1.5,1.4-2.9,2.5-3.8
					c0.7,0.4,1.4,0.9,2,1.4c0.6,0.5,1.1,1.1,1.7,1.7c0.5,0.6,1,1.2,1.4,2C55.3,146.5,55.6,147.2,55.9,148.1z"/>
				<path class="st1" d="M55.9,148.1c1.1,3.2,0.9,6.7-1,9.2c-3.6-1.2-6.8-4.2-7.7-7.8c-0.5-1.7-0.4-3.5,0-5c0.5-1.5,1.4-2.9,2.5-3.8
					c0.7,0.4,1.4,0.9,2,1.4c0.6,0.5,1.1,1.1,1.7,1.7c0.5,0.6,1,1.2,1.4,2C55.3,146.5,55.6,147.2,55.9,148.1z"/>
				<path class="st1" d="M46.3,165.3c4.2-0.5,6.6-2.9,7.4-5.8c-3.3-2.2-7.3-3.5-11.3-3.5c-2,0-3.7,0.5-5.2,1.2
					c-1.4,0.7-2.5,1.9-3.2,3.3c0.9,0.9,1.7,1.5,2.7,2.1c1,0.6,2,1.2,3.1,1.6s2.1,0.7,3.2,0.9C44.2,165.5,45.3,165.5,46.3,165.3z"/>
			</g>
			<g>
				<path class="st1" d="M39.1,58.5c-3.4,0.5-6.7-0.5-8.8-2.9c1-1.6,2.2-3.2,4-4.2c0.7-0.5,1.6-1,2.5-1.2c0.9-0.4,1.9-0.5,2.7-0.5
					c3.6-0.2,6.6,1.6,8.1,4.2c-0.6,0.6-1.1,1.1-1.7,1.7c-0.6,0.5-1.4,1-2,1.4C42.5,57.8,40.9,58.3,39.1,58.5z"/>
				<path class="st1" d="M24,45.7c-0.4,4.2,1.5,7.1,4.3,8.4c1.5-1.4,2.6-3.1,3.6-4.8c0.5-0.9,0.9-1.7,1.2-2.7c0.4-1,0.6-1.9,0.7-2.9
					c0.6-4-0.2-7.2-2.9-9.1c-1,0.6-1.9,1.5-2.6,2.2c-0.7,0.9-1.5,1.7-2.2,2.7C25.1,41.6,24.2,43.6,24,45.7z"/>
			</g>
			<g>
				<path class="st1" d="M31.9,69.3c-1.6,0.6-3.4,0.9-4.8,0.7c-1.6-0.1-3.1-0.6-4.3-1.5c0.2-0.9,0.7-1.7,1.2-2.6
					c0.5-0.9,1-1.6,1.7-2.4c0.6-0.7,1.4-1.2,2.2-1.7c0.4-0.2,0.7-0.5,1.2-0.6c0.4-0.1,0.9-0.4,1.4-0.5c3.6-1,6.7,0.1,8.8,2.4
					c-0.4,0.7-0.7,1.4-1.2,2c-0.5,0.6-1.1,1.2-1.6,1.7C35,67.8,33.5,68.7,31.9,69.3z"/>
				<path class="st1" d="M14.4,60.1c0.2,2.1,1,3.7,2.1,5c1.1,1.2,2.5,2,4,2.4c0.5-0.9,1-1.7,1.4-2.6c0.4-0.9,0.7-1.9,1-2.9
					c0.2-1,0.5-2,0.6-3c0-0.5,0.1-1,0.1-1.5c0-0.5,0-1,0-1.5c-0.1-4-1.9-7.1-4.7-8.3c-0.7,0.9-1.5,1.9-2.1,2.9c-0.6,1-1.1,2-1.5,3.1
					C14.6,55.9,14.1,58,14.4,60.1z"/>
			</g>
			<g>
				<path class="st1" d="M27.2,81.5c-3,1.9-6.3,2.5-9.2,1.2c0-1,0.2-1.9,0.6-2.9c0.2-0.9,0.6-1.9,1.1-2.6c1-1.6,2.4-3,4-4
					c3.4-1.7,6.6-1.4,9.2,0.4c-0.4,1.6-1.2,3-2.1,4.3c-0.5,0.6-1,1.2-1.6,1.9C28.6,80.4,28,81,27.2,81.5z"/>
				<path class="st1" d="M8.1,76.4c1.4,4,4.3,5.7,7.4,5.7c0.2-1,0.6-1.9,0.7-2.9c0.2-1,0.2-2,0.4-3c0.1-2,0-4-0.6-6
					c-1-3.7-3.3-6.5-6.5-7.1c-1.1,2-2,4.3-2.2,6.6c-0.1,1.1-0.1,2.2-0.1,3.3C7.5,74.3,7.7,75.4,8.1,76.4z"/>
			</g>
			<g>
				<path class="st1" d="M25.4,94.3c-2.5,2.5-5.6,3.7-8.7,3.2c-0.1-1-0.1-2-0.1-2.9c0.1-1,0.2-1.9,0.5-2.9c0.6-1.9,1.6-3.5,3-4.7
					c2.9-2.5,6.2-2.7,9.1-1.6c0,0.9-0.1,1.6-0.4,2.4c-0.2,0.7-0.4,1.6-0.7,2.4c-0.4,0.7-0.7,1.5-1.2,2.1C26.5,93,26,93.6,25.4,94.3z
					"/>
				<path class="st1" d="M5.6,93.5c2.2,3.5,5.6,4.6,8.6,4c0-1,0.1-2,0.1-3s-0.1-2-0.4-3c-0.2-2-0.9-3.8-1.9-5.6
					c-1.7-3.5-4.6-5.6-7.8-5.5c-0.4,1.1-0.6,2.2-0.7,3.5c-0.1,1.1-0.1,2.4,0,3.5c0.1,1.1,0.2,2.2,0.6,3.2C4.6,91.6,5,92.6,5.6,93.5z
					"/>
			</g>
			<g>
				<path class="st1" d="M26.3,107.3c-1.9,3-4.6,4.8-7.7,5c-0.4-0.9-0.6-1.9-0.7-2.9c-0.1-1-0.1-2-0.1-2.9c0.2-1.9,0.9-3.7,1.9-5.2
					c2.2-3,5.5-4,8.4-3.6c0.1,0.7,0.2,1.6,0.1,2.4c0,0.9,0,1.6-0.2,2.4c-0.1,0.7-0.4,1.6-0.7,2.4C27.1,105.8,26.8,106.5,26.3,107.3z
					"/>
				<path class="st1" d="M6.9,110.9c2.9,3,6.5,3.3,9.2,2c-0.1-1-0.4-2-0.5-3c-0.2-1-0.5-2-1-2.9c-0.7-1.9-1.7-3.6-3.1-5.1
					c-2.5-3-5.7-4.3-8.8-3.6c-0.1,1.1-0.1,2.4,0,3.5c0.1,1.1,0.4,2.4,0.7,3.3c0.4,1.1,0.7,2.1,1.4,3.1
					C5.5,109.3,6.1,110.1,6.9,110.9z"/>
			</g>
			<g>
				<path class="st1" d="M30.1,119.7c-0.2,0.9-0.6,1.6-1.1,2.4c-0.4,0.7-0.9,1.4-1.5,1.9c-1.1,1.1-2.4,2-4,2.4
					c-1.1-1.6-1.7-3.5-2-5.3c-0.2-1.9,0-3.8,0.6-5.5c1.5-3.5,4.5-5.1,7.4-5.3c0.4,0.7,0.5,1.5,0.7,2.4c0.2,0.7,0.4,1.6,0.4,2.4
					C30.8,116.3,30.7,117.9,30.1,119.7z"/>
				<path class="st1" d="M12,127.5c0.9,0.6,1.7,1,2.6,1.2c0.9,0.2,1.7,0.4,2.5,0.2c1.6-0.1,3.1-0.6,4.3-1.6
					c-0.7-1.9-1.5-3.7-2.7-5.3c-1.1-1.6-2.5-3.1-4.1-4.3c-3.1-2.4-6.6-3-9.3-1.6c0.1,1.1,0.5,2.4,0.7,3.5c0.4,1.1,0.9,2.1,1.5,3.1
					C8.6,124.8,10.2,126.4,12,127.5z"/>
			</g>
			<g>
				<path class="st1" d="M36.5,131c-0.4,3.5-2.1,6.3-4.8,7.8c-0.7-0.6-1.4-1.4-1.9-2.2c-0.5-0.9-1-1.7-1.2-2.6
					c-0.7-1.7-0.9-3.7-0.5-5.5c0.2-1.7,1.1-3.3,2.2-4.5c1.1-1.1,2.5-2,3.8-2.4C35.9,124.3,36.9,127.5,36.5,131z"/>
				<path class="st1" d="M20.5,142.5c4,1.4,7.2,0.2,9.2-2.1c-0.5-0.9-1.1-1.6-1.7-2.4c-0.6-0.7-1.2-1.5-2-2.2
					c-1.5-1.4-3.1-2.5-5-3.3c-1.9-0.7-3.6-1.2-5.2-1.1c-1.6,0.1-3.1,0.6-4.3,1.6C13.1,137.4,16.5,141.2,20.5,142.5z"/>
			</g>
			<g>
				<path class="st1" d="M45.2,140.7c0.4,3.3-0.6,6.7-3,8.7c-1.6-1-3.1-2.4-4.1-4c-0.5-0.9-1-1.6-1.2-2.5c-0.2-0.9-0.5-1.9-0.5-2.7
					c-0.1-1.9,0.4-3.5,1.1-4.8c0.9-1.4,2-2.5,3.3-3.2c0.2,0.2,0.6,0.6,0.9,0.9c0.2,0.2,0.5,0.6,0.7,0.9c0.5,0.6,1,1.4,1.2,2.1
					C44.6,137.2,45.1,138.8,45.2,140.7z"/>
				<path class="st1" d="M32.2,155.4c4.2,0.5,7.1-1.4,8.6-4.1c-1.4-1.5-3.1-2.6-4.7-3.7c-0.9-0.5-1.7-0.9-2.7-1.2
					c-0.9-0.4-1.9-0.6-2.9-0.9c-2-0.4-3.7-0.4-5.3,0.1c-1.6,0.4-2.9,1.2-3.8,2.5c0.4,0.5,0.6,1,1,1.5c0.4,0.5,0.7,0.9,1.2,1.2
					c0.9,0.9,1.7,1.6,2.6,2.2C28,154.3,30.1,155.2,32.2,155.4z"/>
			</g>
			<path class="st1" d="M43.1,36.2c-1.9,1.4-3.4,2.9-4.3,4.6c-0.5,0.9-0.9,1.7-1.1,2.6c-0.2,0.9-0.4,1.7-0.4,2.6
				c0.9,0.1,1.7,0,2.6-0.1c0.9-0.1,1.7-0.2,2.6-0.5c1.7-0.6,3.5-1.2,5.1-2.5c0.7-0.6,1.6-1.1,2.2-1.9c0.7-0.6,1.2-1.4,1.9-2.1
				c1.1-1.4,2-3,2.5-4.7c-1.6-0.6-3.5-0.7-5.5-0.5c-1,0.1-2,0.5-3,0.9C45.1,35.1,44.1,35.6,43.1,36.2z"/>
		</g>
	</g>
</g>
</svg>
