<?xml version="1.0" encoding="utf-8"?>
<!-- Generator: Adobe Illustrator 24.1.2, SVG Export Plug-In . SVG Version: 6.00 Build 0)  -->
<svg version="1.1" id="Layer_1" xmlns="http://www.w3.org/2000/svg" xmlns:xlink="http://www.w3.org/1999/xlink" x="0px" y="0px"
	 viewBox="0 0 200 200" style="enable-background:new 0 0 200 200;" xml:space="preserve">
<style type="text/css">
	.st0{fill:#ADADAD;}
	.st1{fill:#FFFFFF;}
</style>
<g>
	<g>
		<g>
			<path class="st0" d="M75.7,72c0.8-0.3,1.5-0.8,2.3-1.2c5.2-2.8,10.8-4.6,16.6-5.4c5-0.7,9.9-0.6,14.8,0.1c2.2-4,3.4-8.6,3.4-13.5
				c0-15.5-12.6-28.2-28.2-28.2S56.6,36.5,56.6,52c0,10.2,5.4,19,13.4,24c1.2-0.9,2.4-1.8,3.6-2.6C74.3,72.9,75.1,72.6,75.7,72z"/>
		</g>
		<path d="M75.7,72c-0.6,0.6-1.4,0.9-2.1,1.4c-2.3,1.6-4.6,3.3-6.7,5.3c-0.2,0.2-0.4,0.3-0.6,0.4C58.1,73.9,53,66.6,51.3,57
			c-1.7-9.7,0.8-18.4,7-26c4.7-5.7,10.7-9.4,18-11c11-2.4,20.8,0.2,29.4,7.4c1.3,1.1,2.5,2.4,3.6,3.8c0.1,0.1,0.2,0.2,0.3,0.3
			c0.2-0.1,0.2-0.3,0.2-0.4c0.3-1.5,0.6-3.1,1-4.6c0.7-2.7,3.5-4.3,6.2-3.7c2.7,0.6,4.5,3.3,4,6c-1,5.1-2,10.2-3,15.3
			c-0.2,0.8-0.3,1.7-0.5,2.5c-0.6,2.8-3.4,4.6-6.2,4.1c-5.9-1.1-11.8-2.3-17.6-3.5c-2.9-0.6-4.7-3.4-4-6.2c0.6-2.9,3.3-4.6,6.3-4
			c1.6,0.3,3.2,0.6,4.8,1c0.1,0,0.3,0.1,0.5,0c-0.5-0.6-1-1.1-1.5-1.6c-3-2.9-6.6-4.9-10.7-5.8c-6.4-1.4-12.5-0.4-18,3.3
			c-4.8,3.2-7.9,7.7-9.1,13.4C60.4,53.9,62,60,66.4,65.4C68.9,68.4,72,70.6,75.7,72z"/>
	</g>
	<path d="M173.9,157.7c-3.5-3.5-7-7-10.4-10.5c-1.3-1.3-2.5-2.6-3.8-3.7c-2-1.9-5.3-1.7-7.2,0.3c-2,2-2,5.2-0.1,7.2
		c1.5,1.6,3.1,3.2,4.7,4.7c0.1,0.1,0.3,0.2,0.2,0.4c-0.1,0.2-0.3,0.1-0.4,0.1c-7.8,0-15.6,0-23.4,0c-0.2,0-0.4,0.1-0.5-0.1
		c0-0.2,0.2-0.3,0.3-0.4c1.8-1.4,3.5-2.9,5-4.6c8.7-9.1,13.5-20,14.3-32.6c0.4-6.7-0.6-13.3-2.8-19.6c-2.9-8.2-7.7-15.3-14.2-21.1
		c-5.7-5.1-12.3-8.8-19.7-10.9c-2.2-0.6-4.3-1.1-6.5-1.4c-4.9-0.8-9.8-0.8-14.8-0.1C88.8,66.2,83.2,68,78,70.8
		c-0.8,0.4-1.5,0.9-2.3,1.2c-0.6,0.6-1.4,0.9-2.1,1.4c-1.2,0.9-2.4,1.7-3.6,2.6c-1.1,0.8-2.1,1.7-3.1,2.7c-0.2,0.2-0.4,0.3-0.6,0.4
		c0,0.2-0.2,0.4-0.4,0.5c-4.6,4.6-8.3,9.9-10.9,15.8c-3.3,7.5-4.7,15.3-4.2,23.5c0.3,5.9,1.7,11.5,4,16.9c0.1,0.2,0.2,0.3,0.1,0.5
		c-0.1,0.1-0.3,0-0.5,0c-2.8-0.5-5.5-0.9-8.3-1.3c-2.8-0.4-5.5,1.6-5.9,4.4c-0.4,2.9,1.5,5.5,4.6,6c1,0.2,2,0.3,3,0.5
		c5.9,1,11.8,1.9,17.6,2.9c3.2,0.5,5.7-1.3,6.3-4.5c0.6-3.7,1.2-7.3,1.9-11c0.6-3.3,1.2-6.5,1.6-9.8c0.4-2.7-1.6-5.3-4.3-5.7
		c-2.8-0.5-5.5,1.2-6,4c-0.5,2.6-0.9,5.3-1.4,7.9c0,0.1,0,0.3-0.2,0.4c-0.1-0.1-0.1-0.2-0.2-0.3c-2.8-7.9-3.2-16-1.1-24.1
		c2.2-8.4,6.6-15.4,13.3-20.9c2.1-1.7,4.2-3.2,6.5-4.5c5.8-3.3,12.2-5,19.1-5.1c1.1,0,2.2,0,3.3,0c7.3,0.4,14,2.7,20.1,6.8
		c6.8,4.6,11.8,10.6,15,18.1c2.8,6.5,3.7,13.2,3,20.2c-1,9.2-4.7,17.1-11,23.8c-5.1,5.4-11.2,9.1-18.3,11.1c-2.6,0.8-5.2,1.2-8,1.2
		c-24.8,0-49.7,0-74.5,0c-0.4,0-0.9,0-1.3,0c-2.2,0.2-4,1.7-4.6,3.7c-0.6,2.1,0.1,4.4,1.9,5.7c1.1,0.9,2.4,1.1,3.8,1.1
		c42,0,83.9,0,125.9,0c0.2,0,0.4,0,0.6,0c0.2,0,0.4-0.1,0.4,0.1c0.1,0.2-0.1,0.2-0.2,0.4c-0.3,0.3-0.5,0.5-0.8,0.8
		c-1.2,1.2-2.5,2.5-3.7,3.7c-1.5,1.5-2,3.3-1.3,5.3c1.2,3.9,5.9,5,8.9,2c4.6-4.6,9.2-9.2,13.8-13.8c0.4-0.4,0.7-0.7,0.9-1.2
		C176,161.9,175.7,159.5,173.9,157.7z"/>
</g>
</svg>
