<?xml version="1.0" encoding="utf-8"?>
<!-- Generator: Adobe Illustrator 25.1.0, SVG Export Plug-In . SVG Version: 6.00 Build 0)  -->
<svg version="1.1" id="Layer_1" xmlns="http://www.w3.org/2000/svg" xmlns:xlink="http://www.w3.org/1999/xlink" x="0px" y="0px"
	 viewBox="0 0 203.1 200" style="enable-background:new 0 0 203.1 200;" xml:space="preserve">
<style type="text/css">
	.st0{fill:#FFFFFF;}
</style>
<path class="st0" d="M82.3,92.6c0,0,17.7-1.3,17.7-22.1c0-20.8-14.5-31-32.9-31H6.6v116.3h60.5c0,0,37,1.2,37-34.3
	C104.1,121.5,105.7,92.6,82.3,92.6L82.3,92.6z M62.8,60.2h4.4c0,0,8.2,0,8.2,12.1c0,12.1-4.8,13.9-10.3,13.9H33.3v-26L62.8,60.2
	L62.8,60.2z M65.4,135.1H33.3V104h33.9c0,0,12.3-0.2,12.3,16C79.4,133.6,70.2,135,65.4,135.1L65.4,135.1z M153.3,69.1
	c-44.7,0-44.7,44.7-44.7,44.7s-3.1,44.5,44.7,44.5c0,0,39.8,2.3,39.8-30.9h-20.5c0,0,0.7,12.5-18.6,12.5c0,0-20.5,1.4-20.5-20.2
	h60.3C193.8,119.6,200.4,69.1,153.3,69.1L153.3,69.1z M133.3,104c0,0,2.5-17.9,20.5-17.9c18,0,17.7,17.9,17.7,17.9H133.3z
	 M176.3,60.7h-48V46.3h48L176.3,60.7L176.3,60.7z"/>
</svg>
