<?xml version="1.0" encoding="utf-8"?>
<!-- Generator: Adobe Illustrator 25.1.0, SVG Export Plug-In . SVG Version: 6.00 Build 0)  -->
<svg version="1.1" id="Layer_1" xmlns="http://www.w3.org/2000/svg" xmlns:xlink="http://www.w3.org/1999/xlink" x="0px" y="0px"
	 viewBox="0 0 333 186" style="enable-background:new 0 0 333 186;" xml:space="preserve">
<style type="text/css">
	.st0{fill:#FEFEFE;}
</style>
<path class="st0" d="M308.3,159c-32.3-11.6-65-21.6-98.5-28.9c-20-4.4-40.2-7.7-60.6-9.5c-16.7-1.5-33.4-1.9-50.1-0.5
	c-0.1,0-0.2,0-0.2,0l0,0c-0.4-0.1-0.4-0.8,0-1c7.2-3,14.3-6.2,21.1-9.9c17.6-9.3,34.2-20,48.2-34.4c6.2-6.4,11.7-13.3,14.9-21.7
	c4.5-11.9,1.3-21.6-9.4-28.5c-3.2-2.1-6.6-3.7-10.2-4.9c-14.8-4.9-29.9-5.2-45-2.2C90.2,23,69.4,39.3,54.3,63.3
	c-1.5,2.4-0.9,4.9,1.2,6.2c2.2,1.4,4.7,0.7,6.2-1.8c2.2-3.7,4.7-7.2,7.4-10.5c22-26.1,49.8-36.9,83.6-31.5c7.2,1.1,14,3.5,19.5,8.5
	c3.5,3.1,5,7,4,11.7c-0.5,2.5-1.3,4.8-2.5,7c-3.5,7.1-8.6,12.9-14.3,18.3c-12.5,12-26.9,21.4-42.1,29.5
	c-13.6,7.3-28.1,12.8-42.1,19.2c-6.1,2.8-12.2,5.4-18.1,8.7c-1.6,0.9-3,2-3.2,4c-0.2,1.7,0.3,3.1,1.7,4.1c1.9,1.4,4,1.1,5.9,0.2
	c6.3-2.9,13-4.6,19.8-5.9c16.6-3.1,33.3-3.7,50.1-3.1c20.3,0.8,40.4,3.4,60.3,7.1c23.6,4.4,46.9,10.4,69.9,17.4c9,2.7,18,5.6,27,8.6
	c0.3,0.1,0.4,0.5,0.3,0.7c-1.8,3.2-1.2,6.2,1.7,7c5.8,1.6,11.7,2.2,17.5,0.6c3.2-0.9,4.8-2.8,4.8-5.3
	C312.8,161.7,311.5,160.2,308.3,159z"/>
<path class="st0" d="M147.1,48.1c-2.2-7.5-6.5-13.7-14.7-16c-6.3-1.7-12.5-0.9-18.5,1.1C101.4,37.3,91.2,45,81.9,54
	C72.3,63.1,64.3,73.4,57,84.4c-0.9,1.3-1.4,1.4-2.5,0.3c-3-2.9-4.8-6.3-5.2-10.5c-0.6-5.8,0.9-11.2,3.2-16.4
	c1.1-2.5,0.3-5.1-1.8-6.4c-2.2-1.3-5-0.8-6.7,1.4C36.1,63.5,28.2,74.3,20.2,85c-0.8,1.1-1.2,2.3-1.1,3.6c0.2,2.1,1.3,3.6,3.4,4.3
	c2.1,0.7,4.2,0,5.7-1.9c3.7-5,7.4-10,11.2-15.1c0.2,0.7,0.4,1.1,0.5,1.6c1.2,6.4,4.3,11.6,9.3,15.6c1.4,1.1,1.2,1.7,0.4,3
	c-6.5,10.5-12.7,21.1-18,32.3c-2.1,4.4-4.2,8.9-5.4,13.7c-0.7,2.9,0.8,5.2,3.4,6c2.6,0.7,5.1-0.6,6-3.4c0.5-1.5,1-3,1.6-4.4
	C43,126.1,50.8,113,58.7,100c0.6-1,1.2-0.9,2.1-0.6c5,1.8,10.2,2.7,15.5,3c16.2,0.7,31.4-3.3,45.5-11.2c8.1-4.6,15.3-10.3,20.4-18.2
	C147.3,65.4,149.8,57.1,147.1,48.1z M134.5,66.7c-4.7,7.6-11.7,12.8-19.5,16.9c-11.4,6-23.6,9.3-36.5,9c-4.6-0.1-9-0.7-13.5-2.3
	c5.3-8.1,11-15.7,17.4-22.7c8.2-9,17.2-17.1,28.3-22.5c3.7-1.8,7.5-3.2,11.5-3.7c9.6-1.4,14,2.2,15.9,11.8
	C139.1,58.1,137.1,62.6,134.5,66.7z"/>
</svg>
