<svg id="Layer_1" data-name="Layer 1" xmlns="http://www.w3.org/2000/svg" viewBox="0 0 301.24 200"><defs><style>.cls-1{fill:#16323f;}.cls-2{fill:#f3d446;}</style></defs><path class="cls-1" d="M147.35,19.71q28.07,0,56.12,0a79.47,79.47,0,0,1,16,1.42A80.6,80.6,0,0,1,249,33.36a80.28,80.28,0,0,1,31,39.93,80.31,80.31,0,0,1,4.3,33.13,76.85,76.85,0,0,1-5.25,22.75,81.49,81.49,0,0,1-12.17,21A80,80,0,0,1,246,168.56a78.93,78.93,0,0,1-16.38,7.62,82.3,82.3,0,0,1-16,3.52c-6.87.84-13.76.56-20.65.56q-49.78.06-99.56,0a92.83,92.83,0,0,1-20.51-2A80.44,80.44,0,0,1,10.43,94.89a78.94,78.94,0,0,1,7.1-28.19,80.24,80.24,0,0,1,21.3-28A79,79,0,0,1,68.67,22.79,88.38,88.38,0,0,1,93.26,19.7C111.29,19.75,129.32,19.71,147.35,19.71Zm.07,11.93q-27.28,0-54.56,0a77.2,77.2,0,0,0-9.84.41,73.08,73.08,0,0,0-12.68,2.65A68.65,68.65,0,0,0,22.79,91.14a68.18,68.18,0,0,0,19.53,57.24,67.8,67.8,0,0,0,23.1,15.15,66.53,66.53,0,0,0,24.71,4.82H204.74a66.09,66.09,0,0,0,23.84-4.47,68.49,68.49,0,0,0,44-60.27,66.82,66.82,0,0,0-6.06-31.94A68,68,0,0,0,237.8,40.42,65.87,65.87,0,0,0,205,31.64Q176.19,31.6,147.42,31.64Z"/><path class="cls-2" d="M147.42,31.64q28.77,0,57.54,0a65.87,65.87,0,0,1,32.84,8.78,68,68,0,0,1,28.73,31.26,68.2,68.2,0,0,1-8.75,70.87,67.3,67.3,0,0,1-29.2,21.34,66.09,66.09,0,0,1-23.84,4.47H90.13a66.53,66.53,0,0,1-24.71-4.82,68.5,68.5,0,0,1-38.79-39.35A68.18,68.18,0,0,1,39.5,54.65,67.32,67.32,0,0,1,70.34,34.71,73.08,73.08,0,0,1,83,32.06a77.2,77.2,0,0,1,9.84-.41Q120.15,31.61,147.42,31.64ZM210.8,137c3.87,0,5.87-1.23,7.24-4.93,2.55-6.82,5-13.7,7.42-20.55s4.91-13.72,7.36-20.58c2.33-6.52,4.67-13,7-19.57a5.63,5.63,0,0,0-.86-5.75,6.29,6.29,0,0,0-6.39-2.42,6.73,6.73,0,0,0-5.15,4.93c-2.56,7.76-5.2,15.5-7.8,23.25s-5.22,15.59-7.82,23.39c-.16.48-.08,1.18-.79,1.17s-.52-.68-.66-1.1q-4.11-12.47-8.21-24.93-3.68-11.11-7.39-22.22A6.29,6.29,0,0,0,189.36,63c-3.19-.4-6.11.16-7.74,3.38-1.46,2.89-2.17,6.06-3.2,9.11-2.43,7.2-4.76,14.44-7.14,21.66q-3,9-6,17.94c-.12.37,0,1-.61.91s-.56-.54-.69-.94c-1.88-5.58-3.79-11.15-5.66-16.73q-5-15-10-30a7.35,7.35,0,0,0-2.06-3.6,6.86,6.86,0,0,0-8-.73c-2.61,1.69-3.75,4.35-2.9,7s1.7,4.92,2.59,7.37c3.2,8.91,6.43,17.81,9.61,26.73s6.32,17.95,9.56,26.9a7.13,7.13,0,0,0,7.09,5.06,7.24,7.24,0,0,0,7.37-5.12c1-2.64,1.82-5.32,2.73-8q3.33-9.73,6.67-19.48,3-8.86,6.11-17.72c.11-.32,0-.86.52-.86s.63.46.76.87c.35,1.14.7,2.29,1.08,3.42q3.9,11.44,7.81,22.9c2.22,6.45,4.38,12.91,6.72,19.32C205.27,135.87,207.19,137,210.8,137ZM50.47,100.31a39.69,39.69,0,1,0,39.88-39.7A39.59,39.59,0,0,0,50.47,100.31Z"/><path class="cls-1" d="M210.8,137c-3.61,0-5.53-1.13-6.79-4.58-2.34-6.41-4.5-12.87-6.72-19.32q-3.93-11.44-7.81-22.9c-.38-1.13-.73-2.28-1.08-3.42-.13-.41-.29-.87-.76-.87s-.41.54-.52.86q-3.06,8.85-6.11,17.72-3.34,9.74-6.67,19.48c-.91,2.67-1.76,5.35-2.73,8a7.24,7.24,0,0,1-7.37,5.12,7.13,7.13,0,0,1-7.09-5.06c-3.24-9-6.36-17.94-9.56-26.9S141.18,87.3,138,78.39c-.89-2.45-1.77-4.9-2.59-7.37s.29-5.27,2.9-7a6.86,6.86,0,0,1,8,.73,7.35,7.35,0,0,1,2.06,3.6q5,15,10,30c1.87,5.58,3.78,11.15,5.66,16.73.13.4.21.89.69.94s.49-.54.61-.91q3-9,6-17.94c2.38-7.22,4.71-14.46,7.14-21.66,1-3,1.74-6.22,3.2-9.11,1.63-3.22,4.55-3.78,7.74-3.38a6.29,6.29,0,0,1,5.34,4.66q3.74,11.1,7.39,22.22,4.13,12.47,8.21,24.93c.14.42,0,1.09.66,1.1s.63-.69.79-1.17q3.9-11.7,7.82-23.39c2.6-7.75,5.24-15.49,7.8-23.25a6.73,6.73,0,0,1,5.15-4.93,6.29,6.29,0,0,1,6.39,2.42,5.63,5.63,0,0,1,.86,5.75c-2.28,6.54-4.62,13-7,19.57q-3.67,10.29-7.36,20.58c-2.45,6.85-4.87,13.73-7.42,20.55C216.67,135.77,214.67,137,210.8,137Z"/><path class="cls-1" d="M50.47,100.31a39.69,39.69,0,1,1,41,39.67A39.63,39.63,0,0,1,50.47,100.31Zm11.93.06a27.81,27.81,0,1,0,27.79-27.9A27.77,27.77,0,0,0,62.4,100.37Z"/><path class="cls-2" d="M62.4,100.37a27.81,27.81,0,1,1,27.76,27.78A27.74,27.74,0,0,1,62.4,100.37Z"/></svg>