<svg id="Layer_1" data-name="Layer 1" xmlns="http://www.w3.org/2000/svg" viewBox="0 0 203.08 200"><defs><style>.cls-1{fill:#fff;}</style></defs><path class="cls-1" d="M191.63,27.79a76.14,76.14,0,0,1-24,9.19,37.88,37.88,0,0,0-65.5,25.9,38.22,38.22,0,0,0,1,8.62,107.34,107.34,0,0,1-78-39.56A37.9,37.9,0,0,0,36.77,82.49a37.51,37.51,0,0,1-17.14-4.74,4,4,0,0,0,0,.48A37.88,37.88,0,0,0,50,115.35a37.48,37.48,0,0,1-17.09.65,37.89,37.89,0,0,0,35.36,26.29,76,76,0,0,1-47,16.21,76.72,76.72,0,0,1-9-.52,107.14,107.14,0,0,0,58,17C139.88,175,178,117.29,178,67.27c0-1.65-.05-3.28-.13-4.9a76.86,76.86,0,0,0,18.89-19.6,75.86,75.86,0,0,1-21.74,6A38,38,0,0,0,191.63,27.79Z"/></svg>