<?xml version="1.0" encoding="utf-8"?>
<!-- Generator: Adobe Illustrator 25.0.0, SVG Export Plug-In . SVG Version: 6.00 Build 0)  -->
<svg version="1.1" id="Layer_1" xmlns="http://www.w3.org/2000/svg" xmlns:xlink="http://www.w3.org/1999/xlink" x="0px" y="0px"
	 viewBox="0 0 51.2 32.6" style="enable-background:new 0 0 51.2 32.6;" xml:space="preserve">
<style type="text/css">
	.st0{fill:#FFFFFF;}
</style>
<g>
	<path class="st0" d="M28.8,16.3c0,7.7-6.2,13.8-13.8,13.8C7.4,30.2,1.2,24,1.2,16.3C1.2,8.6,7.4,2.4,15,2.4
		C22.6,2.4,28.8,8.7,28.8,16.3z"/>
	<path class="st0" d="M30.1,15.7c0-2.4,0.5-5.3,1.7-8c0.6-1.2,1.3-2.3,2.3-3.2C36,2.8,38.1,2.8,40,4.6c1.2,1.1,2,2.6,2.6,4.1
		c1,2.7,1.4,5.6,1.3,8.5c-0.1,2.4-0.5,4.8-1.4,7c-0.6,1.4-1.3,2.7-2.4,3.8c-0.7,0.7-1.5,1.2-2.5,1.4c-1.4,0.3-2.6-0.3-3.6-1.2
		c-1.1-1-1.9-2.3-2.5-3.7C30.6,22.1,30.1,19.3,30.1,15.7z"/>
	<path class="st0" d="M50,15.9c0,2.9-0.1,5.7-0.7,8.5c-0.2,0.8-0.4,1.6-0.7,2.4c-0.1,0.3-0.3,0.6-0.5,0.9c-0.3,0.3-0.7,0.3-1,0
		c-0.2-0.2-0.4-0.5-0.5-0.8c-0.5-1.1-0.7-2.3-0.9-3.5c-0.6-3.9-0.6-7.8-0.3-11.7c0.2-1.8,0.4-3.6,1-5.3c0.1-0.4,0.3-0.8,0.6-1.2
		c0.5-0.7,0.9-0.7,1.4,0c0.4,0.5,0.6,1.2,0.7,1.8c0.5,1.8,0.7,3.6,0.8,5.4C50,13.5,50,14.7,50,15.9z"/>
</g>
</svg>
