<svg id="Layer_1" data-name="Layer 1" xmlns="http://www.w3.org/2000/svg" viewBox="0 0 200 200"><defs><style>.cls-1{fill:#f7ab18;}.cls-2{fill:#e57426;}</style></defs><path class="cls-1" d="M170.81,100.26c0,19.52.1,39.05,0,58.58a19.34,19.34,0,0,1-24.57,18.82c-8.33-2.33-14.18-10.4-14.25-20-.08-11.35,0-22.71,0-34.07q0-40.2,0-80.4A22.45,22.45,0,0,1,135.75,30a18.86,18.86,0,0,1,21-7.61,19.11,19.11,0,0,1,14,17.82c.2,11.85.08,23.71.09,35.57v24.51Z"/><path class="cls-2" d="M119.74,129.68c0,9.67.09,19.34,0,29-.15,13.12-12.07,22.36-24.5,19-7-1.85-10.78-6.83-12.9-13.35a29.3,29.3,0,0,1-1.47-9.11c0-18.24-.14-36.48,0-54.72a19.68,19.68,0,0,1,19.7-19.86c10.87.13,19.09,8.82,19.17,20.28v28.71Z"/><path class="cls-2" d="M48.48,178.35a19.44,19.44,0,1,1,19.65-19.42A19.44,19.44,0,0,1,48.48,178.35Z"/></svg>