<?xml version="1.0" encoding="utf-8"?>
<!-- Generator: Adobe Illustrator 24.1.2, SVG Export Plug-In . SVG Version: 6.00 Build 0)  -->
<svg version="1.1" id="Layer_1" xmlns="http://www.w3.org/2000/svg" xmlns:xlink="http://www.w3.org/1999/xlink" x="0px" y="0px"
	 viewBox="0 0 200 200" style="enable-background:new 0 0 200 200;" xml:space="preserve">
<style type="text/css">
	.st0{fill:#ADADAD;}
	.st1{fill:#FFFFFF;}
</style>
<g>
	<g>
		<path d="M117.3,60.5c0.5,1.5,1.9,2.4,3.3,2.4c0.4,0,0.8-0.1,1.1-0.2c1.8-0.6,2.8-2.6,2.2-4.5c-1.4-4-3.2-7.9-5.5-11.6
			c-1-1.6-3.2-2.2-4.8-1.1c-1.6,1-2.2,3.2-1.1,4.8C114.5,53.5,116.1,56.9,117.3,60.5z"/>
		<path d="M79.5,124.6c-3.5,0.6-7.1,0.9-10.6,0.7c-1.9-0.1-3.6,1.4-3.6,3.4c-0.1,1.9,1.4,3.6,3.4,3.6c0.7,0,1.5,0,2.2,0
			c3.3,0,6.6-0.3,9.9-0.9c1.9-0.3,3.2-2.2,2.8-4.1C83.2,125.5,81.4,124.2,79.5,124.6z"/>
		<path d="M131.2,125.3c-3.5,0.1-7-0.1-10.5-0.7c-1.9-0.3-3.7,1-4.1,2.9c-0.3,1.9,0.9,3.7,2.9,4.1c3.2,0.5,6.4,0.8,9.6,0.8
			c0.8,0,1.5,0,2.3,0c1.9-0.1,3.4-1.7,3.4-3.7C134.8,126.7,133.2,125.2,131.2,125.3z"/>
		<path d="M187.2,76.3c0-32-26-58.1-58.1-58.1c-10.2,0-20.3,2.7-29.2,7.9c-8.9-5.2-18.9-7.9-29.2-7.9c-32,0-58.1,26-58.1,58.1
			c0,20.9,11.2,40,29.2,50.4c0,0.7,0,1.5,0,2.2c0,32,26,58.1,58.1,58.1c32,0,58.1-26,58.1-58.1c0-0.7,0-1.5,0-2.2
			C176.1,116.3,187.2,97.1,187.2,76.3z M145.4,110.6c-0.7,1.3-0.8,2.8-0.4,4.2c0.5,1.8,1,3.5,1.3,5.4c-1.7,0.7-3.5,1.2-5.2,1.7
			c-1.4,0.4-2.6,1.3-3.3,2.5c-0.7,1.3-0.9,2.7-0.6,4.2c0.7,2.8,3.6,4.7,6.7,3.9c1.1-0.3,2.1-0.6,3.2-0.9c-1.4,24.7-22,44.5-47,44.5
			c-25,0-45.6-19.6-47-44.5c1.1,0.4,2.2,0.7,3.2,0.9c2.9,0.7,5.9-1.1,6.7-3.9c0.8-2.9-1-5.9-3.9-6.7c-1.8-0.5-3.5-1-5.3-1.7
			c0.3-1.8,0.8-3.6,1.3-5.4c0.4-1.4,0.3-2.9-0.4-4.2c-0.7-1.3-1.8-2.2-3.2-2.7c-2.9-0.9-6,0.7-6.9,3.6c-0.3,1-0.6,2.1-0.9,3.2
			c-12.5-8.8-19.9-23-19.9-38.5c0-26,21.1-47.1,47.1-47.1c6.6,0,13.2,1.4,19.3,4.1c-0.8,0.7-1.6,1.5-2.4,2.3
			c-2.1,2.2-2.1,5.6,0.1,7.7c2.1,2.1,5.7,2,7.7-0.1c1.4-1.4,2.9-2.7,4.4-4c1.5,1.2,2.9,2.4,4.2,3.7c2.1,2.1,5.7,2.1,7.7,0
			c2.1-2.1,2.1-5.6,0-7.7c-0.7-0.7-1.3-1.3-2-1.9c6-2.7,12.7-4.1,19.3-4.1c26,0,47.1,21.1,47.1,47.1c0,15.5-7.4,29.7-19.9,38.5
			c-0.3-1.1-0.6-2.2-0.9-3.2c-0.9-2.9-4-4.5-6.9-3.6C147.2,108.4,146,109.3,145.4,110.6z"/>
		<path d="M78.2,62.8c0.4,0.1,0.8,0.2,1.1,0.2c1.5,0,2.8-0.9,3.3-2.4c1.2-3.5,2.8-6.9,4.7-10c1-1.7,0.5-3.8-1.2-4.8
			c-1.7-1-3.8-0.5-4.8,1.2c-2.2,3.6-4,7.5-5.4,11.5C75.4,60.2,76.3,62.2,78.2,62.8z"/>
		<path d="M111.4,119.9c-0.5-0.2-1-0.4-1.5-0.7c8.5-7.7,14.5-17.8,17.3-28.9c0.5,0.4,1.1,0.8,1.6,1.2c2.3,1.8,5.9,1.3,7.7-1
			c0.9-1.2,1.3-2.6,1.1-4c-0.2-1.5-0.9-2.7-2.1-3.6c-2.1-1.6-4.3-3.1-6.6-4.4c0-0.7,0-1.5,0-2.2c0-1.9-0.1-3.8-0.3-5.7
			c-0.1-1.5-0.8-2.8-2-3.7c-1.1-0.9-2.5-1.4-4-1.2c-3,0.3-5.2,3-4.9,6c0.1,0.7,0.1,1.3,0.1,2c-11.5-3.7-24.2-3.7-35.8,0
			c0-0.7,0.1-1.3,0.2-2c0.3-3-1.9-5.7-4.9-6c-3-0.3-5.7,1.9-6,4.9c-0.2,1.9-0.3,3.8-0.3,5.7c0,0.7,0,1.5,0,2.2
			c-2.3,1.3-4.5,2.8-6.6,4.4c-1.2,0.9-1.9,2.2-2.1,3.6c-0.2,1.5,0.2,2.9,1.1,4c1.8,2.3,5.3,2.8,7.7,1c0.5-0.4,1.1-0.8,1.6-1.2
			c2.8,11.1,8.8,21.2,17.3,28.9c-0.4,0.2-0.8,0.4-1.3,0.5c-2.8,1.2-4.1,4.4-3,7.2c1.1,2.7,4.4,4.1,7.2,3c2.4-1,4.7-2.1,6.9-3.4
			c2.3,1.4,4.8,2.6,7.2,3.6c0.7,0.3,1.4,0.4,2.1,0.4c2.2,0,4.2-1.3,5.1-3.4c0.6-1.4,0.5-2.8,0-4.2
			C113.8,121.5,112.7,120.4,111.4,119.9z M117.2,85c-2.1,11.2-8.1,21.2-17.2,28.3c-9-7.1-15.1-17.1-17.1-28.3
			C93.7,80.7,106.2,80.7,117.2,85z"/>
		<path d="M142.5,92.3c-1.3-1.5-3.5-1.6-5-0.4c-1.5,1.3-1.6,3.5-0.4,5c2.2,2.5,4.1,5.3,5.7,8.2c0.6,1.2,1.8,1.8,3.1,1.8
			c0.6,0,1.2-0.1,1.7-0.4c1.7-0.9,2.3-3.1,1.4-4.8C147.2,98.3,145,95.1,142.5,92.3z"/>
		<path d="M57.5,92.3c-2.5,2.9-4.7,6-6.5,9.4c-0.9,1.7-0.3,3.8,1.4,4.8c0.5,0.3,1.1,0.4,1.7,0.4c1.2,0,2.4-0.7,3.1-1.8
			c1.6-2.9,3.5-5.7,5.7-8.2c1.3-1.5,1.1-3.7-0.4-5C60.9,90.6,58.7,90.8,57.5,92.3z"/>
	</g>
	<path class="st0" d="M82.8,85c2.1,11.2,8.1,21.2,17.1,28.3c9-7.1,15.1-17.1,17.2-28.3C106.2,80.7,93.7,80.7,82.8,85z"/>
</g>
</svg>
