<svg id="Layer_1" data-name="Layer 1" xmlns="http://www.w3.org/2000/svg" viewBox="0 0 200 200"><defs><style>.cls-1{fill:#adadad;}.cls-2{fill:none;}</style></defs><rect class="cls-1" x="89.51" y="154.65" width="20.94" height="9.52"/><path class="cls-2" d="M26.91,45.68a5.33,5.33,0,1,0,3.73,1.56A5.25,5.25,0,0,0,26.91,45.68Z"/><rect class="cls-2" x="89.5" y="154.65" width="20.94" height="9.52"/><path class="cls-2" d="M79.69,125.12A23.69,23.69,0,0,1,92.63,144h14.82c.8-12.33,7.82-17.48,12.56-19.57l-20-33.26Zm25.64-9.9a5.33,5.33,0,0,1-5.29,5.29,5.29,5.29,0,0,1,0-10.58,5.33,5.33,0,0,1,5.29,5.29Z"/><rect class="cls-2" x="168.95" y="122.24" width="9.52" height="9.52"/><polygon class="cls-2" points="95.28 55.7 104.8 55.65 104.8 50.91 104.8 46.18 95.28 46.18 95.28 55.7"/><rect class="cls-2" x="21.15" y="122.27" width="9.52" height="9.52"/><path d="M104.38,78.72l-.06-.1a5.19,5.19,0,0,0-8.55,0l0,0L67.84,125.16a5.07,5.07,0,0,0,3.34,7.59c.46.09,10.92,2.33,11.4,12.87a8.6,8.6,0,0,0-3.63,7v13.59a8.55,8.55,0,0,0,8.58,8.57h25a8.63,8.63,0,0,0,8.6-8.6V152.59a8.54,8.54,0,0,0-2.5-6.06,8.82,8.82,0,0,0-1.11-.93c.14-5.15,1.77-8.83,4.85-10.93a11,11,0,0,1,5.55-1.82,5.06,5.06,0,0,0,4.33-7.68Zm6.06,85.46H89.5v-9.53h20.94Zm-3-20.16H92.63a23.69,23.69,0,0,0-12.94-18.9l20.37-33.93,20,33.26C115.27,126.54,108.25,131.69,107.45,144Z"/><path d="M96.31,111.49a5.29,5.29,0,1,0,7.46,0,5.22,5.22,0,0,0-3.73-1.56A5.33,5.33,0,0,0,96.31,111.49Z"/><path d="M180.5,111.69h-1.84a76.84,76.84,0,0,0-21.07-39.34l-.11-.11a77.06,77.06,0,0,0-23-15.92H158.2a16,16,0,0,0,15,10.57,15.87,15.87,0,0,0,11.28-4.65A15.67,15.67,0,0,0,189.16,51a15.92,15.92,0,0,0-4.65-11.27,15.71,15.71,0,0,0-11.28-4.65,16,16,0,0,0-15,10.57H115.49V44.18a8.55,8.55,0,0,0-8.57-8.58l-13.67,0a8.55,8.55,0,0,0-8.57,8.58V45.6H42A15.94,15.94,0,0,0,26.94,35a15.93,15.93,0,1,0,15,21.24H65.66a77.86,77.86,0,0,0-44.18,55.37H19.2a8.63,8.63,0,0,0-8.6,8.6v13.59a8.54,8.54,0,0,0,8.57,8.57H32.76a8.63,8.63,0,0,0,8.6-8.6V120.21a8.57,8.57,0,0,0-8.58-8.58h-.39A67.24,67.24,0,0,1,85.46,61.19a8.14,8.14,0,0,0,1.78,2.61,8.52,8.52,0,0,0,6.07,2.51h13.58a8.6,8.6,0,0,0,7.85-5.12,67.14,67.14,0,0,1,53.06,50.44H167a8.63,8.63,0,0,0-8.6,8.6v13.59a8.54,8.54,0,0,0,8.57,8.57h13.59a8.54,8.54,0,0,0,8.54-8.6V120.26a8.54,8.54,0,0,0-8.57-8.57Zm-7.35-66a5.33,5.33,0,1,1-3.73,1.56A5.35,5.35,0,0,1,173.15,45.65ZM26.91,56.26A5.28,5.28,0,1,1,32.2,51,5.28,5.28,0,0,1,26.91,56.26Zm3.76,75.53H21.15v-9.52h9.52ZM104.8,50.91v4.74l-9.52.05V46.18h9.52Zm73.67,80.85H169v-9.52h9.52Z"/><path class="cls-1" d="M173.15,56.23a5.29,5.29,0,0,0,0-10.58,5.35,5.35,0,0,0-3.73,1.56,5.29,5.29,0,0,0,3.73,9Z"/><path class="cls-1" d="M26.91,56.23a5.29,5.29,0,0,0,0-10.58,5.35,5.35,0,0,0-3.73,1.56,5.29,5.29,0,0,0,3.73,9Z"/></svg>