<?xml version="1.0" encoding="utf-8"?>
<!-- Generator: Adobe Illustrator 24.1.2, SVG Export Plug-In . SVG Version: 6.00 Build 0)  -->
<svg version="1.1" id="Layer_1" xmlns="http://www.w3.org/2000/svg" xmlns:xlink="http://www.w3.org/1999/xlink" x="0px" y="0px"
	 viewBox="0 0 433.6 200" style="enable-background:new 0 0 433.6 200;" xml:space="preserve">
<style type="text/css">
	.st0{fill:#494949;}
	.st1{enable-background:new    ;}
</style>
<path class="st0" d="M130.8,24.3c33.5,0.1,60.8,27.6,60.5,60.8c-0.1,33.4-27.3,60.3-60.7,60.2c-0.1,0-0.2,0-0.3,0
	c-33.9-0.2-60.2-27.1-60-61.3C70.5,51,97.7,24.2,130.8,24.3z M130.6,119c5.6,0,11.2,0.2,16.8-0.1c1.7-0.2,3.2-1,4.2-2.4
	c5.8-9.6,11.4-19.3,16.8-29.1c0.7-1.6,0.7-3.5,0-5.2c-5.3-9.7-10.9-19.3-16.6-28.7c-1-1.5-2.7-2.4-4.5-2.6
	c-11.1-0.2-22.2-0.1-33.2-0.2c-2-0.2-3.8,0.8-4.7,2.6c-5.4,9.6-10.9,19.2-16.6,28.7c-1.1,1.9-1.4,3.2-0.2,5.3
	c5.7,9.6,11.3,19.3,16.8,29.1c0.8,1.8,2.7,2.8,4.7,2.5C119.7,118.9,125.1,119,130.6,119z"/>
<path class="st0" d="M195.4,161.1c-8,0-15.1,0.1-22.2-0.1c-1.9-0.3-3.8,0.9-4.5,2.7c-3.3,6.3-6.8,12.5-10.6,19.5l-17.9-30.9
	c14.7-2.2,28.3-9.1,38.8-19.6C184.5,142.3,189.8,151.4,195.4,161.1z"/>
<path class="st0" d="M82.3,132.8c11.1,10.6,23.7,17.1,38.9,19.4l-17.9,31c-3.7-6.8-7.2-13-10.4-19.3c-0.7-2-2.8-3.2-4.9-2.9
	c-7.1,0.2-14.3,0.1-22,0.1L82.3,132.8z"/>
<path class="st0" d="M157.8,80.8c-8.4,0-16,0-23.5-0.1c-0.8-0.1-1.5-0.6-1.9-1.3c-3.8-6.5-7.5-13-11.6-20.2c8.2,0,15.7,0,23.2,0
	c0.8,0.1,1.5,0.5,2,1.1C149.8,66.9,153.6,73.4,157.8,80.8z"/>
<path class="st0" d="M113.5,63.6c4,7,7.7,13.3,11.2,19.6c0.5,1.2,0.5,2.5-0.1,3.7c-3.5,6.2-7.1,12.3-11.1,19
	c-4.1-7-7.9-13.6-11.6-20.2c-0.2-0.8-0.1-1.6,0.3-2.3C105.7,77,109.4,70.7,113.5,63.6z"/>
<path class="st0" d="M120.7,110.5c4.1-7,7.8-13.4,11.6-19.7c0.5-0.8,1.4-1.2,2.3-1.3c7.4-0.1,14.7-0.1,22.8-0.1
	c-4,7-7.7,13.5-11.5,19.9c-0.4,0.7-1.9,1.1-2.9,1.1C136,110.5,128.9,110.5,120.7,110.5z"/>
<g class="st1">
	<path class="st0" d="M226.7,78.6c1.2,0,2.2-0.2,3.1-0.6c0.9-0.4,1.7-0.9,2.3-1.6s1.1-1.5,1.4-2.5c0.3-1,0.5-2.1,0.5-3.3V51.3h6
		v19.2c0,1.9-0.3,3.7-0.9,5.3c-0.6,1.6-1.5,3-2.7,4.2c-1.2,1.2-2.6,2.1-4.2,2.8c-1.6,0.7-3.5,1-5.5,1c-2.1,0-3.9-0.3-5.5-1
		c-1.6-0.7-3-1.6-4.2-2.8c-1.1-1.2-2-2.6-2.6-4.2s-0.9-3.4-0.9-5.3V51.3h6v19.2c0,1.2,0.2,2.3,0.5,3.3s0.8,1.8,1.4,2.5
		c0.6,0.7,1.4,1.2,2.3,1.6C224.5,78.4,225.6,78.6,226.7,78.6z"/>
	<path class="st0" d="M253.8,66.9l-10.2-15.6h5.9c0.4,0,0.7,0.1,0.9,0.2c0.2,0.1,0.4,0.3,0.5,0.5l7.3,11.8c0.1-0.2,0.2-0.4,0.2-0.6
		c0.1-0.2,0.2-0.4,0.3-0.6l6.7-10.5c0.3-0.5,0.7-0.8,1.3-0.8h5.7l-10.3,15.3l10.6,16.8h-6c-0.4,0-0.7-0.1-1-0.3s-0.4-0.4-0.6-0.7
		l-7.4-12.3c-0.1,0.2-0.1,0.3-0.2,0.5c-0.1,0.2-0.1,0.3-0.2,0.4l-7.1,11.4c-0.2,0.3-0.4,0.5-0.6,0.7c-0.2,0.2-0.5,0.3-0.9,0.3h-5.6
		L253.8,66.9z"/>
</g>
<g class="st1">
	<path class="st0" d="M276.6,68.5h11v3.4h-11V68.5z"/>
	<path class="st0" d="M298.4,71.5v11.9h-4.3V51.6h9.4c2,0,3.8,0.2,5.2,0.7c1.5,0.5,2.7,1.1,3.7,2c1,0.9,1.7,1.9,2.2,3.1
		c0.5,1.2,0.7,2.6,0.7,4.1c0,1.5-0.3,2.8-0.8,4.1c-0.5,1.2-1.3,2.3-2.3,3.2c-1,0.9-2.2,1.6-3.7,2.1c-1.5,0.5-3.2,0.7-5.1,0.7H298.4z
		 M298.4,68.1h5.1c1.2,0,2.3-0.2,3.2-0.5s1.7-0.8,2.4-1.4c0.6-0.6,1.1-1.3,1.4-2.1s0.5-1.7,0.5-2.7c0-2-0.6-3.6-1.9-4.7
		c-1.2-1.1-3.1-1.7-5.7-1.7h-5.1V68.1z"/>
	<path class="st0" d="M336.9,73.1c0.2,0.4,0.3,0.8,0.5,1.2c0.1-0.4,0.3-0.8,0.5-1.2s0.3-0.8,0.6-1.1l10.8-19.5
		c0.2-0.3,0.4-0.5,0.6-0.6c0.2-0.1,0.5-0.1,0.9-0.1h3.2v31.8h-3.8V60.1c0-0.3,0-0.6,0-1c0-0.4,0-0.7,0.1-1.1l-10.9,19.9
		c-0.4,0.7-0.9,1-1.6,1h-0.6c-0.7,0-1.2-0.3-1.6-1l-11.1-19.9c0,0.4,0.1,0.8,0.1,1.1c0,0.4,0,0.7,0,1v23.4h-3.8V51.6h3.2
		c0.4,0,0.7,0,0.9,0.1c0.2,0.1,0.4,0.3,0.6,0.6l11,19.6C336.6,72.3,336.8,72.7,336.9,73.1z"/>
</g>
<g class="st1">
	<path class="st0" d="M229.6,114.4c-0.9,1.2-2,2.1-3.2,2.7c-1.2,0.5-2.5,0.8-3.9,0.8c-1.5,0-2.8-0.2-4-0.7c-1.2-0.5-2.2-1.2-3.1-2.1
		s-1.5-1.9-2-3.2s-0.7-2.6-0.7-4c0-1.5,0.2-2.8,0.7-4s1.2-2.3,2-3.2s1.9-1.6,3.1-2.1c1.2-0.5,2.5-0.8,4-0.8c1.3,0,2.5,0.2,3.6,0.7
		c1.1,0.5,2.1,1.2,2.9,2.3l-1.5,1.2c-0.6-0.9-1.3-1.6-2.3-2c-0.9-0.4-1.9-0.6-2.8-0.6c-1.2,0-2.4,0.2-3.3,0.6c-1,0.4-1.8,1-2.5,1.8
		c-0.7,0.8-1.2,1.6-1.6,2.7c-0.4,1-0.6,2.1-0.6,3.3s0.2,2.3,0.6,3.3c0.4,1,0.9,1.9,1.6,2.7s1.5,1.3,2.5,1.8c1,0.4,2.1,0.6,3.3,0.6
		c0.5,0,1-0.1,1.5-0.2c0.5-0.1,1-0.3,1.5-0.5c0.5-0.2,1-0.5,1.4-0.9c0.4-0.4,0.8-0.8,1.2-1.3L229.6,114.4z"/>
	<path class="st0" d="M243.4,115c-0.6,1-1.4,1.6-2.3,2c-0.9,0.4-1.9,0.6-3.1,0.6c-1,0-1.8-0.2-2.6-0.5c-0.8-0.3-1.4-0.8-2-1.4
		c-0.6-0.6-1-1.3-1.3-2.1s-0.4-1.7-0.4-2.7c0-0.9,0.2-1.8,0.5-2.6s0.7-1.5,1.3-2.1s1.2-1,2-1.4s1.6-0.5,2.5-0.5c1,0,1.8,0.2,2.5,0.5
		c0.7,0.3,1.3,0.8,1.8,1.3s0.9,1.2,1.1,1.9c0.2,0.7,0.4,1.4,0.4,2.1v1.1h-10.4c0,0.3,0.1,0.8,0.2,1.3c0.1,0.5,0.4,1,0.7,1.5
		c0.4,0.5,0.8,0.9,1.4,1.3c0.6,0.4,1.4,0.5,2.3,0.5c0.8,0,1.6-0.2,2.4-0.6c0.8-0.4,1.4-0.9,1.8-1.6L243.4,115z M242.2,110.1
		c0-0.6-0.1-1.1-0.3-1.6c-0.2-0.5-0.5-0.9-0.9-1.3c-0.4-0.4-0.8-0.7-1.4-0.9c-0.5-0.2-1.1-0.3-1.7-0.3c-0.9,0-1.6,0.2-2.2,0.5
		s-1,0.8-1.4,1.2c-0.3,0.5-0.6,0.9-0.7,1.4s-0.2,0.7-0.2,0.9H242.2z"/>
	<path class="st0" d="M247.4,108.4c0-0.2,0-0.5,0-0.8c0-0.3,0-0.7,0-1c0-0.3,0-0.7,0-1s0-0.5,0-0.7h1.6c0,0.5,0,0.9,0,1.3
		c0,0.4,0,0.7,0.1,0.8c0.4-0.7,0.9-1.3,1.6-1.8c0.6-0.5,1.4-0.7,2.4-0.7c0.2,0,0.3,0,0.5,0c0.2,0,0.3,0.1,0.5,0.1l-0.2,1.6
		c-0.2-0.1-0.4-0.1-0.6-0.1c-0.7,0-1.3,0.1-1.8,0.3c-0.5,0.2-0.9,0.5-1.3,0.9c-0.3,0.4-0.6,0.9-0.7,1.4c-0.2,0.5-0.2,1.1-0.2,1.7
		v6.8h-1.6V108.4z"/>
</g>
<g class="st1">
	<path class="st0" d="M262.4,106.4h-3.6v8.1c0,0.6,0.2,1,0.5,1.3c0.3,0.3,0.7,0.5,1.3,0.5c0.3,0,0.6,0,0.9-0.1
		c0.3-0.1,0.6-0.2,0.9-0.3l0.1,1.5c-0.3,0.1-0.7,0.2-1,0.3c-0.4,0.1-0.7,0.1-1,0.1c-0.6,0-1.1-0.1-1.5-0.3c-0.4-0.2-0.7-0.4-1-0.7
		c-0.3-0.3-0.4-0.6-0.6-1c-0.1-0.4-0.2-0.8-0.2-1.2v-8.1h-2.7v-1.5h2.7v-3.6h1.6v3.6h3.6V106.4z"/>
</g>
<g class="st1">
	<path class="st0" d="M265.2,100c0-0.3,0.1-0.6,0.3-0.9s0.5-0.3,0.9-0.3c0.3,0,0.6,0.1,0.9,0.3s0.3,0.5,0.3,0.9s-0.1,0.6-0.3,0.9
		c-0.2,0.2-0.5,0.3-0.9,0.3c-0.3,0-0.6-0.1-0.9-0.3C265.3,100.6,265.2,100.3,265.2,100z M265.6,104.9h1.6v12.4h-1.6V104.9z"/>
	<path class="st0" d="M272.7,106.4h-2.6v-1.5h2.6v-4.1c0-0.8,0.1-1.5,0.4-2c0.2-0.5,0.5-1,0.9-1.3c0.4-0.3,0.8-0.6,1.2-0.7
		c0.4-0.1,0.9-0.2,1.3-0.2c0.8,0,1.4,0.1,1.9,0.3l-0.3,1.4c-0.4-0.2-0.8-0.3-1.5-0.3c-1.5,0-2.2,1.1-2.2,3.3v3.5h2.9v1.5h-2.9v11
		h-1.6V106.4z"/>
	<path class="st0" d="M279.6,100c0-0.3,0.1-0.6,0.3-0.9s0.5-0.3,0.9-0.3c0.3,0,0.6,0.1,0.9,0.3s0.3,0.5,0.3,0.9s-0.1,0.6-0.3,0.9
		c-0.2,0.2-0.5,0.3-0.9,0.3c-0.3,0-0.6-0.1-0.9-0.3C279.7,100.6,279.6,100.3,279.6,100z M280,104.9h1.6v12.4H280V104.9z"/>
	<path class="st0" d="M296.6,115.5c-0.6,0.7-1.3,1.3-2.1,1.6c-0.8,0.4-1.6,0.5-2.5,0.5c-1,0-1.8-0.2-2.6-0.5
		c-0.8-0.3-1.5-0.8-2.1-1.4s-1-1.3-1.3-2.1s-0.5-1.7-0.5-2.6c0-1,0.2-1.8,0.5-2.6c0.3-0.8,0.8-1.5,1.3-2.1c0.6-0.6,1.3-1,2.1-1.4
		c0.8-0.3,1.7-0.5,2.6-0.5c0.9,0,1.8,0.2,2.5,0.6c0.8,0.4,1.5,0.9,2.1,1.6l-1.3,1c-0.5-0.5-1-0.9-1.5-1.2s-1.2-0.4-1.8-0.4
		c-0.8,0-1.4,0.1-2,0.4s-1.1,0.6-1.6,1.1c-0.4,0.5-0.8,1-1,1.6c-0.2,0.6-0.3,1.3-0.3,2s0.1,1.4,0.3,2c0.2,0.6,0.6,1.2,1,1.6
		c0.4,0.5,1,0.8,1.6,1.1c0.6,0.3,1.3,0.4,2,0.4c0.7,0,1.3-0.2,1.9-0.5c0.6-0.3,1.1-0.7,1.5-1.3L296.6,115.5z"/>
	<path class="st0" d="M308.8,112.1c0,0.6,0,1.2,0,1.6c0,0.5,0,0.9,0,1.3c0,0.4,0,0.8,0.1,1.2c0,0.4,0.1,0.7,0.1,1.1h-1.5
		c-0.1-0.6-0.2-1.3-0.2-2h-0.1c-0.5,0.8-1,1.4-1.7,1.8c-0.7,0.4-1.6,0.6-2.6,0.6c-0.5,0-1.1-0.1-1.6-0.2c-0.5-0.1-1-0.3-1.4-0.6
		c-0.4-0.3-0.7-0.7-1-1.1c-0.3-0.5-0.4-1-0.4-1.7c0-1,0.2-1.7,0.7-2.3c0.5-0.6,1.1-1,1.8-1.3c0.7-0.3,1.5-0.5,2.3-0.5
		c0.8-0.1,1.5-0.1,2.1-0.1h1.9v-0.8c0-1.1-0.3-1.8-1-2.3c-0.7-0.5-1.5-0.7-2.5-0.7c-1.4,0-2.7,0.5-3.8,1.4l-0.9-1.1
		c0.6-0.6,1.3-1,2.2-1.3c0.9-0.3,1.7-0.4,2.5-0.4c1.5,0,2.7,0.4,3.6,1.1c0.9,0.7,1.3,1.9,1.3,3.4V112.1z M305.6,111.1
		c-0.7,0-1.3,0-2,0.1s-1.2,0.2-1.7,0.5c-0.5,0.2-0.9,0.5-1.2,0.9c-0.3,0.4-0.5,0.8-0.5,1.3c0,0.4,0.1,0.7,0.3,1
		c0.2,0.3,0.4,0.5,0.7,0.7c0.3,0.2,0.6,0.3,0.9,0.4s0.7,0.1,1,0.1c0.9,0,1.6-0.1,2.1-0.4c0.6-0.3,1-0.6,1.3-1
		c0.3-0.4,0.6-0.9,0.7-1.4c0.1-0.5,0.2-1,0.2-1.5v-0.8H305.6z"/>
</g>
<g class="st1">
	<path class="st0" d="M319.2,106.4h-3.6v8.1c0,0.6,0.2,1,0.5,1.3c0.3,0.3,0.7,0.5,1.3,0.5c0.3,0,0.6,0,0.9-0.1
		c0.3-0.1,0.6-0.2,0.9-0.3l0.1,1.5c-0.3,0.1-0.7,0.2-1,0.3c-0.4,0.1-0.7,0.1-1,0.1c-0.6,0-1.1-0.1-1.5-0.3c-0.4-0.2-0.7-0.4-1-0.7
		c-0.3-0.3-0.4-0.6-0.6-1c-0.1-0.4-0.2-0.8-0.2-1.2v-8.1h-2.7v-1.5h2.7v-3.6h1.6v3.6h3.6V106.4z"/>
</g>
<g class="st1">
	<path class="st0" d="M321.9,100c0-0.3,0.1-0.6,0.3-0.9s0.5-0.3,0.9-0.3c0.3,0,0.6,0.1,0.9,0.3s0.3,0.5,0.3,0.9s-0.1,0.6-0.3,0.9
		c-0.2,0.2-0.5,0.3-0.9,0.3c-0.3,0-0.6-0.1-0.9-0.3C322.1,100.6,321.9,100.3,321.9,100z M322.3,104.9h1.6v12.4h-1.6V104.9z"/>
	<path class="st0" d="M327.8,111.1c0-1,0.2-1.8,0.5-2.6c0.3-0.8,0.8-1.5,1.3-2.1c0.6-0.6,1.3-1,2.1-1.4c0.8-0.3,1.7-0.5,2.6-0.5
		c1,0,1.8,0.2,2.6,0.5c0.8,0.3,1.5,0.8,2.1,1.4c0.6,0.6,1,1.3,1.4,2.1c0.3,0.8,0.5,1.7,0.5,2.6c0,1-0.2,1.8-0.5,2.6
		c-0.3,0.8-0.8,1.5-1.4,2.1c-0.6,0.6-1.3,1-2.1,1.4c-0.8,0.3-1.7,0.5-2.6,0.5c-1,0-1.8-0.2-2.6-0.5c-0.8-0.3-1.5-0.8-2.1-1.4
		s-1-1.3-1.3-2.1S327.8,112.1,327.8,111.1z M329.4,111.1c0,0.7,0.1,1.4,0.3,2c0.2,0.6,0.6,1.2,1,1.6c0.4,0.5,1,0.8,1.6,1.1
		c0.6,0.3,1.3,0.4,2,0.4s1.4-0.1,2-0.4c0.6-0.3,1.1-0.6,1.6-1.1c0.4-0.5,0.8-1,1-1.6c0.2-0.6,0.3-1.3,0.3-2s-0.1-1.4-0.3-2
		c-0.2-0.6-0.6-1.2-1-1.6c-0.4-0.5-1-0.8-1.6-1.1s-1.3-0.4-2-0.4s-1.4,0.1-2,0.4s-1.1,0.6-1.6,1.1c-0.4,0.5-0.8,1-1,1.6
		C329.6,109.8,329.4,110.4,329.4,111.1z"/>
	<path class="st0" d="M344.5,108.4c0-0.2,0-0.5,0-0.8c0-0.3,0-0.7,0-1c0-0.3,0-0.7,0-1s0-0.5,0-0.7h1.6c0,0.5,0,0.9,0,1.3
		c0,0.4,0,0.7,0.1,0.8h0.1c0.3-0.7,0.9-1.3,1.6-1.8s1.6-0.7,2.6-0.7c1,0,1.8,0.2,2.4,0.5c0.6,0.3,1.1,0.7,1.4,1.2
		c0.3,0.5,0.6,1.1,0.7,1.7c0.1,0.6,0.2,1.3,0.2,2v7.4h-1.6V110c0-0.5,0-1-0.1-1.5c-0.1-0.5-0.2-0.9-0.5-1.3
		c-0.2-0.4-0.5-0.7-0.9-0.9c-0.4-0.2-0.9-0.3-1.6-0.3c-0.6,0-1.2,0.1-1.7,0.3c-0.5,0.2-1,0.5-1.4,0.9c-0.4,0.4-0.7,1-0.9,1.6
		c-0.2,0.6-0.3,1.4-0.3,2.2v6.2h-1.6V108.4z"/>
</g>
</svg>
