<svg id="Layer_1" data-name="Layer 1" xmlns="http://www.w3.org/2000/svg" viewBox="0 0 200 200"><defs><style>.cls-1{fill:#adadad;}</style></defs><path class="cls-1" d="M130.68,86c-.61.27-1.21-3.9-1.86-3.62L134,96.49c1.71-.47-1-1,.58-1.74A37.79,37.79,0,1,0,84.74,75.33a39.82,39.82,0,0,0,2.37,4.59l7,9.64L104,87.18"/><path d="M149.78,114.73a44.44,44.44,0,0,1-5.64-13.37,15,15,0,0,0-.92-2.4l-.62-2.64c0-1,.07-6,.16-6.68.65-4.66.63-4.79,0-11.66-1.06-10.65-41.63-11.48-54-11.48-18.91,0-43,1.31-50.52,7.64a8.06,8.06,0,0,0-.8.74,9.47,9.47,0,0,0-2.88,4.74,5.62,5.62,0,0,1-.6,1.33,10.82,10.82,0,0,0-.83,1.78c-1.23,3.66-1.31,4.1-1.33,5.85,0,.64,0,1.53-.15,3.2l0,13,.35,2.16c.75,4.28,1.52,8.71,3.86,13A60.1,60.1,0,0,0,47.33,135.6,12.11,12.11,0,0,1,51,145.65c-.26,4-.33,7.22-.23,10.28a15.47,15.47,0,0,0,6.34,12.53c6.58,4.79,13.21,9.52,20,14.34l3.44,2.46c.88.63,1.74,1.29,2.63,2,3.79,2.9,7.7,5.91,13.46,6.74L115,194l.76-.36c4.26-2,6.42-5.68,6.24-10.57-.11-3.08-.09-6.23-.07-9.6,0-2.56,0-5.13,0-7.69v-.27l.26-.06c4.07-.81,7.39-1.62,10.46-2.55a10.85,10.85,0,0,0,8-10.73c.08-5.87.11-11.75.12-17.71,0-.47,0-1.11,0-1.66l1.82-.08c4.51-.16,7.86-2,9.45-5.06C153.81,124.17,153,119.58,149.78,114.73Zm-20.94,28.9c0,2.58-.07,5.16,0,7.73a.34.34,0,0,1-.29.32l-2.2.56c-2.38.6-4.76,1.21-7.15,1.73-6,1.32-9,4.9-9,11,0,5.39-.07,11.17,0,17.05a20.51,20.51,0,0,0-4.2.11c-6.83.94-12.29-2.79-18.37-8.69-5.42-5.26-12.14-9.91-21.13-14.64a4.26,4.26,0,0,1-2.63-4.21c-.07-1.72,0-3.48.14-5.37a47.71,47.71,0,0,0,0-7.84,25,25,0,0,0-7.66-15.65c-10.6-10.52-14.55-22.25-12.08-35.85a18,18,0,0,0,.22-2.25,13,13,0,0,1,.47-1.32c9.66,3.5,26.42,5.65,44.4,5.65,15.8,0,30.81-1.67,40.77-4.5l0,1.19c.11,3.85.16,5.76.29,6.77h0a21.91,21.91,0,0,0,2.19,9.06c1.9,4.18,3.74,8.4,5.57,12.61l1.65,3.77c-.9,0-1.8,0-2.71.08a8.87,8.87,0,0,0-8.45,9.59C129,134.85,128.9,139.31,128.84,143.63ZM88.68,74.25c20,0,33.62,1.68,38.52,3.25-4.9,1.57-18.56,3.25-38.52,3.25S55.05,79.07,50.15,77.5C55.05,75.93,68.72,74.25,88.68,74.25Z"/><path d="M96.65,41.57a2.94,2.94,0,0,1-2.89-3c-.14-3.56-2-5.23-5.38-5.54-1.78-.17-3.12-.91-3-2.8s1.33-2.74,3.09-2.9c3.39-.31,5.26-2,5.31-5.56a2.65,2.65,0,0,1,2.63-2.88,2.75,2.75,0,0,1,3.14,2.75c.12,4,2,5.88,6,6A2.52,2.52,0,0,1,108,30.23c0,1.72-1,2.62-2.73,2.72-3.72.23-5.65,2.07-5.72,5.92A2.65,2.65,0,0,1,96.65,41.57Z"/><path d="M122.08,46.08c-.52,2.83-2,4.65-5,4.78-1.88.07-1.74.93-1.29,2.4,1.42,4.66-.14,6.93-4.94,7.53a24.13,24.13,0,0,0-2.93.46c-2.23.56-3.71,0-4-2.49L106,56.14c.89-1.36,3.59-.89,3.39-3.36-.07-5,.2-5.5,4.75-6.92,1.63-.51,1.67-1.16,1.26-2.63-1.27-4.5.32-6.69,5-7.15a7.67,7.67,0,0,0,3.2-.72,2.25,2.25,0,0,1,3.38,1,2.67,2.67,0,0,1-.79,3.57,2.85,2.85,0,0,1-1.41.82C120.64,41,120.64,43.14,122.08,46.08Z"/><path d="M153.52,15.24a2,2,0,0,1-2.07,1.84c-2.43.24-3.81,1.46-4.06,4a2.35,2.35,0,0,1-2.27,2.43c-1.61.05-2-1.12-2.15-2.42a3.64,3.64,0,0,0-3.74-3.48,2.37,2.37,0,0,1-2.41-2.29c-.12-1.55,1-2.14,2.29-2.27,2.25-.21,3.27-1.49,3.49-3.68A2.36,2.36,0,0,1,144.94,7c1.62-.07,2,1,2.14,2.35.22,2.25,1.68,3.22,3.76,3.52C152.28,13.08,153.34,13.72,153.52,15.24Z"/><path d="M113.24,8.24c2.56.16,4.11,1.4,4.14,4a3.77,3.77,0,0,1-4,4.13,3.71,3.71,0,0,1-4.14-4C109.2,9.9,110.75,8.5,113.24,8.24Z"/><path d="M72.14,48.78c2.52.2,4,1.53,4,4.06s-1.41,4.08-4,4.07-4-1.33-4.06-4S69.72,49.13,72.14,48.78Z"/><path d="M156,67.77a3.42,3.42,0,0,1-3.12-3.34c-.25-3.34-1.87-5.05-5.23-5.22-1.76-.09-3-1.08-3-2.92s1.29-2.79,3-2.93c3.33-.25,4.94-2,5.18-5.33.12-1.68.95-3.13,2.82-3.15s2.92,1.41,3.06,3.27c.25,3.3,1.94,5,5.28,5.23,1.85.12,3.27,1.11,3.15,3.14-.12,1.84-1.53,2.64-3.25,2.7-3.4.12-5,1.9-5.18,5.23A3.23,3.23,0,0,1,156,67.77Z"/><path d="M136.9,57c-.26,2.68-1.74,4.36-4.72,4.19-2.74-.15-4.14-1.83-4.05-4.51.11-2.95,1.89-4.51,4.75-4.42S136.93,54,136.9,57Z"/></svg>