<?xml version="1.0" encoding="utf-8"?>
<!-- Generator: Adobe Illustrator 24.2.3, SVG Export Plug-In . SVG Version: 6.00 Build 0)  -->
<svg version="1.1" id="Layer_1" xmlns="http://www.w3.org/2000/svg" xmlns:xlink="http://www.w3.org/1999/xlink" x="0px" y="0px"
	 viewBox="0 0 200 200" style="enable-background:new 0 0 200 200;" xml:space="preserve">
<style type="text/css">
	.st0{fill:#001E36;}
	.st1{fill:#31A8FF;}
</style>
<g id="Layer_2_2_">
	<g id="Surfaces_1_">
		<g id="Photo_Surface">
			<g id="Outline_no_shadow_1_">
				<path class="st0" d="M45.4,17.8h109.5c16.6,0,30,13.4,30,30v105.2c0,16.6-13.4,30-30,30H45.4c-16.6,0-30-13.4-30-30V47.8
					C15.4,31.3,28.8,17.8,45.4,17.8z"/>
			</g>
		</g>
	</g>
	<g id="Outlined_Mnemonics_Logos_1_">
		<g id="Ps">
			<path class="st1" d="M53.6,133.7V61.1c0-0.5,0.2-0.8,0.7-0.8c1.2,0,2.3,0,4-0.1c1.7-0.1,3.5-0.1,5.4-0.1c1.9-0.1,4-0.1,6.1-0.1
				c2.2-0.1,4.3-0.1,6.4-0.1c5.8,0,10.6,0.7,14.6,2.2c3.5,1.2,6.8,3.2,9.5,5.8c2.3,2.3,4,5,5.2,8.1c1.1,3,1.6,6,1.6,9.2
				c0,6.1-1.4,11.1-4.2,15c-2.8,4-6.8,6.9-11.4,8.6c-4.8,1.8-10.1,2.4-15.9,2.4c-1.7,0-2.8,0-3.5-0.1c-0.7-0.1-1.7-0.1-3-0.1v22.7
				c0.1,0.5-0.3,0.9-0.8,1c-0.1,0-0.1,0-0.3,0H54.4C53.8,134.7,53.6,134.4,53.6,133.7z M69,73.9v23.7c1,0.1,1.9,0.1,2.8,0.1h3.7
				c2.8,0,5.5-0.4,8.1-1.3c2.3-0.6,4.2-2,5.8-3.7c1.5-1.8,2.2-4.2,2.2-7.3c0.1-2.2-0.5-4.4-1.6-6.3c-1.2-1.8-2.9-3.2-4.9-4
				c-2.6-1.1-5.4-1.5-8.3-1.4c-1.8,0-3.5,0-4.8,0.1C70.4,73.8,69.4,73.8,69,73.9L69,73.9z"/>
			<path class="st1" d="M151,93.3c-2.1-1.1-4.4-1.9-6.8-2.4c-2.6-0.6-5.2-0.9-7.9-0.9c-1.4-0.1-2.9,0.1-4.2,0.5
				c-0.9,0.2-1.7,0.7-2.2,1.4c-0.4,0.6-0.6,1.3-0.6,1.9s0.3,1.3,0.7,1.8c0.6,0.8,1.5,1.4,2.4,1.9c1.6,0.8,3.3,1.6,5,2.3
				c3.8,1.3,7.5,3,10.9,5.2c2.3,1.5,4.2,3.5,5.6,5.9c1.1,2.3,1.7,4.7,1.6,7.3c0.1,3.3-0.9,6.6-2.8,9.4c-2,2.8-4.7,5-7.9,6.3
				c-3.5,1.5-7.7,2.3-12.8,2.3c-3.2,0-6.4-0.3-9.6-0.9c-2.5-0.4-4.9-1.2-7.2-2.3c-0.5-0.3-0.8-0.8-0.8-1.3v-12.3
				c0-0.2,0.1-0.5,0.3-0.6c0.2-0.1,0.4-0.1,0.6,0.1c2.8,1.6,5.7,2.8,8.8,3.5c2.7,0.7,5.5,1.1,8.3,1.1c2.7,0,4.6-0.4,5.9-1
				c1.1-0.5,1.9-1.7,1.9-3c0-1-0.6-1.9-1.7-2.8s-3.5-2-6.9-3.3c-3.6-1.3-6.9-3-10-5.1c-2.2-1.6-4-3.6-5.4-6
				c-1.1-2.3-1.7-4.7-1.6-7.2c0-3,0.8-5.9,2.4-8.5c1.8-2.8,4.4-5.1,7.4-6.5c3.3-1.7,7.5-2.5,12.5-2.5c2.9,0,5.9,0.2,8.8,0.6
				c2.1,0.3,4.2,0.8,6.1,1.6c0.3,0.1,0.6,0.4,0.7,0.6c0.1,0.3,0.1,0.6,0.1,0.8v11.5c0,0.3-0.1,0.6-0.4,0.7
				C151.7,93.5,151.3,93.5,151,93.3z"/>
		</g>
	</g>
</g>
</svg>
