<?xml version="1.0" encoding="utf-8"?>
<!-- Generator: Adobe Illustrator 24.1.2, SVG Export Plug-In . SVG Version: 6.00 Build 0)  -->
<svg version="1.1" id="Layer_1" xmlns="http://www.w3.org/2000/svg" xmlns:xlink="http://www.w3.org/1999/xlink" x="0px" y="0px"
	 viewBox="0 0 433.6 200" style="enable-background:new 0 0 433.6 200;" xml:space="preserve">
<style type="text/css">
	.st0{fill:#494949;}
	.st1{enable-background:new    ;}
</style>
<path class="st0" d="M218.1,115.2c-0.5,0-1-0.1-1.1,0.2s0.5,0.3,1.1,0.3c0.4,0,1-0.1,1-0.3S218.5,115.2,218.1,115.2"/>
<path class="st0" d="M218.1,116.4c-0.6,0-1.2-0.1-1.3,0.2s0.6,0.3,1.3,0.3c0.4,0,1.3-0.1,1.2-0.3S218.5,116.4,218.1,116.4"/>
<path class="st0" d="M218.1,117.6c-0.6,0-1.2-0.1-1.2,0.2c0,0.2,0.6,0.3,1.2,0.3c0.4,0,1.2-0.1,1.1-0.3
	C219.2,117.6,218.5,117.6,218.1,117.6"/>
<path class="st0" d="M218.1,118.9c-0.4,0-0.9-0.1-0.9,0.1s0.4,0.3,0.9,0.3c0.3,0,0.9-0.1,0.8-0.2
	C218.9,118.9,218.4,118.9,218.1,118.9"/>
<g>
	<path class="st0" d="M375.4,88.6c10-0.2,18.3,7.8,18.5,17.9c0,0.2,0,0.4,0,0.6c0,10.2-9,18.8-19.1,18.8c-10.5,0-18-8.5-18-18.8
		C356.8,97.2,365.5,88.6,375.4,88.6 M377.2,123.5c6.7,0,10.9-6.6,10.9-13c0-10.1-5.8-19.6-14.5-19.6c-6.9,0-11.1,6.1-11.1,13.2
		C362.6,113.4,367.9,123.5,377.2,123.5 M340,89.4h-7.7c-3.3,0-5.8,0-7.9-0.1c-1.9-0.1-2.3-0.5-2.6-0.9h-1c-0.2,0.4-2.6,6.9-2.7,7.2
		l1.1,0.7c1.1-3.1,2.5-4.7,8.9-4.7c1.7,0,3.4,0.1,5.1,0.3c0.4,4.5,0.4,9,0.4,13.6c0,2.9-0.1,13.6-0.4,15.9c-0.2,1.1-0.7,1.6-3.7,2.1
		c-1.3,0.2-2.1,0.3-2.8,0.4l0.3,1.4c1-0.1,2.1-0.1,3.5-0.2c1.4-0.1,3.2-0.1,5.8-0.1c1,0,2.6,0,4.1,0s2.9,0.1,4.8,0.2l0.2-1.5
		c-0.4,0-0.9-0.1-1.7-0.2c-1.2-0.1-2.3-0.5-3.2-1.1c-1.1-1.3-1.1-11-1.1-13.6c0-2.3,0.4-13.5,0.4-16.1c0-1.1,0.4-1.1,3.6-1.1h0.1
		c1.4,0,1.8,0,2.4,0c6.3,0,6.5,1.5,7.7,4.7l1.1-0.7c-0.1-0.4-1.3-6.8-1.5-7.2h-1c-0.3,0.4-0.7,0.8-2.6,0.9c-2.4,0.1-5.3,0.1-8.3,0.1
		L340,89.4z M281.1,89.3c-1.4,0.1-2.5,0.1-4.3,0.1c-0.9,0-1.8,0-2.7-0.1c-0.9-0.1-1-0.1-1.9-0.2v1.5c5.2,1,5.7,1.8,5.5,12.2v6.3
		c0,2.4-0.2,9.6-0.4,11.6c-0.3,2.3-1.3,2.5-2.6,2.8c-0.7,0.2-1.5,0.4-2.1,0.5v1.3c1.3,0,2.7-0.1,4-0.2c1.3-0.1,3.1-0.2,4.5-0.2
		s2.8,0.1,4,0.2c0.8,0,1.7,0.1,2.5,0.2v-1.5c-7.1-1.3-7.1-2.3-7-8.2v-15.1l0.1-2.9c0,0,0,0.1,26.3,27.9h1.8
		c-0.2-2.9-0.2-10.6-0.2-13.9c0-4.7,0-17,0.2-18.5c0.3-2.3,3.4-2.5,5.1-2.5v-1.3c-3.8,0-6,0.1-7.7-0.1c-1.2-0.2-2.5-0.2-3.8-0.3
		c-0.8,0-1.5,0-2.3,0l-0.3,1.3c6,0.4,5.9,0.9,5.9,14.4c0,1.6-0.1,9.5-0.1,11L281.1,89.3z M248.7,88.6c10-0.2,18.3,7.8,18.5,17.9
		c0,0.2,0,0.4,0,0.6c0,10.2-9,18.8-19.1,18.8c-10.5,0-18-8.5-18-18.8C230.2,97.2,238.9,88.6,248.7,88.6 M250.6,123.5
		c6.7,0,10.9-6.6,10.9-13c0-10.1-5.8-19.6-14.5-19.6c-6.9,0-11.1,6.1-11.1,13.2C235.9,113.4,241.3,123.5,250.6,123.5 M191.9,89.1
		c1.1,0.1,2.3,0.2,3.4,0.2c1.1,0,2.3,0.1,3.3,0.1c0.8,0,2.9-0.2,4.9-0.4c2.1-0.2,3.6-0.2,4.8-0.2c7.6,0,12.4,4.1,12.4,9.7
		c0,5-4.5,8.1-8.1,9c7.4,10.7,8.8,12.3,11.6,15c1.5,1.4,3.3,2.3,5.4,2.6l-0.1,1.3c-3.9,0.2-7.8-1.1-10.8-3.7
		c-5.5-4.3-10.8-12.8-11.8-14.6c-1.5,0-2.1,0-4.7-0.2v5.2c0,2.3-0.1,7.5,0.6,9c0.4,0.8,3.1,1.6,4.9,2.1l0.1,1.4
		c-2.6-0.4-5.2-0.6-7.9-0.6c-1.3,0-6.8,0.4-8,0.5l-0.3-1.1c0.5-0.1,3.8-0.8,4.5-2.3c0.6-1.3,0.5-8.9,0.5-11.3v-8.6
		c0-11.1-0.5-11.3-5-11.5L191.9,89.1z M202.3,105.9c1.3,0.2,2.6,0.2,3.8,0.2c1.4,0,8.9,0,8.9-7.2c0-3.3-2.4-8.1-8.8-8.1
		c-3.8,0-3.8,0.4-3.8,6.5L202.3,105.9z M167,88.6c10-0.2,18.3,7.8,18.5,17.9c0,0.2,0,0.4,0,0.6c0,10.2-9,18.8-19.1,18.8
		c-10.5,0-18-8.5-18-18.8C148.5,97.2,157.2,88.6,167,88.6 M168.9,123.5c6.7,0,10.9-6.6,10.9-13c0-10.1-5.8-19.6-14.5-19.6
		c-6.9,0-11.1,6.1-11.1,13.2C154.2,113.4,159.6,123.5,168.9,123.5 M130.8,89.3h-7.7c-3.3,0-5.8,0-7.9-0.1c-1.9-0.1-2.3-0.5-2.6-0.9
		h-1c-0.2,0.4-2.6,6.9-2.7,7.2l1.1,0.7c1.1-3.1,2.5-4.7,8.9-4.7c1.7,0,3.4,0.1,5.1,0.3c0.4,4.5,0.5,9,0.5,13.6
		c0,2.9-0.1,13.6-0.5,15.9c-0.2,1.1-0.7,1.6-3.7,2.1c-1.3,0.2-2.1,0.3-2.8,0.4l0.3,1.4c1-0.1,2.1-0.1,3.5-0.2
		c1.4-0.1,3.2-0.1,5.8-0.1c1,0,2.6,0,4.1,0c1.5,0,2.9,0.1,4.7,0.2l0.2-1.5c-0.4,0-0.9-0.1-1.7-0.2c-1.2-0.1-2.3-0.5-3.2-1.1
		c-1.1-1.3-1.1-11-1.1-13.6c0-2.3,0.4-13.5,0.4-16.1c0-1.1,0.4-1.1,3.6-1.1h0.1c1.4,0,1.8,0,2.4,0c6.4,0,6.5,1.5,7.7,4.7l1.1-0.7
		c-0.1-0.4-1.3-6.8-1.5-7.2h-1c-0.3,0.4-0.7,0.8-2.6,0.9c-2.4,0.1-5.3,0.1-8.3,0.1L130.8,89.3z M361.9,57.8
		c-1.8,0.2-3.6,0.3-5.4,0.2h-2.7L351,58h-0.9l-0.7,0.1v0.7h0.1c0.7,0,1.4,0.1,1.7,0.5c0.4,0.6,0.5,1.3,0.5,6.9c0,2-0.1,4.1-0.3,6.1
		c-0.1,0.6-1,0.8-1.7,1h-0.1l-0.1,0.8h0.2c1.6-0.1,3.3-0.2,3.8-0.2h1.4l2.6,0.1v-0.8h-0.2c-1.8-0.2-2.5-0.5-2.7-0.7
		c-0.2-0.7-0.3-1.5-0.3-2.2c0-0.3,0-0.6,0-0.9c0,0,0.1-2.4,0.1-2.9l1.3-0.1c1.3,0,2.5,0.2,3.7,0.5c0.3,0.1,0.5,0.6,0.6,1.3v0.1h0.8
		v-0.1c0.1-1.5,0.1-3,0.1-4.5v-0.1h-0.8v0.1c-0.2,1.1-0.3,1.6-3.4,1.6c-0.7,0-1.4,0-2.1-0.1h-0.1c0-0.3,0-0.6,0-0.9s0-0.7,0-1.1
		c0,0,0-3.3,0.1-3.8c0.6-0.1,1.3-0.1,1.9-0.1c1.3-0.1,2.7,0.2,3.9,0.8c0.4,0.4,0.7,1,0.8,1.6v0.1h0.9v-0.1c0-0.3,0-1.1,0.1-1.9
		l0.1-1.7L361.9,57.8z M337.7,57.7c4.5-0.1,8.3,3.5,8.4,8.1c0,0.1,0,0.1,0,0.2c-0.1,4.7-4,8.4-8.7,8.4c-4.5,0-8.2-3.7-8.2-8.2
		c0-0.1,0-0.1,0-0.2C329.4,61.4,333.1,57.8,337.7,57.7 M338.5,73c2.9,0,4.7-2.9,4.7-5.6c0-4.2-2.4-8.5-6.3-8.5
		c-3.2,0-4.8,2.8-4.8,5.7C332.1,68.8,334.5,73.1,338.5,73 M307.8,58.1v0.8h0.2c0.8,0,1.9,0.1,1.9,0.7c0,0.2-0.3,1.1-3.4,5.5
		c-1.3-1.6-4.2-5.3-4.2-5.7c0-0.2,0-0.4,1.8-0.4h0.1v-0.9h-1.5h-2.9h-3.2V59h0.1c0.6-0.1,1.2,0.1,1.6,0.4c1.6,1.6,3.2,3.4,4.5,5.2
		l1.5,1.9c0.1,1.1,0.2,2.4,0.2,3.9c0,2.4,0,2.9-2.3,3h-0.1l-0.1,0.8h0.1c0.3,0,1.4,0,2.3-0.1l1.7-0.1l1.3,0.1h0.3l1.7,0.1v-0.9h-0.1
		c-2.2-0.2-2.2-0.5-2.3-0.9v-0.2c0-1-0.1-2.1-0.1-3.3c0-0.9,0-1.9,0-2.9c0-0.1,3.2-4.8,3.2-4.8c1-1.5,1.5-2.4,3.7-2.4h0.1V58h-0.1
		c-0.3,0-1.1,0-1.9,0.1h-1L310,58h-0.9H308h-0.1L307.8,58.1z M293.7,57.6h-0.5l0,0c-0.1,0.1-0.2,0.3-1.1,0.3h-3.2h-4.5h-3.5
		c-0.8,0-1-0.2-1.1-0.3l0,0h-0.6v0.1c-0.1,0.2-1.1,3-1.2,3.2V61l0.8,0.4v-0.1c0.5-1.3,1-2,3.8-2c0.9,0,1.6,0,2.1,0.1
		c0.2,2.2,0.2,4.3,0.2,5.8c0,1.6,0,6-0.2,7c-0.1,0.4-0.2,0.6-1.5,0.8l-1,0.1h-0.4l0.2,0.9l1.3-0.1h0.4h2.6h0.4h1.4h1.1h1.1v-0.1
		l0.1-0.8l-0.7-0.1h-0.2c-0.5,0-1-0.2-1.4-0.4c-0.2-0.2-0.5-1.2-0.5-5.9l0.1-3.3l0.1-3.8c0-0.3,0-0.3,1.5-0.3h1.1
		c2.6,0,2.8,0.5,3.2,1.7l0.1,0.4l0.7-0.4l-0.2-0.8c-0.3-1.3-0.5-2.3-0.5-2.4v-0.1L293.7,57.6z M267,58.1v0.8h0.1
		c2.1,0.1,2.4,0.5,2.6,0.9c0.3,2.3,0.4,4.6,0.4,6.9V67c0,1.4,0,4.5-0.4,5.3c-0.1,0.2-0.7,0.7-2.7,0.8h-0.1V74l2.5-0.1h2.3l3.9,0.1
		v-0.1v-0.8h-0.1c-1.7,0-2.3,0-2.4-0.7c-0.2-1.5-0.2-3-0.2-4.5c0-6.2,0-7.9,0.4-8.5c0.4-0.6,1.9-0.6,2.4-0.6h0.1v-0.9h-1.9L271,58
		h-1.8h-0.8h-1.4L267,58.1L267,58.1z M252.8,62.4c0,2.7,2.3,3.7,4,4.4h0.1c2.9,1.1,4.2,1.7,4.2,3.7c0,1.4-1.2,2.5-2.6,2.5
		c-0.1,0-0.2,0-0.2,0c-1.4,0-2.7-0.5-3.7-1.3c-0.6-0.6-1.1-1.4-1.2-2.3v-0.1h-1l0.1,0.2c0.5,1.5,0.8,3,0.7,4.5v0.1h0.8V74
		c0-0.1,0.2-0.4,0.4-0.4c0.3,0,0.7,0.1,1,0.2h0.1l0.2,0.1c0.6,0.2,1.3,0.3,2,0.3c3.9,0,6-2.4,6-4.5c0-3.1-3.1-4.4-5.1-5.2
		c-2-0.8-3.4-1.4-3.4-3c0-1.5,1.2-2.7,2.7-2.6c0.1,0,0.2,0,0.3,0c1.1,0,2.2,0.5,3,1.3c0.5,0.5,0.9,1.2,1,2v0.1h0.1h0.7l-0.2-2.1
		c0-0.6,0.1-1.3,0.2-1.9v-0.1l-0.7-0.1l-0.5,0.4c-1-0.3-2.1-0.5-3.2-0.5C255.1,57.8,252.8,59.7,252.8,62.4 M241.5,57.8
		c3.4,0,5.7,1.8,5.7,4.4c0,2.1-1.8,3.5-3.6,4c3.2,4.5,3.8,5.2,5.1,6.4c0.6,0.6,1.4,1,2.3,1.1h0.1l-0.1,0.8h-0.1
		c-1.8,0.1-3.5-0.5-4.9-1.6c-2.1-1.8-3.9-4-5.3-6.4l-1.9-0.1v2.9c-0.1,1,0,2.1,0.3,3.1c0.6,0.4,1.4,0.7,2.1,0.9h0.1l0.1,0.9h-0.2
		c-1.2-0.2-2.3-0.3-3.5-0.3c-0.5,0-3,0.2-3.5,0.2H234l-0.2-0.7h0.1c0.3,0,1.6-0.4,1.9-0.9c0.2-1.5,0.3-3,0.2-4.5v-4.1
		c0-4.8-0.2-4.8-2.1-4.9h-0.1l0.1-0.9h0.2l1.4,0.1h1.5c0.4,0,1.3-0.1,2.2-0.2L241.5,57.8z M238.9,65.3c0.5,0.1,1.1,0.1,1.6,0.1
		c1.4,0,3.8-0.4,3.8-3c0-1.9-1.6-3.5-3.6-3.4c-0.1,0-0.1,0-0.2,0c-1.5,0-1.5,0-1.6,2.7C238.9,61.7,238.9,65.1,238.9,65.3
		 M229.5,57.9c-2,0.1-5.1,0.2-7.1,0.2c-1.2,0-4.4-0.1-5.5-0.1h-0.1v0.8h0.1c1.4,0.2,1.4,0.3,1.5,0.6c0.1,0.3,0.3,1.8,0.3,6.7
		c0,2.2-0.1,4.3-0.4,6.4c-0.1,0.5-0.8,0.7-1.8,0.8h-0.1l0.1,0.9h0.1c2.1-0.2,4.2-0.3,6.3-0.2l6.4,0.1l0.1-0.1
		c0.7-1.2,1.1-2.5,1.1-3.9v-0.1h-0.8V70c-0.5,1.5-1.6,3-5.5,3c-0.9,0-1.9-0.1-2.7-0.5c-0.1-1-0.2-2.1-0.2-3.1c0,0,0-2.4,0-2.9
		c0.8-0.1,1.6-0.2,2.4-0.1c3.1,0,3.4,0.2,3.8,2.2v0.1h0.8v-0.1c-0.1-1.6,0-3.2,0.1-4.8v-0.1h-0.9v0.1c-0.3,1.1-0.6,1.4-1,1.5
		c-1.7,0.2-3.4,0.3-5,0.2c0-0.2-0.1-2.1-0.1-2.1c0-1.2,0.1-2.5,0.3-3.7c1-0.2,2-0.3,3.1-0.3c1.8,0,2.8,0.2,3.3,0.7
		c0.3,0.5,0.5,1.1,0.4,1.7v0.1l0.9,0.1v-0.1c0-0.2,0.1-0.8,0.2-1.3l0.1-0.6c0.1-0.5,0.1-1.1,0.1-1.6V58L229.5,57.9z M194.8,58.1v0.7
		h0.1c2.1,0.3,2.3,0.3,4,3.8l3.6,7.3v0.1c0.7,1.4,1.3,2.8,1.8,4.3v0.1h0.8v-0.1c0.6-1.8,1.4-3.5,2.3-5.2l3.9-7.6
		c0.9-1.8,1.3-2.3,3-2.6h0.1v-0.9h-0.1c-1,0-2,0-3,0l-3-0.1v0.1v0.8l0,0c0.8,0,1.9,0.1,1.9,1c-0.1,0.6-0.3,1.2-0.6,1.8l-0.1,0.1
		c-0.8,1.8-1.3,2.8-1.8,3.8l-1.7,3.6l-0.4,0.9c-1.9-3.5-3.6-7.1-4.9-10.8c0-0.2,0-0.2,1.4-0.4h0.4v-0.9h-3.8c-0.9,0-2.8,0-3.8-0.1
		h-0.1L194.8,58.1z M184,58.1v0.8h0.1c2.1,0.1,2.4,0.5,2.6,0.9c0.3,2.3,0.4,4.6,0.4,6.9v0.3c0,1.4,0,4.5-0.4,5.3
		c-0.1,0.2-0.7,0.7-2.7,0.8h-0.1V74l2.5-0.1h2.3l3.9,0.1v-0.1v-0.8h-0.1c-1.7,0-2.3,0-2.4-0.7c-0.2-1.5-0.2-3-0.2-4.5
		c0-6.2,0-7.9,0.4-8.5c0.4-0.6,1.9-0.6,2.4-0.6h0.1V58h-1.9l-2.7,0.1h-1.8h-0.8h-1.4L184,58.1L184,58.1L184,58.1z M174.8,57.8h-0.1
		v0.1l-0.1,0.7h0.2c3.1,0.2,2.6,0.3,2.7,6.6c0,0,0,3.9,0,4.3L166.3,58l0,0h-1.8h-1.2h-0.1l-1.1-0.1v0.2v0.8h0.1
		c2.3,0.4,2.6,0.7,2.5,5.2v2.8c0,1-0.1,4.2-0.2,5.1c-0.1,0.9-0.5,1-1,1.1l-1,0.2v0.8l3.7-0.2l1.8,0.1l1.3,0.1v-0.9h-0.1
		c-3.1-0.5-3-0.9-3-3.5l0.1-6.6c0,0,0-0.6,0-0.9c0.6,0.6,11.6,12,11.5,12l0,0h1v-0.1c-0.1-1.3-0.1-4.6-0.1-6.1
		c0-2.2,0.1-7.2,0.2-7.8c0.1-1.1,1.1-1.3,1.9-1.3h0.1V58h-0.1c-1.7,0-2.6,0.1-3.3,0H177l-1.1-0.1L174.8,57.8z M145.8,58h-0.9
		c-1.1,0-3.3,0-3.6,0.1h-0.1l0.1,0.9h0.1c1,0,1.4,0,1.6,0.2c0.3,0.2,0.5,2,0.5,4.5l-0.2,5.2c0,3.6,2.3,5.5,6.7,5.5
		c6.9,0,7.3-3.7,7.4-11.4v-2.3v-0.1c0-1.1,0-1.6,1.9-1.7h0.1V58h-0.4l-2.8,0.1H154h-1V59h0.1c0.7-0.1,1.4,0.1,1.9,0.4
		c0.5,0.5,0.6,2.6,0.6,3.7v1.4c0,5.3-0.4,8.5-5.3,8.5c-4.5,0-4.5-3.6-4.5-5.3v-3c0-5.6,0.2-5.6,2.7-5.8h0.1V58h-0.1c-0.6,0-2,0-3,0"
		/>
	<path class="st0" d="M94.2,112.7l-0.8-1.6l-1-2.2c-0.7-1.5-2-2.5-3.6-2.7c3.9-6.6,5.9-14.1,5.9-21.8V57.8c0-0.2-0.1-0.3-0.3-0.3
		H41.7c-0.2,0-0.3,0.1-0.3,0.3v26.6c0,7.7,2.1,15.2,6,21.8c-1.6,0.2-3,1.2-3.6,2.7l-1,2.2l-0.8,1.6c-0.7,1.4-1.4,4.3,1.4,7.9
		c2.3,2.9,7.1,6,12.9,8.3l0.3,0.1l1.4,0.6c-0.5,0.5-1.1,1-1.7,1.4l-0.5,0.4l-0.3,0.3l0,0l-0.1,0.1c-0.5,0.6-0.8,1.4-0.8,2.2v5.1
		c0,2.1,2.9,2.8,5.7,2.8h15.5c2.7,0,5.7-0.7,5.7-2.8v-5.1c0.1-0.8-0.2-1.6-0.8-2.2l-0.1-0.1l0,0l-0.3-0.3l-0.5-0.4
		c-0.5-0.4-1.1-1-1.7-1.4l1.4-0.6l0.3-0.1c5.8-2.3,10.6-5.4,12.9-8.3C95.6,117,94.9,114.1,94.2,112.7 M42.1,78.6h52v5.9
		c0,26.3-24.4,41.2-26,42.2c-1.6-1-26-15.9-26-42.2V78.6z M90.8,108.2c0.7,1.3,0.7,2.8,0,4.2c-0.1,0.3-0.3,0.5-0.4,0.8l-1.9-2.7
		c-0.1-0.1-0.2-0.1-0.3-0.1c-0.1,0-0.2,0.1-0.2,0.2c-0.2,0.5-0.6,0.9-1.1,1.1c-0.6,0.2-1.2,0.3-1.8,0.1c1.2-1.6,2.3-3.2,3.3-4.9h0.3
		l0,0C89.6,106.9,90.4,107.4,90.8,108.2 M74.1,134.4l0.3,0.3H61.7l0.3-0.3c0.9-0.7,1.4-1.7,1.4-2.9v-3.6c0-3.5-3-4.9-6.6-6.5
		c-1.2-0.6-2.5-1.1-3.8-1.9c-1.5-0.9-2.9-1.8-4.3-2.9l2.8-4c4.5,5.8,10.1,10.8,16.3,14.7c0.1,0.1,0.2,0.1,0.3,0
		c6.3-3.9,11.8-8.9,16.3-14.7l2.8,4c-1.3,1.1-2.8,2.1-4.3,2.9c-1.3,0.7-2.5,1.3-3.8,1.9c-3.5,1.6-6.6,3-6.6,6.5v3.6
		C72.7,132.7,73.2,133.7,74.1,134.4 M48.3,116.1c-0.9-0.7-1.6-1.5-2.3-2.4l1.7-2.5c0.3,0.5,0.7,0.8,1.2,1.1c0.6,0.2,1.2,0.3,1.9,0.2
		L48.3,116.1z M85.2,112.4c0.6,0.1,1.3,0.1,1.9-0.2c0.5-0.2,0.9-0.6,1.2-1.1c0.3,0.5,1.4,2,1.8,2.5c-0.7,0.9-1.4,1.7-2.3,2.4
		L85.2,112.4z M42,58.1h52v19.8H42L42,58.1z M45.3,108.2c0.4-0.8,1.2-1.3,2.1-1.4l0,0h0.3c1,1.7,2.1,3.3,3.3,4.9
		c-0.6,0.2-1.2,0.2-1.8-0.1c-0.5-0.2-0.9-0.6-1.1-1.1c0-0.1-0.1-0.2-0.3-0.2c-0.1,0-0.2,0-0.3,0.1l-1.9,2.7
		c-0.1-0.2-0.3-0.5-0.4-0.7C44.6,111.1,44.6,109.6,45.3,108.2 M56.8,128.4l-0.3-0.1c-5.7-2.3-10.4-5.3-12.7-8.1
		c-2.5-3.1-2.1-5.7-1.4-7.2l0.8-1.7l1-2.2l0,0c-0.2,1.2-0.1,2.4,0.4,3.5c1.1,2.8,5.1,5.7,8,7.4c1.3,0.7,2.6,1.3,3.8,1.9
		c3.4,1.6,6.2,2.8,6.2,6v3.6c0,0.3,0,0.6-0.1,0.9c-0.1-0.4-0.3-0.8-0.5-1.1C61,130,59,129.3,56.8,128.4 M55.7,132.3L55.7,132.3
		L55.7,132.3c0.1-0.2,0.3-0.3,0.4-0.5l0.5-0.4c0.7-0.5,1.3-1.1,1.9-1.7c1.2,0.4,2.3,1.1,3.2,2c0.5,0.5,0.6,1.3,0.2,1.9l-0.3,0.3
		l-0.8,0.8h-0.5c-2.5,0-4.2-0.9-4.5-1.7C55.6,132.8,55.6,132.5,55.7,132.3 M80.8,133.5c0,0.1,0,0.3,0,0.4v5.1c0,1.6-2.7,2.3-5,2.3
		H60.3c-2.3,0-5-0.6-5-2.3V134c0-0.1,0-0.3,0-0.4c0.6,0.9,2.3,1.9,5,1.9h15.6C78.5,135.4,80.2,134.5,80.8,133.5 M79.4,131.4l0.4,0.4
		c0.2,0.1,0.3,0.3,0.4,0.4l0,0v0.1c0.1,0.2,0.1,0.5,0,0.7c-0.4,0.9-2.1,1.8-4.5,1.7h-0.5l-0.8-0.8l-0.3-0.3l0,0
		c-0.4-0.6-0.3-1.4,0.2-1.9c0.9-0.9,1.9-1.5,3.1-2C78.1,130.4,78.7,130.9,79.4,131.4 M92.3,120.2c-2.3,2.8-7,5.8-12.7,8.1l-0.3,0.1
		c-2.3,0.9-4.2,1.7-5.4,3c-0.3,0.3-0.5,0.7-0.5,1.1c-0.1-0.3-0.1-0.6-0.1-0.9v-3.6c0-3.1,2.7-4.4,6.2-6c1.2-0.6,2.5-1.1,3.8-1.9
		c3-1.7,6.9-4.7,8-7.4c0.5-1.1,0.7-2.3,0.4-3.5l0,0l1,2.1l0.8,1.6C94.3,114.5,94.7,117,92.3,120.2"/>
	<path class="st0" d="M41.9,78.2h52.5v5.9c0,26.3-24.7,41.8-26.3,42.7c-1.6-1-26.2-16-26.2-42.3L41.9,78.2z M78,100.6
		c-4.8-5.8-11.7-2.9-11.7-2.9c-1.1,0.2-2.1,0.7-3.1,1.2l-0.6,0.3l-0.8,0.1l-1.4,0.2c-1,0.3-2,0.8-3,1.4l-0.9,0.5
		c-1.5,0.8-1.8,1.4-1.9,1.6c-0.3,0.1-0.5,0.4-0.6,0.7c0,0.1,0,0.1,0,0.2c0,0.2,0.1,0.5,0.3,0.7c0.1,0.5,0.6,0.8,1,0.7h0.3
		c0.3-0.1,0.7,0,0.9,0.4c0,0,0,0.1,0,0.1v0.1c-0.1,0.2-0.3,0.3-0.5,0.4c-0.1,0-0.2,0.1-0.1,0.2c0.2,0.7,1.2,0.5,1.6,0.4h0.1H58
		c0.7-0.1,1.4-0.1,2.1,0c0.4,0.1,0.7,0.3,1,0.5c-0.1,0.1-0.1,0.4-0.2,0.4l-0.4,0.1c-0.6,0.1-1.7,0.1-2,1c-0.2,0.5-0.2,1.2,0,1.7
		l0.2,0.3c0.2,0.1,0.5-0.2,0.8-0.4c0.7-0.4,0.6-0.6,0.6-0.7c0-0.2,0.1-0.3,0.2-0.4l0.1,0.1c0.6,0.3,1.3,0.4,2,0.2
		c-0.1,0.4-0.3,0.8-0.6,1c-0.3,0.1-0.6,0.2-0.9,0.1c-0.2,0-0.5,0-0.7,0.1c-0.3,0.3-0.5,0.6-0.8,1c0,0.1,0,0.1,0,0.2l0.1,0.1
		c0,0.1,0.1,0.1,0.2,0.1h2.3c0.6,0.1,1.2-0.1,1.7-0.4l0.3-0.2l1-0.8l1-0.9l0.5-0.4c0.1-0.1,0.2-0.3,0.2-0.4c0.6,0.3,1.1,0.7,1.7,0.9
		c-0.4,0-0.8,0.1-1.2,0.3c-0.6,0.2-1.1,0.6-1.4,1.1c0,0,0,0.2-0.1,0.1c-0.1,0,0,0,0,0.1c0.4,0.4,0.8,0.6,1.3,0.8
		c0.3,0,0.6,0,0.9-0.1l0.6-0.1c0.2,0,2.6-0.1,4.3-0.1l-0.9,0.9c-1.3,0.8-2.5,1.7-3.7,2.6c-1.6,1.3-2.7,3-2.7,4.2
		c0,0.2-0.2,0.4-0.1,0.5c0.1,0.4,0.5,0.7,1,0.8c3.1,0.3,4.9-1.6,6.4-3.2l0.4-0.4c0.9-1,1.7-2.1,2.3-3.3c0.1-0.3,0.3-0.6,0.5-0.8
		c2-1.7,3.3-4.1,3.7-6.7c0.3-2.1-0.2-4.3-1.6-6 M90.1,82.2H89l-1.1-0.7l0,0c0,0-0.1-0.1-0.2-0.1h-1.5c-0.3,0-0.6-0.2-0.9-0.4
		c-0.7-0.6-1.5-0.9-2.4-0.9c-0.9-0.1-1.8,0.3-2.4,1c-0.6-0.7-1.5-1.1-2.4-1c-0.9,0-1.8,0.3-2.4,0.9c-0.2,0.2-0.5,0.4-0.9,0.4h-1.5
		c-0.1,0-0.1,0-0.2,0.1l-1.1,0.7h-1.1c-0.2,0-0.3,0.1-0.3,0.3c0,0,0,0,0,0v10.2c0,0.2,0.1,0.3,0.3,0.3c0,0,0,0,0,0h8
		c0.3,0.3,0.8,0.5,1.2,0.6c0.4,0.1,0.8,0.1,1.1,0c0.5-0.1,0.9-0.3,1.2-0.6h8c0.2,0,0.3-0.1,0.3-0.3c0,0,0,0,0,0V82.5
		C90.5,82.3,90.3,82.2,90.1,82.2C90.2,82.2,90.2,82.2,90.1,82.2 M65.3,82.2h-1.1L63,81.4c-0.1-0.1-0.1-0.1-0.2-0.1h-1.6
		c-0.3,0-0.6-0.2-0.9-0.4c-0.7-0.6-1.6-0.9-2.5-0.9c-0.9-0.1-1.8,0.3-2.4,1c-0.6-0.7-1.5-1.1-2.4-1c-0.9,0-1.8,0.3-2.5,0.9
		c-0.2,0.2-0.5,0.4-0.9,0.4h-1.5c-0.1,0-0.1,0-0.2,0.1l-1.1,0.7h-1.1c-0.2,0-0.3,0.1-0.3,0.3v10.2c0,0.2,0.1,0.3,0.3,0.3h8
		c0.3,0.3,0.8,0.5,1.2,0.6c0.4,0.1,0.8,0.1,1.1,0c0.5-0.1,0.9-0.3,1.2-0.6h8c0.2,0,0.3-0.1,0.3-0.3c0,0,0,0,0,0V82.5
		C65.6,82.3,65.5,82.2,65.3,82.2C65.3,82.2,65.3,82.2,65.3,82.2"/>
	<path class="st0" d="M78.1,100.5c-4.9-5.9-11.8-3-11.9-2.9c-1.1,0.2-2.2,0.7-3.2,1.2l-0.6,0.3l-0.9,0.1l-1.5,0.2
		c-1.1,0.3-2.1,0.8-3,1.4l-0.9,0.5c-1.5,0.8-1.8,1.4-1.9,1.6c-0.3,0.1-0.5,0.4-0.6,0.7c0,0.1,0,0.1,0,0.2c0,0.3,0.1,0.5,0.3,0.7
		c0.2,0.5,0.6,0.9,1.1,0.9l0.3-0.1c0.4-0.1,0.6-0.2,0.8,0.3v0.1c-0.1,0.2-0.3,0.3-0.5,0.4c-0.1,0-0.2,0.1-0.1,0.3
		c0.2,0.8,1.3,0.6,1.7,0.6h0.1l0.4-0.1c0.7-0.2,1.4-0.2,2.1-0.2c0.4,0.1,0.7,0.3,1.1,0.5c-0.1,0.1-0.2,0.2-0.3,0.3l-0.4,0.1
		c-0.6,0.1-1.6,0.3-2,1.1c-0.2,0.6-0.2,1.2,0,1.7l0.3,0.4c0.2,0.1,0.6-0.1,0.9-0.3c0.7-0.4,0.7-0.7,0.8-0.8c0-0.2,0.1-0.3,0.3-0.4
		c0,0,0.1,0.1,0.1,0.1c0.5,0.3,1.2,0.4,1.8,0.2c0,0.3-0.2,0.5-0.5,0.7c-0.3,0.1-0.6,0.2-1,0.1c-0.2,0-0.5,0-0.7,0.1
		c-0.3,0.4-0.6,0.8-0.9,1.2c0,0.1,0,0.1,0,0.2l0.1,0.1c0,0.1,0.1,0.1,0.2,0.1h2.3c0.6,0.1,1.2,0,1.7-0.3l0.3-0.2l1.1-0.9l1.1-0.9
		l0.5-0.4c0.1-0.1,0.2-0.2,0.2-0.4c0.4,0.3,0.8,0.5,1.3,0.7c-0.4,0-0.7,0.1-1,0.2c-0.6,0.3-1.1,0.7-1.4,1.3c0,0,0,0.1,0,0.1
		c0,0.1,0,0.1,0,0.2c0.4,0.4,0.8,0.6,1.3,0.8c0.3,0,0.6,0,0.9-0.1l0.6-0.1c0.2,0,2.4,0,4,0l-0.9,0.6c-1.3,0.8-2.5,1.7-3.7,2.7
		c-1.6,1.3-2.7,3.2-2.7,4.4c0,0.1,0,0.3,0.1,0.4c0.1,0.4,0.5,0.7,1,0.8c3.2,0.4,5.1-1.7,6.6-3.3l0.4-0.4c0.9-1,1.7-2.2,2.4-3.4
		c0.1-0.3,0.3-0.6,0.5-0.8c2.1-1.7,3.4-4.2,3.8-6.8c0.3-2.2-0.3-4.4-1.6-6.1 M62.3,109.1c-0.4,0.4-1.1,0-1.6-0.2l-0.3-0.1
		c-0.4,0.1-0.6,0.4-0.7,0.7c0,0.1-0.1,0.2-0.3,0.3c-0.1-0.1-0.1-0.2-0.1-0.4c0-0.3,0-0.6-0.1-0.7c-0.1,0-0.5,0.6-0.3,1.3
		c-0.1,0.1-0.2,0.1-0.3,0.1c-0.1-0.2-0.2-0.5-0.2-0.8c0-0.3,0-0.5,0.1-0.7c0.3-0.7,1.1-0.8,1.7-0.9l0.5-0.1c0.2-0.1,0.4-0.2,0.5-0.4
		c0.2,0.1,0.4,0.3,0.5,0.5C62.1,108.2,62.2,108.6,62.3,109.1L62.3,109.1 M68.4,111.8l-0.6,0.1c-0.2,0.1-0.5,0.1-0.7,0.1h-0.1
		c0.1-0.2,0.3-0.4,0.5-0.6c0.5-0.3,1.1-0.5,0.9-0.6c-0.8-0.2-1.6,0.2-2,0.9c-0.1-0.1-0.2-0.1-0.3-0.2c0.2-0.5,0.6-0.9,1.1-1.1
		c0.7-0.3,0.9-0.2,0.9-0.2c0.3,0,2.1,0.4,2.4,0.4l0,0c0.1,0.1,0.1,0.1,0.2,0.1c0.7,0.3,1.4,0.5,2.2,0.6c-0.1,0.2-0.1,0.3-0.2,0.5
		C72,111.8,68.7,111.8,68.4,111.8 M79.4,106.5c-0.4,2.5-1.6,4.8-3.6,6.5c-0.3,0.3-0.5,0.6-0.6,1c-0.6,1.2-1.4,2.3-2.3,3.3l-0.4,0.4
		c-1.5,1.6-3.3,3.5-6.3,3.2c-0.3,0-0.5-0.2-0.6-0.5c-0.3-0.9,0.7-2.9,2.5-4.4c1.2-1,2.4-1.8,3.6-2.7l1.1-0.8
		c0.1-0.1,0.2-0.2,0.2-0.3c0,0,0,0,0-0.1c0.2-0.3,0.3-0.6,0.3-0.9c0-0.1,0-0.1,0-0.2c0,0-0.1-0.1-0.1-0.1c-0.8,0-1.6-0.2-2.3-0.6
		c-0.8-0.4-1.4-1.1-1.6-2c-0.5-1.4,0.3-2.3,0.9-3.1c0.5-0.7,1-1.3,0.9-2.1c0-0.1-0.1-0.2-0.2-0.2c0,0,0,0,0,0
		c-0.1,0-0.2,0.1-0.2,0.2l0,0c0,0,0,0.1,0,0.1c-0.1,0.6-0.4,1.2-0.8,1.6c-0.7,0.7-1.1,1.6-1.1,2.5c0,0.3,0.1,0.7,0.2,1
		c0.2,0.5,0.5,1,0.8,1.5c-1.1-0.2-2.1-0.6-3-1.2c0,0-0.1,0-0.1,0c0.1-0.9,0.1-1.8-0.1-2.7c0-0.1-0.1-0.2-0.2-0.2c0,0,0,0,0,0
		c-0.1,0-0.2,0.1-0.2,0.2c0,0,0,0,0,0c0.2,1,0.2,2.1-0.1,3.1l-0.4,0.4l-1.1,0.9l-1,0.9l-0.3,0.3c-0.5,0.2-0.9,0.3-1.4,0.2h-0.9
		c0.1-0.2,0.2-0.5,0.1-0.5c-0.1-0.1-0.5,0.3-0.7,0.5h-0.4c0.2-0.3,0.4-0.6,0.6-0.9h0.4c0.4,0,0.8,0,1.1-0.2c0.4-0.2,0.7-0.7,0.8-1.1
		c-0.1-0.7-0.3-1.4-0.6-2c-0.6-0.6-1.4-1.1-2.2-1.4c-0.8-0.1-1.5,0-2.3,0.2l-0.4,0.1h-0.2c-0.4,0.1-0.8,0-1.1-0.1
		c0.2-0.1,0.4-0.3,0.5-0.5v-0.4c-0.1-0.5-0.7-0.8-1.2-0.6c-0.1,0-0.1,0-0.2,0.1H55c-0.3-0.1-0.6-0.3-0.7-0.6l0.4-0.2
		c0.1-0.1,0.1-0.2,0.1-0.3c-0.1-0.1-0.2-0.1-0.3-0.1c0,0,0,0,0,0l-0.4,0.2c0-0.1,0-0.2,0-0.3c0.1-0.2,0.2-0.4,0.4-0.4
		c0,0,0.1-0.1,0.1-0.1c0,0,0.2-0.7,1.7-1.5l0.9-0.5c0.9-0.6,1.9-1,2.9-1.4l2.4-0.3l0.7-0.3c1-0.6,2-1,3.1-1.2
		c0.1,0,6.8-2.9,11.5,2.8C79.1,102.3,79.6,104.4,79.4,106.5"/>
	<path class="st0" d="M59.9,100.6c-0.2-0.1-0.5-0.1-0.7,0c-0.4,0.1-0.5,0.6-0.3,0.7c0.2,0.1,0.4-0.1,0.4-0.2c0.1,0,0.2,0,0.3,0
		c0.1,0.1,0.1,0.2,0.1,0.2s0,0.3,0.2,0.3C60.2,101.7,60.5,101,59.9,100.6"/>
	<path class="st0" d="M56.2,103.5c-0.3,0.6,0.5,1.4,0.7,1.3c0.3-0.1-0.3-0.7-0.2-1s1.5-0.9,1.5-1.1
		C58.2,102.4,56.5,102.9,56.2,103.5"/>
	<path class="st0" d="M56.6,102.7h0.2c0.2-0.1,0.2-0.2,0.2-0.4c-0.1-0.2-0.2-0.2-0.4-0.2c0,0,0,0,0,0h-0.2c-0.2,0.1-0.2,0.2-0.2,0.4
		C56.3,102.7,56.4,102.8,56.6,102.7"/>
	<path class="st0" d="M66.1,99.4c-0.1-0.1-0.2-0.1-0.3-0.1l-1.7,0.6c-0.1,0.1-0.2,0.3-0.1,0.4c0.1,0.1,0.3,0.3,0.4,0.2l1.6-0.9
		C66.1,99.6,66.1,99.5,66.1,99.4"/>
	<path class="st0" d="M66.2,101.2c0.1,0,0.1-0.1,0.1-0.2c0,0,0,0,0,0c0-0.1-0.1-0.1-0.2-0.1l-1.3,0.2c-0.2,0.1-0.2,0.2-0.2,0.4
		c0,0.2,0.2,0.3,0.4,0.3L66.2,101.2z"/>
	<path class="st0" d="M66.2,102.4h-1c-0.2,0-0.3,0.2-0.2,0.3c0,0.1,0.1,0.3,0.3,0.3l1-0.2c0.1,0,0.2-0.1,0.1-0.2
		C66.3,102.5,66.3,102.4,66.2,102.4"/>
	<path class="st0" d="M65.9,103.9l-0.8-0.2c-0.1,0-0.3,0.1-0.3,0.3c0,0,0,0,0,0c0,0.1,0.1,0.3,0.2,0.3H66c0.1,0,0.2-0.1,0.2-0.2
		c0,0,0,0,0,0C66.1,104,66,104,65.9,103.9"/>
	<path class="st0" d="M73,98.5c-0.2,0-0.3,0.1-0.4,0.2c0,0.2,0.1,0.3,0.2,0.4c0,0,0,0,0,0c0,0,0.9,0.3,1.6,0.6
		c0.1,0.1,0.3,0,0.3-0.1c0.1-0.1,0-0.3-0.1-0.3C74.1,99,73.6,98.7,73,98.5"/>
	<path class="st0" d="M73.3,99.9c-0.1-0.1-0.3,0-0.4,0.2c-0.1,0.1,0,0.3,0.2,0.4c0,0,0.1,0,0.1,0c0.4,0.1,0.8,0.2,1.1,0.4
		c0.1,0,0.2,0,0.3-0.1c0.1-0.1,0-0.2-0.1-0.3C74.1,100.3,73.7,100.1,73.3,99.9"/>
	<path class="st0" d="M73.4,101.3c-0.1,0-0.2,0.1-0.3,0.2c0,0.1,0,0.2,0.2,0.3c0,0,0,0,0,0c0,0,0.6,0.2,0.8,0.3c0.1,0,0.2,0,0.3-0.1
		c0.1-0.1,0-0.2-0.1-0.3c0,0,0,0,0,0C74,101.5,73.7,101.4,73.4,101.3"/>
	<path class="st0" d="M73.3,102.5c-0.1,0-0.2,0-0.3,0.1c0,0.1,0,0.2,0.1,0.2c0,0,0.4,0.1,0.5,0.1c0.1,0,0.2,0,0.2-0.1c0,0,0,0,0,0
		c0-0.1,0-0.2-0.1-0.2c0,0,0,0,0,0C73.7,102.6,73.5,102.5,73.3,102.5"/>
	<path class="st0" d="M77.4,101.7c-0.3-0.3-0.6-0.6-1-0.8c-0.1-0.1-0.3,0-0.4,0.1c-0.1,0.1,0,0.3,0.1,0.4c0.3,0.2,0.7,0.4,0.9,0.6
		c0.1,0.1,0.3,0.1,0.4,0C77.5,102,77.5,101.8,77.4,101.7C77.4,101.7,77.4,101.7,77.4,101.7"/>
	<path class="st0" d="M76.2,102.3c-0.1-0.1-0.3,0-0.4,0.1c-0.1,0.1,0,0.3,0.1,0.4l0,0c0.2,0.1,0.5,0.2,0.7,0.4
		c0.1,0.1,0.2,0.1,0.3,0c0.1-0.1,0.1-0.2,0-0.3c0,0,0,0,0,0C76.3,102.4,76.2,102.3,76.2,102.3"/>
	<path class="st0" d="M75.8,103.5c-0.1-0.1-0.2,0-0.3,0.1c-0.1,0.1,0,0.2,0.1,0.3c0.1,0.1,0.3,0.2,0.4,0.3c0.1,0.1,0.2,0.1,0.3,0
		c0.1-0.1,0.1-0.2,0-0.3C76.1,103.7,75.9,103.6,75.8,103.5"/>
	<path class="st0" d="M75.3,104.4c-0.1-0.1-0.2-0.1-0.3,0c-0.1,0.1-0.1,0.2,0,0.3c0.1,0,0.2,0.1,0.2,0.1c0.1,0.1,0.2,0.1,0.3,0
		c0.1-0.1,0.1-0.2,0-0.3c0,0,0,0,0,0C75.4,104.5,75.4,104.4,75.3,104.4"/>
	<path class="st0" d="M78.2,104.6c0.1,0.1,0.2,0.1,0.3,0.1c0.1-0.1,0.1-0.2,0.1-0.3c-0.1-0.1-0.2-0.3-0.3-0.4
		c-0.1-0.1-0.2-0.1-0.3,0c-0.1,0.1-0.1,0.2,0,0.3c0,0,0,0,0,0C78,104.4,78.1,104.5,78.2,104.6"/>
	<path class="st0" d="M77.6,104.9c-0.1-0.1-0.2-0.1-0.3,0c-0.1,0.1-0.1,0.2,0,0.3c0,0,0,0,0,0c0,0,0.1,0.1,0.1,0.1
		c0.1,0.1,0.2,0.1,0.3,0.1c0.1-0.1,0.1-0.2,0-0.3C77.7,105,77.6,104.9,77.6,104.9"/>
	<path class="st0" d="M90.4,82h-1.1l-1.1-0.8c-0.1-0.1-0.1-0.1-0.2-0.1h-1.5c-0.3,0-0.7-0.2-0.9-0.4c-0.7-0.6-1.6-0.9-2.5-0.9
		c-1-0.1-1.9,0.3-2.5,1c-0.6-0.7-1.6-1.1-2.5-1c-0.9,0-1.8,0.3-2.5,0.9c-0.2,0.2-0.6,0.4-0.9,0.4h-1.6c-0.1,0-0.2,0-0.2,0.1L71.6,82
		h-1.1c-0.2,0-0.3,0.1-0.3,0.3v10.6c0,0.2,0.1,0.3,0.3,0.3h8.2c0.4,0.3,0.8,0.5,1.3,0.6c0.4,0.1,0.8,0.1,1.1,0
		c0.5-0.1,0.9-0.3,1.2-0.6h8.2c0.2,0,0.3-0.1,0.3-0.3V82.3C90.8,82.1,90.6,82,90.4,82 M80.8,81.4c0,0,0.3-1,2.2-1
		c0.8,0,1.6,0.3,2.1,0.8c0.3,0.3,0.8,0.5,1.3,0.5h1.2v8.6h-1.4c-0.5,0-0.9-0.2-1.4-0.4c-0.7-0.3-1.4-0.5-2.2-0.6
		c-0.8,0-1.5,0.3-2,0.9L80.8,81.4z M73.2,81.7h1.2c0.5,0,0.9-0.2,1.3-0.5c0.6-0.5,1.4-0.8,2.2-0.8c1.9,0,2.2,1.1,2.2,1.1
		c0,0.1,0,8,0,8.7c-0.5-0.5-1.3-0.8-2-0.9c-0.8,0-1.5,0.2-2.2,0.6c-0.4,0.2-0.9,0.4-1.4,0.4h-1.3V81.7z M72,82.4l0.7-0.4v8.7
		c0,0.2,0.1,0.3,0.3,0.3h1.5c0.6,0,1.1-0.2,1.6-0.5c0.6-0.3,1.3-0.5,2-0.5c0.7,0.1,1.3,0.4,1.8,0.9c0.1,0.1,0.1,0.1,0.2,0.1h0.6
		c0.1,0,0.2,0,0.2-0.1c0.5-0.5,1.1-0.8,1.8-0.9c0.7,0,1.4,0.2,2,0.5c0.5,0.3,1.1,0.4,1.6,0.5h1.5c0.2,0,0.3-0.1,0.3-0.3V82l0.7,0.4
		v8.8h-6.9c-0.1,0-0.2,0-0.2,0.1c-0.3,0.3-0.7,0.5-1.1,0.6h-0.3c-0.4-0.1-0.8-0.3-1.1-0.6c-0.1-0.1-0.1-0.1-0.2-0.1H72V82.4
		 M90.1,92.6h-8c-0.1,0-0.2,0-0.2,0.1c-0.3,0.3-0.6,0.5-1,0.5c-0.3,0-0.6,0-0.9,0c-0.4-0.1-0.7-0.3-1-0.5c-0.1-0.1-0.1-0.1-0.2-0.1
		h-8v-10h0.6v9c0,0.2,0.1,0.3,0.3,0.3c0,0,0,0,0,0h7.1c0.4,0.4,0.9,0.6,1.4,0.7h0.4c0.5-0.1,1-0.3,1.4-0.6h7.1
		c0.2,0,0.3-0.1,0.3-0.3v-9h0.6L90.1,92.6"/>
	<path class="st0" d="M74.6,83.3c0.5,0,1-0.1,1.4-0.4l0.5-0.2l1-0.4c0.4-0.1,0.9-0.1,1.3,0c-0.1,0-0.1-0.1-0.1-0.2
		c0-0.1,0.1-0.1,0.2-0.1c0,0,0,0,0,0c-0.5-0.1-1-0.1-1.5,0l-1,0.4l-0.5,0.2c-0.4,0.2-0.8,0.3-1.3,0.3c-0.1,0-0.1,0.1-0.1,0.1
		c0,0,0,0,0,0C74.5,83.2,74.5,83.3,74.6,83.3"/>
	<path class="st0" d="M74.6,85.1c0.5,0,1-0.1,1.4-0.3l0.5-0.2l0.9-0.4c0.4-0.1,0.9-0.1,1.3,0c0.1,0,0.1,0,0.2-0.1c0,0,0,0,0,0
		c0-0.1,0-0.1-0.1-0.2c-0.5-0.1-1-0.1-1.5,0l-1,0.4l-0.5,0.2c-0.4,0.2-0.8,0.3-1.3,0.3c-0.1,0-0.1,0.1-0.1,0.1c0,0,0,0,0,0
		C74.4,85.1,74.5,85.1,74.6,85.1C74.6,85.1,74.6,85.1,74.6,85.1"/>
	<path class="st0" d="M74.6,87c0.5,0,1-0.1,1.4-0.4l0.5-0.2l1-0.4c0.4-0.1,0.9-0.1,1.3,0c0.1,0,0.1,0,0.2-0.1c0-0.1,0-0.1-0.1-0.2
		c-0.5-0.1-1-0.1-1.5,0l-1,0.4l-0.5,0.2c-0.4,0.2-0.8,0.3-1.3,0.3c-0.1,0-0.1,0.1-0.1,0.1c0,0,0,0,0,0C74.5,86.9,74.5,86.9,74.6,87"
		/>
	<path class="st0" d="M76,88.4l0.5-0.2l1-0.4c0.4-0.1,0.9-0.1,1.3,0c-0.1,0-0.1,0-0.2-0.1c0-0.1,0-0.1,0.1-0.2c0,0,0.1,0,0.1,0
		c-0.5-0.1-1-0.1-1.5,0l-1,0.4l-0.5,0.2c-0.4,0.2-0.8,0.3-1.3,0.3c-0.1,0-0.1,0.1-0.1,0.1c0,0,0,0,0,0c0,0.1,0.1,0.1,0.1,0.1
		c0,0,0,0,0,0C75.1,88.8,75.5,88.6,76,88.4"/>
	<path class="st0" d="M82,82.3c0.4-0.1,0.9-0.1,1.3,0l0.9,0.4l0.5,0.2c0.4,0.2,0.9,0.3,1.4,0.4c0.1,0,0.1,0,0.1-0.1c0,0,0,0,0,0
		c0-0.1-0.1-0.1-0.1-0.1c0,0,0,0,0,0c-0.4,0-0.9-0.1-1.3-0.3l-0.5-0.2l-1-0.4c-0.5-0.1-1-0.1-1.5,0c-0.1,0-0.1,0.1-0.1,0.2
		C81.8,82.3,81.9,82.3,82,82.3"/>
	<path class="st0" d="M82,84.1c0.4-0.1,0.9-0.1,1.3,0l0.9,0.4l0.5,0.2c0.4,0.2,0.9,0.3,1.4,0.3c0.1,0,0.1,0,0.1-0.1c0,0,0,0,0,0
		c0-0.1-0.1-0.1-0.1-0.1c-0.4,0-0.9-0.1-1.3-0.3l-0.5-0.2l-1-0.4c-0.5-0.1-1-0.1-1.5,0c-0.1,0-0.1,0.1-0.1,0.2c0,0,0,0,0,0
		C81.8,84.1,81.9,84.1,82,84.1"/>
	<path class="st0" d="M82,85.9c0.4-0.1,0.9-0.1,1.3,0l0.9,0.4l0.5,0.3c0.4,0.2,0.9,0.3,1.4,0.3c0.1,0,0.1,0,0.1-0.1c0,0,0,0,0,0
		c0-0.1,0-0.1-0.1-0.1c0,0,0,0,0,0c-0.4,0-0.9-0.1-1.3-0.3l-0.5-0.2l-1-0.4c-0.5-0.1-1-0.1-1.5,0c-0.1,0-0.1,0.1-0.1,0.2
		C81.8,85.9,81.9,86,82,85.9"/>
	<path class="st0" d="M84.2,88.2l0.5,0.3c0.4,0.2,0.9,0.3,1.4,0.4c0.1,0,0.1-0.1,0.1-0.1c0,0,0,0,0,0c0-0.1-0.1-0.1-0.1-0.1
		c0,0,0,0,0,0c-0.4,0-0.9-0.1-1.3-0.3l-0.5-0.2l-1-0.4c-0.5-0.1-1-0.1-1.5,0c-0.1,0-0.1,0.1-0.1,0.2c0,0,0,0,0,0
		c0,0.1,0.1,0.1,0.2,0.1c0.4-0.1,0.9-0.1,1.3,0L84.2,88.2z"/>
	<path class="st0" d="M49.8,83.3c0.5,0,1-0.1,1.4-0.4l0.5-0.2l0.9-0.4c0.4-0.1,0.9-0.1,1.3,0c-0.1,0-0.1-0.1-0.1-0.2
		c0-0.1,0.1-0.1,0.2-0.1c0,0,0,0,0,0c-0.5-0.1-1-0.1-1.5,0l-1,0.4l-0.5,0.2c-0.4,0.2-0.8,0.3-1.3,0.3c-0.1,0-0.1,0.1-0.1,0.1
		c0,0,0,0,0,0C49.7,83.2,49.8,83.3,49.8,83.3"/>
	<path class="st0" d="M49.8,85.1c0.5,0,0.9-0.1,1.4-0.3l0.5-0.2l0.9-0.4c0.4-0.1,0.9-0.1,1.3,0c0.1,0,0.2,0,0.2-0.1
		c0-0.1,0-0.1-0.1-0.2c-0.5-0.1-1-0.1-1.5,0l-1,0.4l-0.5,0.2c-0.4,0.2-0.8,0.3-1.3,0.3c-0.1,0-0.1,0.1-0.1,0.1c0,0,0,0,0,0
		C49.7,85.1,49.7,85.1,49.8,85.1C49.8,85.1,49.8,85.1,49.8,85.1"/>
	<path class="st0" d="M49.8,87c0.5,0,1-0.1,1.4-0.4l0.5-0.2l0.9-0.4c0.4-0.1,0.9-0.1,1.3,0c0.1,0,0.1,0,0.2-0.1c0-0.1,0-0.1-0.1-0.2
		c-0.5-0.1-1-0.1-1.5,0l-1,0.4l-0.5,0.2c-0.4,0.2-0.8,0.3-1.3,0.3c-0.1,0-0.1,0.1-0.1,0.1c0,0,0,0,0,0C49.7,86.9,49.8,86.9,49.8,87"
		/>
	<path class="st0" d="M49.8,88.8c0.5,0,0.9-0.2,1.4-0.4l0.5-0.3l0.9-0.4c0.4-0.1,0.9-0.1,1.3,0c-0.1,0-0.1-0.1-0.1-0.1c0,0,0,0,0,0
		c0-0.1,0.1-0.1,0.2-0.1c-0.5-0.1-1-0.1-1.5,0l-1,0.4l-0.5,0.2c-0.4,0.2-0.8,0.3-1.3,0.4c-0.1,0-0.1,0.1-0.1,0.1c0,0,0,0,0,0
		C49.7,88.8,49.8,88.8,49.8,88.8C49.8,88.8,49.8,88.8,49.8,88.8"/>
	<path class="st0" d="M57.3,82.1c0,0.1,0,0.1-0.1,0.2c0.4-0.1,0.9-0.1,1.3,0l1,0.4l0.5,0.2c0.4,0.2,0.9,0.3,1.4,0.4
		c0.1,0,0.1-0.1,0.1-0.1c0,0,0,0,0,0c0-0.1-0.1-0.1-0.1-0.1c-0.4,0-0.9-0.1-1.3-0.3l-0.5-0.2l-1-0.4c-0.5-0.1-1-0.1-1.5,0
		C57.2,82.1,57.3,82.1,57.3,82.1C57.3,82.2,57.3,82.2,57.3,82.1"/>
	<path class="st0" d="M57.2,84.1c0.4-0.1,0.9-0.1,1.3,0l0.9,0.4l0.5,0.2c0.4,0.2,0.9,0.3,1.4,0.3c0.1,0,0.1,0,0.1-0.1c0,0,0,0,0,0
		c0-0.1-0.1-0.1-0.1-0.1c-0.4,0-0.9-0.1-1.3-0.3l-0.5-0.2l-1-0.4c-0.5-0.1-1-0.1-1.5,0C57,83.9,57,84,57,84c0,0,0,0,0,0
		C57,84.1,57.1,84.2,57.2,84.1C57.2,84.1,57.2,84.1,57.2,84.1"/>
	<path class="st0" d="M58.5,86l1,0.4l0.5,0.2c0.4,0.2,0.9,0.3,1.4,0.4c0.1,0,0.1,0,0.1-0.1c0,0,0,0,0,0c0-0.1,0-0.1-0.1-0.1
		c0,0,0,0,0,0c-0.4,0-0.9-0.1-1.3-0.3l-0.5-0.2l-1-0.4c-0.5-0.1-1-0.1-1.5,0c-0.1,0-0.1,0.1-0.1,0.2c0,0.1,0.1,0.1,0.2,0.1
		C57.6,85.9,58.1,85.9,58.5,86"/>
	<path class="st0" d="M59.5,88.2l0.5,0.3c0.4,0.2,0.9,0.3,1.4,0.4c0.1,0,0.1-0.1,0.1-0.1c0-0.1-0.1-0.1-0.1-0.1
		c-0.4,0-0.9-0.1-1.3-0.3l-0.5-0.2l-1-0.4c-0.5-0.1-1-0.1-1.5,0c0.1,0,0.1,0,0.2,0.1c0,0.1,0,0.1-0.1,0.2c0,0,0,0,0,0
		c0.4-0.1,0.9-0.1,1.3,0L59.5,88.2z"/>
	<path class="st0" d="M65.6,82h-1.1l-1.1-0.8c-0.1,0-0.1-0.1-0.2-0.1h-1.6c-0.3,0-0.6-0.2-0.9-0.4c-0.7-0.6-1.6-0.9-2.5-0.9
		c-1-0.1-1.9,0.3-2.5,1c-0.6-0.7-1.6-1.1-2.5-1c-0.9,0-1.8,0.3-2.5,0.9c-0.2,0.2-0.6,0.4-0.9,0.4h-1.5c-0.1,0-0.2,0-0.2,0.1L46.8,82
		h-1.2c-0.2,0-0.3,0.1-0.3,0.3v10.6c0,0.2,0.1,0.3,0.3,0.3h8.2c0.4,0.3,0.8,0.5,1.3,0.6c0.4,0.1,0.8,0.1,1.1,0
		c0.5-0.1,0.9-0.3,1.2-0.6h8.2c0.2,0,0.3-0.1,0.3-0.3c0,0,0,0,0,0V82.3C65.9,82.1,65.7,82,65.6,82C65.6,82,65.6,82,65.6,82
		 M55.9,81.5c0,0,0.3-1,2.2-1c0.8,0,1.6,0.3,2.2,0.8c0.3,0.3,0.8,0.5,1.3,0.5h1.2v8.6h-1.2c-0.5,0-0.9-0.2-1.4-0.4
		c-0.7-0.4-1.5-0.6-2.3-0.6c-0.8,0-1.5,0.3-2,0.9L55.9,81.5z M48.4,81.7h1.2c0.5,0,0.9-0.2,1.3-0.5c0.6-0.5,1.4-0.8,2.1-0.8
		c1.9,0,2.2,1.1,2.3,1.1c0.1,0.1,0,8,0,8.7c-0.6-0.5-1.3-0.8-2.1-0.9c-0.8,0-1.5,0.2-2.2,0.6c-0.4,0.2-0.9,0.4-1.4,0.4h-1.3V81.7z
		 M47.1,82.4l0.7-0.4v8.7c0,0.2,0.1,0.3,0.3,0.3h1.5c0.6,0,1.1-0.2,1.6-0.5c0.6-0.3,1.3-0.5,2-0.5c0.7,0.1,1.3,0.4,1.8,0.9
		c0.1,0.1,0.1,0.1,0.2,0.1h0.6c0.1,0,0.2,0,0.2-0.1c0.4-0.5,1.1-0.8,1.8-0.9c0.7,0,1.4,0.2,2,0.5c0.5,0.3,1,0.4,1.6,0.5H63
		c0.2,0,0.3-0.1,0.3-0.3V82l0.7,0.4v8.8h-6.9c-0.1,0-0.2,0-0.2,0.1c-0.3,0.3-0.7,0.5-1.1,0.6h-0.3c-0.4-0.1-0.8-0.3-1.1-0.6
		c-0.1-0.1-0.1-0.1-0.2-0.1h-6.9C47.1,90.7,47.1,82.8,47.1,82.4 M65.3,92.6h-8c-0.1,0-0.2,0-0.2,0.1c-0.3,0.3-0.6,0.5-1,0.5
		c-0.3,0-0.6,0-0.9,0c-0.4-0.1-0.7-0.2-1-0.5c-0.1-0.1-0.1-0.1-0.2-0.1h-8v-10h0.6v9c0,0.2,0.1,0.3,0.3,0.3H54
		c0.4,0.4,0.9,0.6,1.5,0.6h0.4c0.5-0.1,1-0.3,1.3-0.6h7.1c0.2,0,0.3-0.1,0.3-0.3v-9h0.6L65.3,92.6"/>
	<path class="st0" d="M68,72.1c-3.9,0-8.1,0.9-8.1,2.7c0,0.8,0.9,1.4,2.2,1.9c0.1,0,0.5,0.2,0.6,0.1c-0.2-0.1-0.3-0.2-0.5-0.2
		c-1.1-0.5-1.6-1.2-1.6-1.7c0-1,3.2-2.1,7.4-2.1c4.3,0,7.4,1.1,7.4,2.1c0,0.5-0.4,1.1-1.6,1.7c-0.2,0.1-0.3,0.1-0.5,0.2
		c0,0.1,0.5-0.1,0.5-0.1c1.3-0.4,2.2-1.1,2.2-1.9C76,73,71.9,72.1,68,72.1"/>
	<path class="st0" d="M77.2,69.1c-0.5,0.7-0.9,1.4-1.2,2.2l0,0l0,0c-0.4-0.2-0.8-0.4-1.3-0.6c-2.2-0.7-4.4-1-6.7-1l0,0
		c-2.3,0-4.5,0.3-6.6,1c-0.4,0.2-0.9,0.4-1.3,0.6l0,0l0,0c-0.3-0.8-0.7-1.5-1.2-2.2c0-0.1-0.1-0.1-0.1,0c-0.1,0-0.1,0.1,0,0.1
		c0.4,0.8,0.7,1.6,0.9,2.5c0,0.2,0,0.3,0.2,0.4c0.1,0,0.2,0,0.3,0c0.5-0.3,1-0.6,1.6-0.8c2.1-0.7,4.2-1,6.4-1l0,0
		c2.2,0,4.4,0.3,6.4,1c0.6,0.2,1.1,0.5,1.6,0.8c0.1,0,0.2,0,0.3,0c0.2-0.1,0.2-0.2,0.2-0.4c0.1-0.9,0.4-1.7,0.8-2.5
		C77.4,69.1,77.3,69,77.2,69.1"/>
	<path class="st0" d="M68,70.6c0.3,0,0.6,0.2,0.6,0.5c0,0.3-0.2,0.6-0.5,0.6c-0.3,0-0.6-0.2-0.6-0.5c0,0,0,0,0,0
		C67.5,70.9,67.7,70.7,68,70.6C68,70.6,68,70.6,68,70.6"/>
	<path class="st0" d="M64.1,71c0.3,0,0.6,0.3,0.6,0.6c0,0.3-0.3,0.6-0.6,0.6c-0.3,0-0.6-0.3-0.6-0.6C63.6,71.2,63.8,71,64.1,71"/>
	<path class="st0" d="M60.5,72.2c0.3,0,0.5,0.2,0.5,0.5c0,0.3-0.2,0.5-0.5,0.5c-0.3,0-0.5-0.2-0.5-0.5S60.2,72.2,60.5,72.2
		L60.5,72.2"/>
	<path class="st0" d="M62.3,71.7c0.2,0,0.3,0.1,0.3,0.3c0,0.2-0.1,0.3-0.3,0.3c-0.2,0-0.3-0.1-0.3-0.3C62,71.8,62.1,71.7,62.3,71.7
		C62.3,71.7,62.3,71.7,62.3,71.7"/>
	<path class="st0" d="M66.1,71c0.2,0,0.3,0.1,0.3,0.3s-0.1,0.3-0.3,0.3c-0.2,0-0.3-0.1-0.3-0.3S65.9,71,66.1,71"/>
	<path class="st0" d="M71.9,71c0.3,0,0.6,0.3,0.6,0.6c0,0.3-0.3,0.6-0.6,0.6l0,0c-0.3,0-0.6-0.3-0.6-0.6C71.3,71.2,71.6,71,71.9,71"
		/>
	<path class="st0" d="M75.5,72.2c0.3,0,0.5,0.2,0.5,0.5c0,0.3-0.2,0.5-0.5,0.5c-0.3,0-0.5-0.2-0.5-0.5C75,72.4,75.2,72.2,75.5,72.2
		C75.5,72.2,75.5,72.2,75.5,72.2"/>
	<path class="st0" d="M73.7,71.7c0.2,0,0.3,0.1,0.3,0.3c0,0,0,0,0,0c0,0.2-0.1,0.3-0.3,0.3c-0.2,0-0.3-0.1-0.3-0.3
		C73.4,71.8,73.6,71.7,73.7,71.7"/>
	<path class="st0" d="M69.9,71c0.2,0,0.3,0.1,0.3,0.3s-0.1,0.3-0.3,0.3s-0.3-0.1-0.3-0.3S69.8,71,69.9,71"/>
	<path class="st0" d="M68,64.5c0.3,0,0.6,0.2,0.6,0.6c0,0.3-0.2,0.6-0.6,0.6c-0.3,0-0.6-0.2-0.6-0.6c0,0,0,0,0,0
		C67.5,64.8,67.7,64.5,68,64.5"/>
	<path class="st0" d="M68,62.9c0.3,0,0.6,0.2,0.6,0.6c0,0.3-0.2,0.6-0.6,0.6c-0.3,0-0.6-0.2-0.6-0.6c0,0,0,0,0,0
		C67.5,63.2,67.7,62.9,68,62.9"/>
	<path class="st0" d="M68,61.4c0.3,0,0.6,0.2,0.6,0.6c0,0.3-0.2,0.6-0.6,0.6c-0.3,0-0.6-0.2-0.6-0.6c0,0,0,0,0,0
		C67.5,61.6,67.7,61.4,68,61.4"/>
	<path class="st0" d="M65.3,61.5c0.3,0,0.6,0.2,0.6,0.5c0,0,0,0,0,0c0,0.3-0.3,0.6-0.6,0.6s-0.6-0.3-0.6-0.6
		C64.7,61.8,65,61.5,65.3,61.5C65.3,61.5,65.3,61.5,65.3,61.5"/>
	<path class="st0" d="M63.5,60.9c0.3,0,0.6,0.2,0.6,0.6c0,0.3-0.2,0.6-0.6,0.6c-0.3,0-0.6-0.2-0.6-0.6c0,0,0,0,0,0
		C62.9,61.2,63.2,60.9,63.5,60.9"/>
	<path class="st0" d="M61.6,60.5c0.3,0,0.6,0.2,0.6,0.5c0,0,0,0,0,0c0,0.3-0.3,0.6-0.6,0.6c-0.3,0-0.6-0.3-0.6-0.6
		C61,60.8,61.3,60.5,61.6,60.5L61.6,60.5"/>
	<path class="st0" d="M59.7,60.8c0.3,0,0.6,0.2,0.6,0.6c0,0.3-0.2,0.6-0.6,0.6c-0.3,0-0.6-0.2-0.6-0.6c0,0,0,0,0,0
		C59.1,61,59.4,60.8,59.7,60.8"/>
	<path class="st0" d="M58,61.8c0.3,0,0.6,0.2,0.6,0.6c0,0.3-0.2,0.6-0.6,0.6c-0.3,0-0.6-0.2-0.6-0.6c0,0,0,0,0,0
		C57.5,62.1,57.7,61.8,58,61.8"/>
	<path class="st0" d="M57.1,63.5c0.3,0,0.6,0.2,0.6,0.6c0,0.3-0.2,0.6-0.6,0.6c-0.3,0-0.6-0.2-0.6-0.6c0,0,0,0,0,0
		C56.5,63.8,56.8,63.5,57.1,63.5"/>
	<path class="st0" d="M57.1,65.5c0.3,0,0.6,0.3,0.6,0.6c0,0.3-0.3,0.6-0.6,0.6c-0.3,0-0.6-0.3-0.6-0.6
		C56.5,65.7,56.8,65.5,57.1,65.5"/>
	<path class="st0" d="M57.8,67.3c0.3,0,0.6,0.2,0.6,0.6c0,0.3-0.2,0.6-0.6,0.6c-0.3,0-0.6-0.2-0.6-0.6c0,0,0,0,0,0
		C57.2,67.5,57.5,67.3,57.8,67.3C57.8,67.3,57.8,67.3,57.8,67.3"/>
	<path class="st0" d="M74.4,75.3c0-1.4-4.2-1.7-6.4-1.7c-2.2,0-6.4,0.4-6.4,1.7c0,1.4,4.2,1.7,6.4,1.7C70.2,77,74.4,76.6,74.4,75.3
		 M68,76.4c-3.8,0-5.8-0.8-5.8-1.1c0-0.4,2-1.1,5.8-1.1c3.8,0,5.8,0.8,5.8,1.1C73.8,75.6,71.8,76.4,68,76.4"/>
	<path class="st0" d="M67.1,60.2h0.6v0.6c0,0.2,0.1,0.3,0.3,0.3c0.2,0,0.3-0.1,0.3-0.3v-0.6h0.6c0.2,0,0.3-0.1,0.3-0.3
		c0-0.2-0.1-0.3-0.3-0.3h-0.6V59c0-0.2-0.1-0.3-0.3-0.3c-0.2,0-0.3,0.1-0.3,0.3v0.6h-0.6c-0.2,0-0.3,0.1-0.3,0.3
		C66.8,60.1,66.9,60.2,67.1,60.2"/>
	<path class="st0" d="M59.8,69.3L59.8,69.3L59.8,69.3L59.8,69.3c0.4,0.7,1.1,1,1.9,0.7c0.5-0.1,0.9-0.2,1.1-0.8c0.2-0.3,0.2-0.7,0-1
		c-0.1-0.1-0.3-0.2-0.4-0.2c-0.1,0.1-0.1,0.2,0,0.3c0,0,0,0,0,0c0.1,0.2,0.1,0.5-0.1,0.6c0,0,0,0,0,0c-0.2,0.1-0.4,0-0.4-0.1
		s0.3-0.3,0-0.5c-0.3-0.3-0.8-0.8,0-1.1C62.5,67,63,67.9,63,68c0,0.1,0.1,0.1,0.1,0c-0.1-0.6-0.6-0.8-0.8-1.5
		c-0.1-0.4,0.1-0.9,0.4-1.1c0.1,0,0.2,0,0.3,0c0.4,0.1,0.7,0.4,0.8,0.8c0.1,0.7-0.3,1.1-0.1,1.7c0,0.1,0.1,0.1,0.1,0
		c0-0.1,0.1-1.1,0.8-1.1c0.9,0,0.6,0.8,0.4,1.1c-0.1,0.3,0.2,0.4,0.2,0.4s-0.1,0.3-0.3,0.2c-0.2,0-0.3-0.2-0.3-0.4
		c0-0.1,0-0.3-0.2-0.3c-0.1,0-0.3,0.2-0.3,0.3c-0.1,0.4,0,0.7,0.3,1c0.5,0.3,1,0.4,1.5,0.3c1.3-0.1,1.3-0.9,1.3-0.9
		c-0.3,0.1-0.8,0.3-0.8,0.3h-0.1c-0.1,0-0.2-0.1-0.2-0.2v-1.3c0-0.1,0.1-0.2,0.2-0.2h0.1l0.9,0.3l-0.2-0.7c0,0,0,0,0-0.1
		c0-0.1,0.1-0.2,0.2-0.2c0,0,0,0,0,0h1.4c0.1,0,0.2,0.1,0.2,0.2c0,0,0,0,0,0.1l-0.3,0.7l0.9-0.3h0.1c0.1,0,0.2,0.1,0.2,0.2v1.2
		c0,0.1-0.1,0.2-0.2,0.2h-0.1c0,0-0.6-0.2-0.8-0.3c0,0,0.1,0.8,1.3,0.9c0.5,0.1,1.1,0,1.5-0.3c0.3-0.2,0.4-0.6,0.3-1
		c0-0.1-0.2-0.3-0.3-0.3c-0.1,0-0.2,0.1-0.2,0.3c0,0,0,0,0,0.1c0,0.2-0.1,0.4-0.3,0.5c0,0-0.1,0-0.1,0c-0.2,0-0.4-0.2-0.3-0.2
		c0-0.1,0.4-0.1,0.2-0.4c-0.2-0.3-0.5-1,0.4-1.1c0.7,0,0.8,0.9,0.8,1.1c0,0.2,0.1,0.1,0.1,0c0.1-0.6-0.3-1-0.1-1.7
		c0.1-0.4,0.4-0.7,0.8-0.8c0.1,0,0.2,0,0.3,0c0.3,0.3,0.5,0.7,0.5,1.1c-0.1,0.7-0.7,0.9-0.8,1.5c0,0.1,0,0.2,0.1,0
		c0.1-0.2,0.5-1,1.1-0.7c0.6,0.3,0.2,1,0,1.1c-0.2,0.2,0,0.5,0,0.5s-0.2,0.2-0.4,0.1c-0.2-0.1-0.3-0.3-0.2-0.5c0,0,0,0,0-0.1
		c0.1-0.1,0.1-0.2,0-0.3c0,0,0,0,0,0c-0.1,0-0.3,0.1-0.4,0.2c-0.2,0.3-0.2,0.7,0,1c0.3,0.4,0.7,0.7,1.1,0.8c0.7,0.3,1.5,0,1.9-0.7
		l0,0l0,0l0,0c0.6-0.8,2-2.7,2-4.4c-0.1-1.7-1.6-3.1-3.4-2.9c0,0,0,0-0.1,0c-0.8,0-1.7,0.2-2.4,0.6c-0.8,0.4-1.6,0.5-2.5,0.5v-1.8
		c0-0.2-0.1-0.3-0.3-0.3c-0.2,0-0.3,0.2-0.3,0.3v4.5h-2.3v-4.5c0-0.2-0.1-0.3-0.3-0.3c-0.2,0-0.3,0.1-0.3,0.3v1.7
		c-0.9,0-1.7-0.1-2.5-0.5c-0.8-0.3-1.6-0.5-2.5-0.6c-1.7-0.1-3.3,1.1-3.4,2.9c0,0,0,0,0,0.1C57.9,66.7,59.3,68.5,59.8,69.3
		 M72.5,63.2c0.7-0.3,1.5-0.5,2.3-0.5c1.4-0.2,2.7,0.9,2.8,2.3c0,0,0,0,0,0c0,0.5-0.1,0.9-0.3,1.4c-0.1-0.3-0.2-0.6-0.4-0.9
		c-0.6-0.7-1.5-1.1-2.5-1c-0.7-0.6-1.6-0.9-2.6-0.8h-0.3C71.8,63.4,72.1,63.3,72.5,63.2 M69.7,63.8h0.6c-0.2,0.1-0.4,0.2-0.6,0.3
		L69.7,63.8z M69.7,64.9c0.5-0.5,1.3-0.8,2-0.8c0.8,0,1.6,0.3,2.2,0.8c0.1,0.1,0.2,0.1,0.3,0.1c0.8-0.1,1.6,0.2,2.1,0.8
		c0.4,0.5,0.5,1.2,0.3,1.8l0,0c-0.1,0.2-0.2,0.3-0.3,0.5c0.1-1-0.4-1.9-1.3-2.3c0,0-0.2-0.1-0.3,0c-0.1,0.1,1.3,1.3,0.9,2.5
		c-0.1,0.5-0.5,1-1,1.1h-0.1c0.2-0.1,0.2-0.3,0.3-0.5c0-0.1,0-0.1,0-0.2l0,0c0.3-0.2,0.4-0.6,0.4-0.9v-0.1c-0.1-0.4-0.4-0.8-0.8-0.9
		l-0.2-0.1c0,0,0-0.1,0-0.1c0-0.1,0-0.2,0-0.3c0-0.6-0.3-1.2-0.8-1.5c-0.2-0.1-0.3-0.1-0.5-0.1c-0.7,0.2-1.2,0.7-1.4,1.4
		c0,0,0,0.1,0,0.1h-0.2c-0.3,0-0.6,0.1-0.9,0.3c0-0.1-0.1-0.3-0.4-0.2c0.2-0.3,0.5-0.5,0.8-0.8c0.4-0.3,0.9-0.5,0.9-0.6
		s-0.2-0.1-0.4-0.1c-0.2,0-0.4,0.1-0.6,0.2c-0.3,0.2-0.7,0.4-0.9,0.7L69.7,64.9L69.7,64.9 M65.6,66.6c-0.2-0.2-0.6-0.3-0.9-0.3h-0.2
		c0,0,0-0.1,0-0.1c-0.2-0.7-0.7-1.2-1.4-1.4c-0.2,0-0.4,0-0.5,0.1c-0.5,0.4-0.8,0.9-0.8,1.5c0,0.1,0,0.2,0,0.3v0.1l-0.2,0.1
		c-0.4,0.1-0.7,0.5-0.8,0.9c0,0,0,0.1,0,0.1c0,0.4,0.2,0.7,0.4,0.9l0,0c0,0.1,0,0.1,0,0.2c0,0.2,0.1,0.4,0.3,0.5h-0.1
		c-0.5-0.2-0.9-0.6-1-1.1C60,67,61.5,66,61.3,65.7c-0.2-0.3-0.3,0-0.3,0c-0.9,0.4-1.4,1.4-1.3,2.3c-0.1-0.2-0.2-0.3-0.3-0.5l0,0
		c-0.2-0.6-0.1-1.3,0.3-1.8c0.5-0.6,1.3-0.9,2.1-0.8c0.1,0,0.2,0,0.3-0.1c0.6-0.6,1.4-0.8,2.2-0.8c0.8-0.1,1.5,0.2,2,0.8l0,0v0.8
		c-0.3-0.3-0.6-0.5-0.9-0.7c-0.2-0.1-0.4-0.1-0.6-0.2c-0.2,0-0.4,0-0.4,0.1c0,0.1,0.5,0.3,0.9,0.6c0.3,0.2,0.5,0.5,0.8,0.8
		C65.7,66.3,65.6,66.4,65.6,66.6 M66.3,63.8v0.3c-0.2-0.1-0.4-0.2-0.6-0.3H66.3 M61.3,62.6c0.8,0.1,1.6,0.2,2.3,0.5
		c0.3,0.1,0.6,0.2,0.9,0.3h-0.3c-0.9,0-1.8,0.3-2.5,0.9c-0.9-0.1-1.9,0.3-2.5,1c-0.2,0.3-0.4,0.6-0.4,0.9c-0.2-0.4-0.3-0.9-0.3-1.4
		C58.7,63.6,59.9,62.5,61.3,62.6C61.3,62.7,61.3,62.7,61.3,62.6"/>
	<path class="st0" d="M70.7,61.5c0.3,0,0.6,0.2,0.6,0.5c0,0,0,0,0,0c0,0.3-0.3,0.6-0.6,0.6c-0.3,0-0.6-0.3-0.6-0.6
		C70.1,61.8,70.4,61.5,70.7,61.5C70.7,61.5,70.7,61.5,70.7,61.5"/>
	<path class="st0" d="M72.6,60.9c0.3,0,0.6,0.3,0.6,0.6c0,0.3-0.3,0.6-0.6,0.6c-0.3,0-0.6-0.3-0.6-0.6C72,61.2,72.3,60.9,72.6,60.9"
		/>
	<path class="st0" d="M74.4,60.5c0.3,0,0.6,0.2,0.6,0.5c0,0,0,0,0,0c0,0.3-0.3,0.6-0.6,0.6s-0.6-0.3-0.6-0.6
		C73.8,60.8,74.1,60.5,74.4,60.5L74.4,60.5"/>
	<path class="st0" d="M76.3,60.8c0.3,0,0.6,0.2,0.6,0.5c0,0.3-0.2,0.6-0.5,0.6c-0.3,0-0.6-0.2-0.6-0.5c0,0,0,0,0,0
		C75.8,61,76,60.8,76.3,60.8"/>
	<path class="st0" d="M78,61.8c0.3,0,0.6,0.2,0.6,0.6c0,0.3-0.2,0.6-0.6,0.6c-0.3,0-0.6-0.2-0.6-0.6c0,0,0,0,0,0
		C77.4,62.1,77.7,61.8,78,61.8"/>
	<path class="st0" d="M79,63.5c0.3,0,0.6,0.2,0.6,0.6c0,0.3-0.2,0.6-0.6,0.6c-0.3,0-0.6-0.2-0.6-0.6c0,0,0,0,0,0
		C78.4,63.8,78.7,63.5,79,63.5"/>
	<path class="st0" d="M78.9,65.5c0.3,0,0.6,0.2,0.6,0.6c0,0.3-0.2,0.6-0.6,0.6c-0.3,0-0.6-0.2-0.6-0.6c0,0,0,0,0,0
		C78.4,65.7,78.6,65.5,78.9,65.5"/>
	<path class="st0" d="M78.3,67.3c0.3,0,0.6,0.3,0.6,0.6s-0.3,0.6-0.6,0.6c-0.3,0-0.6-0.3-0.6-0.6S78,67.3,78.3,67.3"/>
	<path class="st0" d="M86,34.6c0-0.1,0.1-0.2,0.1-0.3c0-0.3-0.1-0.5-0.3-0.7c-0.6-0.7-1.7,0-2.2,0.3c-0.1-0.2-0.2-0.4-0.3-0.5
		c0-0.1,0-0.2,0-0.3c0-0.4-0.5-0.6-0.7-0.7l0,0c0.5,0,1.2,0,1.4-0.6v-0.4c-0.1,0,0.5,0,0.5,0c0.7,0.1,1.7,0.4,2.1-0.4
		c0.1-0.1,0.1-0.2,0.1-0.3c0-0.2-0.1-0.5-0.3-0.7v-0.1c0.3-0.2,1.1-0.6,1.1-1.4c0-0.2-0.1-0.5-0.2-0.7c-0.4-0.8-1.2-0.6-1.6-0.4
		h-0.2l0,0c0-0.1,0-0.2,0-0.3c0-0.2-0.1-0.4-0.2-0.6c-0.1-0.1-0.3-0.2-0.4-0.3c0.2-0.2,0.3-0.5,0.3-0.8c0-0.2,0-0.4-0.1-0.5
		c-0.1-0.2-0.3-0.4-0.5-0.5c-0.6-0.1-1.1,0-1.6,0.3c0-0.1-0.1-0.2-0.1-0.2c0-0.1,0.1-0.2,0.1-0.4c0-0.2,0-0.4-0.1-0.6
		c0.4-0.2,0.7-0.6,0.8-1c0-0.1,0-0.1,0-0.2c0-0.2-0.1-0.4-0.2-0.6c-0.5-0.5-1.2-0.6-1.9-0.3h-0.1c-0.1-0.3-0.4-0.6-0.8-0.6
		c-0.5-0.1-1.1,0.3-1.5,0.7l-0.2,0.1l0,0l-0.6-0.4c-0.5-0.1-1.1,0.8-1.3,1l0,0c-0.1-0.1-0.2-0.2-0.3-0.3l0.1-0.1
		c0.4-0.3,0.7-0.7,0.8-1.1l0,0c0-0.3-0.1-0.6-0.4-0.8c-0.2-0.3-0.6-0.5-1-0.5c-0.6,0-1.2,0.3-1.5,0.8l0,0c0-0.1-0.1-0.2-0.1-0.3
		c0-0.1,0-0.2,0-0.3c0-0.1,0-0.3-0.1-0.4c0-0.1-0.1-0.2-0.2-0.2c0.4-0.3,0.7-0.7,0.8-1.2c0-0.1,0-0.3-0.1-0.4
		c-0.2-0.4-0.5-0.7-1-0.7l0,0c0-0.1,0-0.3,0-0.5c0.1-0.5-0.3-1-0.8-1.1c-0.8-0.2-1.3,0.5-1.6,0.9l-0.1,0.1c-0.2-0.3-0.6-0.4-0.9-0.4
		c-0.2-0.3-0.5-0.5-0.9-0.6c-0.8-0.1-1.1,0.8-1.3,1.4l-0.1,0.3h-0.1c-0.3-0.1-0.6-0.1-0.9,0.1c-0.3,0.1-0.4,0.4-0.4,0.7
		c0.1,0.5,0.2,1,0.5,1.4l0.1,0.2c-0.3,0-0.6,0.2-0.8,0.4c-0.1,0.1-0.1,0.3-0.2,0.4l-0.1-0.1c0.1-0.5,0.3-2.2,0-2.6
		c-0.1-0.1-0.3-0.2-0.4-0.2c-0.1,0-0.1,0.1-0.2,0.1c0-0.6-0.1-1.5-0.8-1.6c-0.3-0.1-0.7-0.1-0.9,0.1c-0.4-0.5-1.1-1.4-1.9-1
		c-0.3,0.1-0.5,0.5-0.5,0.9c0,0.4,0.1,0.8,0.3,1.2c0,0,0,0,0,0.1c-0.4,0-0.8,0.3-0.9,0.7c0,0.1,0,0.2,0,0.2l0,0
		c-0.5-0.4-1.2-0.5-1.8-0.1c-0.3,0.2-0.5,0.5-0.5,0.9c0,0.5,0.2,1,0.5,1.4c-0.4,0.1-0.7,0.4-0.7,0.8c0,0.1,0,0.1,0,0.2
		c0,1,1.1,1.3,1.6,1.5h0.1l0,0c-0.1,0.1-0.3,0.2-0.5,0.3c-0.1,0-0.1-0.1-0.2-0.1c-0.7-0.6-1.7-0.6-2.4,0c-0.2,0.2-0.3,0.4-0.3,0.6
		c0.1,0.4,0.3,0.8,0.6,1.1l0.2,0.2l-0.1,0.2l-0.2,0.6c0,0.1,0,0.1,0,0.2l-0.1,0.1c0-0.1,0-0.3,0-0.3c0-0.6-0.1-1.3-0.7-1.5
		c-0.3-0.1-0.6,0-0.8,0.3l0,0c-0.1-0.6-0.3-1.6-1-1.6c-0.4,0-0.6,0.4-0.8,0.7v0.1l0,0c-0.2-0.3-0.7-0.8-1.3-0.6
		c-0.4,0.2-0.7,0.7-0.7,1.1c0,0.3,0,0.5,0.1,0.8c0,0.1,0,0.1,0,0.2h-0.1c-0.3,0.1-0.6,0.3-0.7,0.6c0,0.1,0,0.2,0,0.3
		c0,0.6,0.8,1.1,1.3,1.4c-0.1,0.1-0.3,0.2-0.4,0.3c-0.3-0.2-0.8-0.2-1.1-0.1c-0.4,0.1-0.6,0.5-0.5,0.9c0,0,0,0.1,0,0.1
		c-0.5-0.2-1.2,0-1.4,0.6c-0.1,0.2-0.2,0.4-0.2,0.6c0,0.2,0,0.4,0.1,0.5c0.3,0.4,0.7,0.7,1.2,0.9c-0.1,0.1-0.2,0.3-0.2,0.4l0.2,0.7
		c0.4,0.5,1,0.2,1.4,0.1s0.7-0.2,0.8-0.1c-0.1,0.2-0.2,0.3-0.3,0.5c-0.1,0-0.2,0-0.3,0c-0.3,0.1-0.6,0.3-0.7,0.6
		c-0.4-0.5-1-0.7-1.6-0.7c-0.4,0.1-0.7,0.4-0.6,0.8c0,0.1,0,0.3,0,0.4l0,0h-0.1c-0.4-0.2-0.9-0.2-1.3,0c-0.2,0.2-0.4,0.4-0.4,0.7
		c0,0.1,0,0.2,0,0.2c0,0.9,0.9,1.1,1.4,1.3c-0.2,0.1-0.3,0.4-0.4,0.6c0,0.2,0.1,0.4,0.3,0.6c0.5,0.5,1.3,0.4,1.8-0.1l0,0
		c0,0.1,0,0.2,0,0.3v0.2h-0.1c-0.4,0.1-0.7,0.3-0.9,0.6c-0.1,0.1-0.1,0.2-0.1,0.4c0,0.1,0,0.3,0.1,0.4c0.3,0.8,1.1,0.8,1.6,0.8h0.1
		v0.1c0,0.3,0.1,0.6,0.4,0.8c0.8,0.7,1.8-0.2,2.3-0.5l0,0l0.3,0.2c0.1,0.2,0.1,0.3,0.3,0.4l0,0l-0.1,0.1c-0.4,0.3-0.7,0.8-0.8,1.4
		c0,0.2,0.1,0.5,0.2,0.7c0.4,0.6,1.2,0.2,1.9-0.2l0.4-0.2l0,0c0,0,0,0.1,0,0.1c0.1,0.4,0.4,0.7,0.9,0.7c0.1,0,0.1,0,0.2,0
		c0.7-0.2,1.3-0.8,1.5-1.5c0-0.1,0.1-0.3,0.2-0.4l0.4,0.4l0.4-0.1c0.6-0.4,1-1.7,1.1-2.1c1.1,0.7,2,1.6,2.5,2.8
		c0.4,0.7,0.8,1.4,1.2,2c0.4,0.6,0.8,1.4,0.9,1.5c-0.1,1.5-0.9,2.8-2.2,3.5l-0.5,0.2c-1.2,0.6-2.4,1.2-3.5,2h-0.3
		c-0.4,0-0.9,0.1-1.2,0.3c-0.4-0.2-0.9-0.3-1.3-0.3c-0.8-0.1-1.6,0.3-2,1c-0.4,0.7-0.4,1.5,0,2.2c0.5,0.6,1.2,1,2,1
		c0.4,0,0.8-0.1,1.1-0.3c0.4,0.2,0.7,0.3,1.1,0.3c0.4,0,0.9-0.1,1.3-0.3c0.3,0.2,0.7,0.3,1.1,0.3c0.4,0,0.8-0.1,1.1-0.3
		c0.7,0.4,1.6,0.4,2.3,0c0.3,0.2,0.7,0.3,1.1,0.3c0.4,0,0.8-0.1,1.1-0.3c0.3,0.2,0.7,0.3,1.1,0.3c0.4,0,0.8-0.1,1.1-0.3
		c0.3,0.2,0.7,0.3,1.1,0.3c0.4,0,0.8-0.1,1.1-0.3c0.3,0.2,0.7,0.3,1.1,0.3c0.4,0,0.8-0.1,1.1-0.3c0.3,0.2,0.7,0.3,1.1,0.3
		c0.4,0,0.8-0.1,1.1-0.3c0.3,0.2,0.7,0.3,1.1,0.3c0.4,0,0.9-0.1,1.2-0.3c0.4,0.2,0.9,0.3,1.4,0.4c0.8,0.1,1.6-0.4,2-1.1
		c0.3-0.7,0.2-1.5-0.3-2.1c-0.5-0.6-1.2-1-2-0.9c-0.4,0-0.8,0.1-1.1,0.3c-0.3-0.1-0.6-0.2-0.9-0.3c-0.4-0.7-0.9-0.9-2.8-1.7
		l-0.3-0.1c-1.2-0.4-2.2-1.2-2.8-2.3v-0.1c-0.3-0.6-1-4.1,0.4-6.3c0.6-0.9,1.4-1.6,2.4-2c0,0.6,0.2,1.2,0.5,1.7l0.5,0.3l0.3-0.1
		l0.1,0.2c0.3,0.6,0.6,1.4,1.2,1.5c0.3,0.1,0.7,0,0.9-0.3c0.3,0.4,0.7,0.6,1.1,0.7c0.3,0,0.7-0.2,0.9-0.5c0.5,0.3,1.1,0.1,1.5-0.3
		c0.1-0.1,0.2-0.3,0.2-0.5c0-0.3-0.2-0.6-0.5-0.8l0,0c0.2-0.1,0.3-0.3,0.3-0.5c0.2,0,0.4,0,0.6-0.1c0.2-0.1,0.3-0.4,0.4-0.6l0,0
		c0.3,0,0.9,0.1,1.1-0.5c0.1-0.1,0.1-0.2,0.1-0.4c0.2-0.1,0.4-0.3,0.5-0.5l0,0c0.4,0.3,0.9,0.3,1.4,0.2c0.3-0.2,0.5-0.6,0.5-1
		c0.4,0.1,0.9,0.1,1.3-0.1c0.2-0.2,0.4-0.5,0.4-0.8c0-0.1,0-0.2,0-0.2c0-1-1.2-1.3-1.7-1.3 M83,33.6c0,0.1-0.1,0.2-0.3,0.2
		C82.8,33.7,82.9,33.6,83,33.6 M82.6,33.1l-0.2,0.2l-0.3,0.2L82,33.8c-0.1,0.4-0.4,1.1-1.8,1.4c0,0-0.1-0.1-0.1-0.1
		c-0.2-0.3-0.4-0.7-0.5-1.1c-0.1-0.5,0-1,0.1-1.5c1.1-0.1,1.9,0,2.2,0.4c0.1,0.1,0.2,0.2,0.3,0.2C82.4,33,82.5,33.1,82.6,33.1
		 M76,33.2l0.2,0.4l0.1,0.1c-0.5,0.2-1,0.2-1.5,0h-0.5C74.1,33.9,74,34,74,34.2v0.2c-0.5-0.1-1.1-0.2-1.5-0.5
		c0.2-0.3,0.4-0.6,0.7-0.8l0,0c0.3-0.2,0.7-0.3,1-0.4c0.8-0.3,1.8-0.7,1.7-0.9s-1.1,0-1.9,0.3c-0.7,0.3-1.5,0.5-1.9,0.7
		c0.2-0.7,0.6-1.6,1-1.6c0.1,0.2,0.2,0.3,0.4,0.3l0.6-0.4c0.8-0.7,1-0.8,1.1-0.8l0.1,0.1l0.3,0.3c0.2,0.1,0.4,0,0.7-0.2
		c0.3-0.2,0.5-0.3,0.6-0.3c0.1,0,0.2,0.1,0.2,0.2l0.3,0.3h0.6c0.3-0.1,0.8-0.2,0.9,0c0.2,0.4,0,0.6-0.5,0.8
		c-0.2,0.1-0.4,0.2-0.4,0.5l0.1,0.4v0.3c0,0.1-0.2,0.2-0.3,0.2c-0.1,0-0.1,0-0.2,0c-0.2,0-0.4,0-0.6,0h-0.6c-0.1,0-0.1,0-0.2,0
		S76.1,33.1,76,33.2 M72,37.1c-0.3,0.3-0.5,0.6-0.8,0.9c0-0.1,0-0.2,0-0.3c0-0.7,0.1-1.4,0.3-2.1c0.1-0.4,0.3-0.8,0.5-1.1
		c0.2,0.1,0.5,0.2,0.8,0.3c0,0.2-0.1,0.2-0.3,0.3L72,35.5C71.7,36,71.7,36.6,72,37.1 M70.7,31.8c0-0.3,0.1-0.6,0.2-0.9
		c0.2-0.5,1.3-2.4,1-2.5s-1.3,1.7-1.5,2.4c0,0.2-0.1,0.4-0.2,0.5c-0.3-0.5-0.4-1-0.4-1.5c0-0.2,0-0.3,0.1-0.5
		c0.1-0.1,0.1-0.1,0.2-0.1h0.2c0.1,0,0.2-0.1,0.2-0.3c0-0.1-0.1-0.3-0.1-0.4c-0.2-0.4-0.3-0.8-0.3-1.2c0-0.1,0-0.2,0-0.3
		c0.1-0.2,0.2-0.3,0.4-0.3l0.1,0.1c0.1,0.1,0.4,0.1,0.5,0l0.1-0.4c0-0.3,0.2-1.1,0.5-1.1l0.2,0.1c0.1,0.1,0.3,0.1,0.4,0l0.2-0.1
		c0.6-0.6,0.8-0.5,0.8-0.5s0.1,0.4,0.1,0.6s0,0.5,0.2,0.6l0.4,0.1h0.2c0.2,0.5-0.2,1-0.7,1.4c-0.1,0.1-0.3,0.2-0.2,0.4l0.3,0.3
		l0.2,0.1c0.1,0.3-0.8,0.7-1,0.9l-0.4,0.4c-0.1,0.1-0.1,0-0.1,0.1c0,0.1,0.1,0.1,0.2,0.1l0.4,0.2h0.1C73.2,30.5,71.4,31.5,70.7,31.8
		 M71.7,32c-0.2,0.4-0.3,0.7-0.4,1.1l-0.4,0.2l-0.2,0.1l0,0c0-0.3,0-0.6-0.1-1C71,32.3,71.4,32.1,71.7,32 M70.1,31.7L70.1,31.7
		L70.1,31.7L70.1,31.7L70.1,31.7 M70.4,32.5L70.4,32.5L70.4,32.5L70.4,32.5 M69.8,31.6c-0.1,0-0.3,0-0.4,0l0,0
		c-0.1-0.6-0.3-1.2-0.7-1.8c-0.4-0.3-0.9,0-1.1,0.2c-0.3-0.6-0.7-1.1-1.4-1.4l-0.1-0.1c-0.3-0.2-0.5-0.5-0.4-0.8
		c0-0.2,0.2-0.3,0.4-0.3c0.2-0.1,0.3-0.4,0.3-0.7c0-0.7,0-1.2,0.4-1.3c0.4-0.1,0.9,0.4,1.3,0.9l0.5,0.4c0.3,0.1,0.5-0.1,0.6-0.3
		c0.1-0.2,0.2-0.2,0.3-0.2c0.2,0.1,0.4,0.3,0.4,0.6c-0.1,0.2-0.1,0.4-0.1,0.5c0,0.5,0.1,0.9,0.3,1.3c-0.2,0-0.3,0.1-0.4,0.3
		c-0.2,0.2-0.3,0.6-0.3,0.9C69.3,30.4,69.5,31,69.8,31.6 M69.1,35.3c0.1,0.5,0.1,0.9,0.1,1.4v0.4c-0.1,0.6-0.2,1.2-0.4,1.8l-1-1.6
		c-0.4-0.6-0.6-1.4-0.6-2.1l0,0c0.5,0.3,1.2,0.3,1.7,0.1L69.1,35.3z M69.4,34c-0.2-0.1-0.3-0.3-0.4-0.4c-0.2-0.3-0.5-0.5-0.8-0.8
		c-0.7-0.5-1.6-1.1-1.7-0.9c-0.1,0.2,0.8,0.7,1.3,1.3c0.4,0.3,0.6,0.7,0.9,1.1c0,0,0,0.1,0,0.1c0,0.1,0.1,0.2,0.1,0.3h-0.1
		c-0.5,0.1-1,0.1-1.4-0.1l-0.2-0.1c0-0.1,0-0.3,0-0.4c0-0.1,0-0.1,0-0.2s-0.1,0-0.2,0L66.4,34c-0.3,0.1-0.8,0.3-1.1,0.2
		c-0.1-0.1-0.2-0.2-0.2-0.3c-0.2-0.5,0-0.6,0.1-0.8c0.1-0.1,0.2-0.3,0.2-0.4c0-0.3-0.3-0.3-0.6-0.4c-0.6-0.1-0.9-0.2-0.9-0.5
		c0-0.3,0.3-0.4,0.4-0.5c0.1-0.1,0.1-0.1,0.1-0.2c0-0.1,0-0.2-0.1-0.2c0,0-0.5-0.7,0-1.1c0.5-0.3,0.7-0.1,0.8,0
		c0.1,0.1,0.2,0.1,0.3,0.1c0.1,0,0.2-0.2,0.2-0.3c0,0,0-0.4,0.3-0.5s0.9,0.7,1.1,1.3c0,0.1,0.1,0.2,0.2,0.2c0.2,0.1,0.4,0,0.6-0.2
		c0.2-0.2,0.4-0.3,0.5-0.2c0.3,0.4,0.5,1,0.5,1.5c0,0.1,0.1,0.2,0.1,0.3c0.2,0.1,0.4,0.1,0.6,0.1h0.3C69.7,32.8,69.6,33.4,69.4,34
		 M64.5,34.1v0.2c0,0.4-0.6,0.8-0.9,1c-0.1-0.1-0.2-0.2-0.4-0.3c-0.2-0.5-0.3-1-0.4-1.6c-0.2-1.4-0.3-1.9-0.5-1.9
		c-0.2,0.1-0.3,0.5-0.1,1.9c0,0.3,0.1,0.6,0.1,0.9l-0.1-0.1h-0.5c0,0,0,0-0.1,0.1c-0.1-0.6-0.3-1.1-0.7-1.5c0,0,0-0.1,0-0.1
		c0-0.1,0-0.3,0-0.4c0.1-0.2,0.3-0.3,0.4-0.5c0-0.2-0.1-0.4-0.3-0.5s-0.5-0.6-0.4-0.8c0,0,0-0.1,0.2-0.1l0.3-0.1
		c0.1-0.1,0.1-0.3,0.1-0.6c0-0.5,0-1.1,0.5-1.3h0.1c0.3,0.3,0.6,0.6,0.7,1c0,0.1,0,0.1,0.1,0.1c0.2,0.1,0.4,0,0.5,0s0.5-0.2,0.7,0
		c-0.3,0.2-0.4,0.5-0.4,0.8c0,0.3,0.1,0.5,0.2,0.8c-0.3,0.2-0.4,0.5-0.5,0.9c0,0.8,0.9,1,1.4,1.1c-0.1,0.2-0.2,0.4-0.2,0.6
		C64.4,33.8,64.5,34,64.5,34.1 M64.1,36.2L64.1,36.2c0.7,0.2,2,0.5,2.3,2.9c0.1,0.8,0.2,1.5,0.2,2.3c0,0.2,0,0.4,0,0.6
		c-1.3-0.9-2.1-2.3-2.3-3.9v-0.3C64.4,37.3,64.4,36.8,64.1,36.2 M60.4,32.6c-0.1,0-0.2,0.2-0.3,0.3c-0.2-0.5-0.6-0.8-1.1-1
		c-0.4-0.1-0.6,0.3-0.7,0.5c-0.4-0.3-0.8-0.4-1.3-0.4c-0.1,0-0.2,0.1-0.3,0.1c-0.4-0.2-0.8-0.2-1.3-0.2c0-0.1,0-0.2,0-0.2
		c0-0.1-0.3-0.4-0.3-0.4c-0.3-0.2-0.6-0.4-0.5-0.7c0.1-0.3,0.3-0.4,0.6-0.4l0,0c0.1,0,0.2,0,0.3-0.1l0.5-0.2l0.1-0.3
		c0-0.2,0.1-0.3,0.2-0.3c0.2,0.4,0.5,0.7,0.9,1c0,0.4,0.3,0.8,0.7,1c0.8,0.2,1.6,0.2,2.3-0.1c0.1,0.2,0.3,0.4,0.5,0.6l0,0l-0.2,0.2
		c-0.1,0.1-0.1,0.3-0.1,0.5C60.3,32.4,60.3,32.5,60.4,32.6 M54.2,34.2l-0.1-0.3c0,0,0-0.1,0-0.1c-0.1-0.2-0.1-0.3,0-0.5
		s0.3-0.2,0.5-0.2h0.2l0.2-0.1c0.4-0.3,0.9-0.5,1.3-0.3c-0.1,0.1-0.1,0.3-0.1,0.4c0,0.3,0.2,0.6,0.4,0.8l-1.1,1.9
		c-0.4-0.2-0.7-0.5-0.9-0.9L54.2,34.2z M57.9,29.5c-0.1,0.1-0.2,0.2-0.4,0.3l0,0c-0.6-0.4-1-1.1-1-1.8l0,0l-0.1-0.4v-0.1h0.1h0.3
		h0.3c0.6-0.2,1.3-0.1,1.9,0.1C58.9,28.3,58.5,29,57.9,29.5 M63.1,28.9L63.1,28.9c0.1,0,0,0.1,0.1,0.2L63.1,28.9 M62.4,23.4
		c0-0.1,0-0.3,0-0.4c0.1,0,0.4,0.2,0.5,0.2c0.1,0.1,0,0.1,0.1,0.1l0.3,0.1c0.7,0,1.3,0.5,1.6,1.1c-0.5,0.1-1,0.4-1.4,0.6
		c-0.4,0.2-0.7,0.4-1,0.7c-0.4-0.5-0.4-1.2-0.1-1.7l0.1-0.2L62.4,23.4 M62.4,26.8L62.4,26.8z M70.8,22.7c0.1,0,0.1-0.1,0.2-0.1
		c0.1-0.1,0.3-0.2,0.5-0.2c0.1,0,0.2,0.1,0.2,0.3v0.2c0.3,0.5,0.4,1.1,0.3,1.6l0,0c-0.8-0.3-1.7-0.5-2.6-0.6
		C69.7,23.4,70.2,22.9,70.8,22.7 M69.1,23.3L69.1,23.3L69.1,23.3L69.1,23.3 M75.1,25.9c0.3-0.2,0.6-0.5,0.7-0.8c0-0.1,0-0.2,0-0.3
		c0-0.2-0.1-0.3-0.1-0.5l0.4-0.2c0.2,0.2,0.3,0.4,0.4,0.6c0.1,0.1,0.2,0.2,0.3,0.3c0.3,0,0.5-0.1,0.8-0.2c0.5-0.3,0.8-0.4,1.1-0.2
		s0.3,0.4,0.3,0.5c-0.4,0.3-0.7,0.6-0.9,1c-0.6-0.1-1.2,0.1-1.7,0.3c-0.6,0-1.2,0.4-1.6,0.9c-0.1,0.2-0.2,0.5-0.2,0.7l-0.3-0.3
		c0.5-0.3,0.8-0.8,0.8-1.4C75.2,26.2,75.2,26,75.1,25.9 M79.2,26.9l-0.1,0.3v0.2c0,0.1,0,0.2,0,0.3c0,0.6-0.3,1.1-0.7,1.5
		c-0.5-0.2-1-0.5-1.4-0.9l-0.2-0.5c-0.1-0.2-0.1-0.5-0.1-0.7c0.5-0.3,1.2-0.4,1.8-0.2c0,0,0,0,0.1,0l0.4-0.1l0.2-0.1L79.2,26.9
		 M76.1,26.8C76.1,26.8,76.1,26.8,76.1,26.8C76.1,26.6,76.1,26.7,76.1,26.8L76.1,26.8 M75.4,27.6L75.4,27.6c0.1-0.2,0.3-0.3,0.4-0.4
		L75.4,27.6z M75.6,29.6l-0.1-0.1c-0.1-0.2-0.2-0.5-0.2-0.7L75.6,29.6z M73.8,29.8c0-0.1-0.1-0.2-0.2-0.3c0.5-0.2,0.9-0.5,1.1-0.9
		c0,0.4,0.1,0.8,0.4,1.1c-0.5,0.2-1,0.5-1.4,0.9l0,0c0,0,0,0,0-0.1c0.1-0.2,0.2-0.4,0.2-0.6C73.8,29.9,73.8,29.8,73.8,29.8 M78.5,32
		c0,0,0,0.1,0,0.1l0,0V32 M78.5,32.2L78.5,32.2L78.5,32.2L78.5,32.2l0,0.1L78.5,32.2z M84.9,27.4v0.5c0.1,0.4,0.6,0.3,0.9,0.2
		c0.5-0.2,0.8-0.2,0.9,0.1c0.3,0.6,0,0.9-0.7,1.2l-0.4,0.3c-0.1,0.2,0,0.5,0.2,0.7c0.1,0.1,0.2,0.3,0.2,0.3c-0.2,0.3-0.9,0.1-1.4,0
		c-0.5-0.1-0.8-0.2-1,0c-0.2,0.1-0.3,0.4-0.2,0.6v0.2c-0.1,0.2-0.4,0.3-0.9,0.2c-0.2,0-0.5,0-0.6,0.1c-0.6-0.2-1.3-0.2-1.9-0.1
		c0,0,0-0.1-0.1-0.1c-0.1-0.1-0.3-0.2-0.5-0.2c0-0.1,0-0.2,0-0.3c0,0,0-0.1,0-0.1c0.8,0,2.5,0.1,2.9-0.9c0-0.1,0-0.2,0-0.3
		c0-0.2-0.1-0.4-0.2-0.6c0.8,0,2.2,0,2.3-0.9v-0.1c0-0.4-0.2-0.7-0.5-0.9l0.2-0.2l0.2-0.2c0.4,0,0.5,0.1,0.5,0.2
		C84.9,27.1,84.9,27.2,84.9,27.4 M83.2,25.3c0.3-0.1,0.9-0.4,1.2-0.3c0.1,0,0.2,0.1,0.2,0.2c0.2,0.4,0,0.7-0.4,1c0,0-0.1,0-0.1,0.1
		l-0.3,0.2c-0.3,0.2-0.6,0.4-0.7,0.7c-0.1,0.3-0.1,0.2,0,0.3l0.3,0.2c0.3,0.1,0.5,0.2,0.4,0.5c0,0.1-0.3,0.4-1.8,0.3
		c-0.4,0-0.6,0-0.6,0.2c-0.1,0.2,0,0.3,0.1,0.5c0.1,0.2,0.3,0.4,0.2,0.5c-0.3,0.6-1.9,0.5-2.4,0.5h-0.2c-0.1-0.1-0.3-0.1-0.4-0.2
		c0.1-0.2,0.1-0.4,0.1-0.6c0.2-0.2,0.4-0.4,0.5-0.6l0,0l0.5-0.3c0.9-0.6,1.8-1.6,1.7-1.7c-0.6,0.3-1.3,0.6-1.8,1.1
		c0-0.2,0-0.5,0-0.7c0-0.1,0-0.1,0-0.2c0.2-0.3,0.2-0.6,0-0.9c-0.2-0.2-0.6-0.2-0.8-0.1c0.2-0.3,0.4-0.5,0.6-0.6
		c0.2-0.1,0.4,0,0.6,0.2l0.4,0.2c0.3,0.1,0.5-0.2,0.7-0.5c0.2-0.3,0.7-0.8,1.1-0.7c0.1,0,0.2,0.1,0.2,0.3c0.1,0.2,0.1,0.3,0.3,0.4
		L83.2,25.3 M81.5,21.5L81.5,21.5 M79.1,21.7L79.1,21.7L79.1,21.7 M77.3,22.9h0.2l0.2-0.3c0.2-0.3,0.4-0.5,0.7-0.7
		c0.1,0.1,0.2,0.2,0.3,0.2l0.5,0.3l0.6-0.4c0.3-0.2,0.7-0.6,0.9-0.6c0.2,0,0.3,0.2,0.4,0.4l0.3,0.3l0.5-0.1c0.5-0.1,0.9-0.3,1.1,0.1
		c0.1,0.1,0.1,0.2,0.1,0.3c0,0.3-0.5,0.6-0.8,0.7c-0.1,0-0.1,0.1-0.1,0.2c0,0.1,0,0.2,0,0.2c0.1,0.2,0.2,0.4,0.2,0.6
		c-0.8-0.1-1.3,0.5-1.7,0.9l-0.2,0.2l-0.1-0.1c-0.2-0.2-0.5-0.3-0.7-0.3c0-0.3-0.2-0.5-0.4-0.7c0.1-0.1,0.3-0.2,0.5-0.3
		c0.5-0.3,1.1-0.7,1-0.8c-0.1-0.1-0.8,0.1-1.4,0.4c-0.2,0.1-0.5,0.2-0.7,0.4c-0.5-0.1-1,0-1.4,0.3c-0.1,0-0.2,0.1-0.2,0.1
		c-0.1-0.2-0.2-0.4-0.4-0.6C76.9,23.5,77.2,23.2,77.3,22.9 M76.7,22.1L76.7,22.1L76.7,22.1L76.7,22.1 M74.7,21.1l0.6-0.4
		c0.3-0.3,0.6-0.7,1-0.7c0.2,0,0.4,0.1,0.5,0.3c0.1,0.1,0.2,0.2,0.2,0.4c0,0.3-0.3,0.5-0.6,0.8l-0.4,0.5c0,0.2,0.1,0.4,0.3,0.5
		c0.1,0.1,0.2,0.2,0.2,0.4c0,0.1-0.2,0.4-0.6,0.6c0,0-0.1,0-0.1,0.1c-0.2,0.1-0.5,0.3-0.7,0.4c-0.2,0.1-0.3,0.3-0.2,0.5
		c0,0.1,0.1,0.1,0.1,0.2c0.1,0.1,0.2,0.2,0.1,0.4c-0.1,0.2-0.3,0.4-0.6,0.6c-0.1,0-0.2,0-0.3,0h-0.1c0,0,0-0.1,0-0.1
		c0-0.4-0.1-0.9-0.5-1.1c-0.2-0.1-0.4-0.1-0.6,0l0.4-0.5c0.5-0.5,1-1.1,0.9-1.1c-0.1-0.1-0.8,0.3-1.4,0.8c-0.2,0.2-0.4,0.4-0.6,0.7
		c0-0.5-0.1-0.9-0.3-1.4c0,0,0-0.1,0-0.1c0-0.2-0.1-0.3-0.2-0.5c0.1-0.2,0.4-0.2,0.5-0.1h0.2c0.3,0,0.3-0.2,0.4-0.5
		c0.1-0.3,0.4-1,0.8-1.1h0.2c0.1,0.1,0.1,0.2,0.2,0.3C74.4,20.8,74.5,21.1,74.7,21.1 M71.5,16.4l0.4,0.2c0.3,0.1,0.4-0.2,0.6-0.4
		s0.6-0.8,1-0.7s0.4,0.4,0.3,1c0,0.2,0,0.4,0.1,0.6l0.3,0.1c0.3,0,0.5,0.2,0.6,0.4c0.2,0.3-0.5,0.9-0.9,1.1
		c-0.1,0.1-0.2,0.2-0.2,0.3c0,0.1,0.1,0.2,0.3,0.2c0.1,0,0.1,0,0.1,0.1c0,0.1,0,0.2,0,0.3h-0.4c-0.7,0.3-1,1.1-1.1,1.6
		c0,0,0,0.1,0,0.1c-0.2-0.1-0.4-0.1-0.7,0c0.2-0.3,0.3-0.7,0.3-1.1c0-0.1,0-0.2,0-0.3c-0.1-0.3-0.3-0.4-0.6-0.5
		c0.4-0.4,0.6-0.9,0.6-1.4c0-0.3-0.1-0.7-0.3-1c-0.2-0.2-0.5-0.3-0.7-0.2c0-0.1,0-0.2,0-0.3c0-0.2,0-0.3-0.1-0.5
		C71.2,16.2,71.3,16.3,71.5,16.4 M71.1,17.2L71.1,17.2c0,0.1,0,0.1,0,0.2C71.1,17.4,71.1,17.3,71.1,17.2 M67.5,19.8
		c0.2-0.2,0.4-0.3,0.7-0.2c0.1,0,0.2-0.1,0.3-0.2c0.1-0.2,0-0.4-0.2-0.8c-0.2-0.4-0.6-1.1-0.3-1.4c0.1-0.1,0.2,0,0.4,0h0.6
		c0.2-0.1,0.2-0.3,0.4-0.7c0.1-0.4,0.3-1,0.6-1c0.2,0,0.4,0.1,0.5,0.3c0.2,0.4,0.2,0.9,0.1,1.4c0,0.1,0,0.3,0.1,0.4
		c0.2,0.2,0.4,0,0.5,0c0.1-0.1,0.2-0.1,0.3-0.1c0.5,0.7,0,1.4-0.4,1.9c-0.1,0.2-0.3,0.3-0.2,0.5c0.1,0.2,0.3,0.2,0.5,0.2
		c0.2,0,0.4,0,0.4,0.1c-0.1,0.5-0.3,1.1-0.6,1.5l-0.4,0.2c-0.4,0.2-0.8,0.4-1.1,0.7c0.2-0.7,0.3-1.5,0.4-2.2C70,19.6,70,19,69.8,19
		c-0.2,0.5-0.3,1.1-0.4,1.6c-0.2,0.9-0.4,1.8-0.5,2h-0.2h-0.3l0,0c0.2-0.4,0.3-0.8,0.4-1.3c0-0.5-0.3-0.9-0.7-1.1
		c-0.2-0.1-0.5-0.1-0.7,0c0-0.1,0-0.1,0.1-0.2 M66.6,20.8l0.4,0.4c0.2,0,0.4-0.1,0.5-0.3l0.2-0.2c0.6,0.4,0.5,0.9,0.1,1.7l-0.1,0.5
		c0.1,0.4,0.6,0.5,0.9,0.5H69c-0.1,0.2-0.2,0.4-0.3,0.7c-0.2,0-0.4,0.2-0.6,0.4c-0.2,0.3-0.3,0.6-0.3,0.9c-0.2-0.2-0.5-0.4-0.8-0.4
		c0-0.2-0.1-0.5-0.2-0.8c-0.2-0.8-0.4-1.6-0.6-1.6c-0.2,0-0.1,0.9,0,1.6c0,0.3,0.1,0.6,0.2,0.8c-0.2,0.1-0.3,0.1-0.4,0.3
		c-0.1-0.2-0.1-0.3-0.3-0.4c-0.1-0.1-0.2-0.2-0.3-0.2c-0.1-0.2-0.2-0.4-0.3-0.5c0.1-0.1,0.2-0.2,0.2-0.3c0,0,0-0.3-0.3-0.5
		c-0.5-0.6-0.7-0.9-0.6-1.1c0.1-0.2,0.1-0.1,0.3-0.1c0.2,0.1,0.4,0,0.5-0.1c0.1-0.1,0.1-0.4,0.1-0.7c0-0.5-0.1-1.1,0.2-1.1
		S66.4,20.5,66.6,20.8 M64.6,21.4L64.6,21.4L64.6,21.4C64.6,21.4,64.6,21.4,64.6,21.4 M62.2,16.8l0.1,0.1v-0.1 M62,17.5
		c0-0.1,0.1-0.2,0.4-0.2c0.2,0,0.4-0.1,0.5-0.2c0.1-0.2,0-0.3-0.1-0.7c-0.1-0.3-0.4-1.1-0.1-1.3s1,0.5,1.3,0.9l0.3,0.3
		c0.1,0,0.3,0.1,0.5-0.2c0-0.1,0.1-0.2,0.4-0.1c0.3,0.1,0.4,1,0.3,1.6c0,0.1,0.1,0.3,0.2,0.3c0.1,0.1,0.3,0,0.4-0.1
		c0.1-0.1,0.2-0.2,0.3-0.2c0.1,0.6,0.1,1.2,0,1.8c-0.2-0.1-0.5-0.2-0.8-0.1c-0.2,0.1-0.3,0.2-0.4,0.3c-0.3-0.1-0.6-0.2-0.8-0.1
		c0-0.7-0.1-1.9-1.1-2c-0.4,0-0.7,0.2-0.9,0.5C62.1,17.9,62.1,17.7,62,17.5 M59.6,20.8c0-0.2,0.2-0.3,0.4-0.4
		c0.2-0.1,0.3-0.1,0.4-0.3l-0.1-0.5c-0.3-0.6-0.6-1.3-0.2-1.6c0.4-0.3,1-0.1,1.6,0.6c0.2,0.2,0.3,0.4,0.5,0.4s0.4-0.2,0.5-0.5
		s0.3-0.5,0.4-0.4c0.5,0.1,0.5,1.1,0.6,1.6s0,0.5,0.2,0.5c0.1,0,0.3,0,0.4-0.1c0.2-0.1,0.4-0.1,0.6,0c0,0.1,0,0.3,0,0.4
		c0,0.2,0,0.4,0,0.6v0.1c-0.4-0.1-0.7,0.1-0.8,0.5c0,0.1,0,0.2,0,0.3c0,0.4,0.2,0.7,0.4,1c-0.2-0.1-0.4-0.2-0.6-0.2
		c-0.1-0.4-0.3-0.8-0.5-1.1c-0.2-0.4-1-1.3-1.1-1c-0.1,0.2,0.4,0.9,0.6,1.2c0.1,0.2,0.3,0.5,0.4,0.7c-0.2-0.2-0.5-0.2-0.8-0.1
		c-0.5,0.2-0.4,0.7-0.4,1c-0.8-0.1-0.9-0.2-0.9-0.3c0-0.1,0.1-0.2,0.2-0.3l0.4-0.6c0-0.3-0.3-0.4-0.7-0.6c-0.7-0.2-1.3-0.4-1.1-1
		 M58,22.9c0.5-0.5,1-0.2,1.6,0.1l0.5,0.2h0.1c0.1,0.5,0.7,0.7,1.3,0.8c-0.2,0.7-0.1,1.5,0.3,2.1l0,0c-0.1,0.2-0.2,0.4-0.1,0.6
		c0.2,0.5,0.6,0.9,1.1,1.1c0.6,0.3,1.3,0.3,1.9,0.1h0.1l0.1-0.1H65c0,0.3,0.2,0.6,0.4,0.9c-0.1,0.1-0.2,0.3-0.3,0.4
		c-0.2-0.1-0.5-0.1-0.7-0.1c-0.3-0.4-0.9-0.6-1.4-0.3c-0.2-0.5-0.5-0.9-0.9-1.1h-0.6c-0.1,0-0.2,0.1-0.3,0.1c-0.2-0.5-0.6-0.9-1.1-1
		H60c0-0.2,0-0.4,0-0.5c-0.1-0.3-0.5-0.4-0.8-0.4c-0.7,0-0.9-0.1-0.9-0.5l0.1-0.3l0.2-0.5l-0.3-0.6C57.9,23.5,57.7,23.2,58,22.9
		 M57.6,25.8v-0.1C57.6,25.7,57.6,25.7,57.6,25.8 M52.1,25.5c0-0.1,0.3-0.2,0.4-0.3l0.4-0.2c0.1-0.2,0.1-0.4,0-0.6
		c-0.1-0.7-0.1-1.1,0.2-1.2c0.2-0.1,0.3,0.1,0.6,0.4l0.5,0.4c0.4,0.1,0.5-0.3,0.7-0.5S55,23,55,23c0.2,0,0.4,0.8,0.4,1.1
		c0,0.4,0.1,0.7,0.4,0.8c0.3,0.1,0.5-0.2,0.7-0.3c0.1-0.2,0.2-0.2,0.2-0.2c0,0,0.3,0.6,0.3,1s0,0.6,0.2,0.8c0.3,0.2,0.6,0.1,0.8-0.1
		c0.3,0.2,0.7,0.4,1.1,0.4h0.3l0,0c0,0.1,0,0.3-0.1,0.4c-0.7-0.3-1.5-0.3-2.3-0.1h-0.2h-0.2L56,27c0,0,0,0,0,0.1
		c-0.4-0.3-0.7-0.6-1-0.9c-0.5-0.6-0.7-1.4-0.9-1.3c-0.4,0.1,0.1,1.1,0.4,1.5c0.4,0.6,1,1.1,1.6,1.5l0,0c0,0.3,0,0.5,0.1,0.8
		c-0.3,0.1-0.5,0.4-0.6,0.7l0,0h-0.1l0,0c-0.1-0.2-0.2-0.4-0.2-0.5c0-0.3-0.1-0.5-0.3-0.7c-0.3-0.2-0.6-0.1-0.9,0.1l-0.3,0.1
		c-0.1-0.1-0.2-0.1-0.2-0.2l0,0L53,27.5l0,0c0.2-0.2,0.4-0.3,0.6-0.3c0.2,0,0.3-0.1,0.3-0.2c0-0.3-0.1-0.4-0.4-0.5
		c-1.3-0.6-1.4-0.9-1.4-1.1 M51.9,31.2c-0.4,0.2-0.6,0.2-0.7,0.1l-0.2,0c0.1-0.2,0.2-0.3,0.3-0.4c0.1-0.1,0.1-0.2,0.1-0.3
		c0-0.1-0.1-0.2-0.3-0.2c-0.3,0-1.1-0.3-1.3-0.7c-0.1-0.2-0.1-0.4,0-0.6c0.2-0.4,0.4-0.4,0.9-0.2h0.4c0.2-0.1,0.2-0.4,0.2-0.5
		c0-0.2,0-0.5,0.1-0.5c0.4-0.1,0.8,0.1,1,0.4l0.5,0.6l0.2,0.3c0.2,0.2,0.6,0.1,0.9,0l0.4-0.1l0,0c0,0.1,0,0.2,0.1,0.3
		c0,0.2,0.1,0.4,0.2,0.6c-0.3,0.1-0.6,0.4-0.6,0.8c0,0.1,0,0.2,0,0.3c0,0.5,0.3,0.9,0.8,1.1h0.1c0,0.1,0,0.1,0,0.2c0,0,0,0.1,0,0.1
		c-0.1,0.1-0.2,0.1-0.3,0.2c-0.4,0-0.8,0.2-1.1,0.5l0,0c-0.1-0.1-0.3-0.3-0.4-0.4c0.2-0.3,0.5-0.8,0.2-1.1c-0.4-0.6-1.1-0.3-1.5-0.1
		 M51,36l-0.4,0.2c-0.4,0.3-0.7,0.4-1.1,0.1c-0.1-0.1-0.1-0.1,0.1-0.5c0.1-0.1,0.3-0.4,0.1-0.6l-0.4-0.2c-0.7-0.2-1.1-0.4-1-0.8
		c0-0.2,0.1-0.3,0.1-0.3c0,0,0.5,0,0.8,0h0.7c0.3-0.1,0.2-0.5,0.2-0.7c-0.1-0.5,0-0.5,0.1-0.5c0.4-0.1,0.8,0.3,1.1,0.6
		c0.3,0.2,0.4,0.3,0.6,0.3c0.2,0,0.3-0.3,0.3-0.4c0-0.1,0.1-0.3,0.2-0.3s0.7,0.4,1.1,1l0,0l0.1,0.1l0.1,0.3l0.2,0.5
		c-0.3-0.1-0.5-0.2-0.8-0.2c-0.6-0.1-2.5,0-2.5,0.3c0,0.3,1.7,0.2,2.3,0.3h0.4c-0.2,0.2-0.3,0.5-0.3,0.7c0,0.1,0,0.2,0,0.3v0.2h-0.1
		c-0.4-0.4-1-0.5-1.5-0.3C51.2,36,51.1,36,51,36 M51.7,39.5L51.7,39.5 M54.7,39.1c-0.1,0.1-0.1,0.2-0.1,0.3h-0.1
		c-0.1,0-0.1-0.2-0.2-0.1l-0.4,0.2c-0.3,0.2-1,0.9-1.4,0.5c-0.1-0.1-0.2-0.3-0.2-0.4L52.1,39l-0.6-0.1c-0.5,0-0.8,0-0.9-0.3
		c0-0.1,0-0.2,0-0.3c0-0.1,0.3-0.2,0.5-0.3l0.5-0.3v-0.7v-0.4c0.2-0.1,0.5,0,0.9,0.3c0.4,0.3,0.6,0.4,0.8,0.2s0.2-0.5,0.2-0.8
		c0-0.2,0-0.3,0-0.5c0.3-0.2,0.7-0.2,1,0l0,0c0.2,0.2,0.5,0.4,0.7,0.5c-0.1,0.4,0,0.7,0.3,1c0.2,0.1,0.3,0.3,0.5,0.3
		c-0.2,0.1-0.3,0.2-0.3,0.4c0,0,0,0,0,0.1c0,0.1,0,0.2,0.1,0.3C55.4,38.4,55,38.6,54.7,39.1 M59.6,40.7L59.6,40.7
		c-0.1-0.2-0.2-0.4-0.4-0.4c-0.1,0-0.3,0-0.4,0.1c-0.2,0.2-0.4,0.5-0.5,0.8c-0.2,0.5-0.4,1-1,1.1c-0.3,0-0.3,0-0.3-0.2
		c-0.1-0.2-0.2-0.6-0.6-0.6l-0.7,0.3c-0.3,0.1-1,0.5-1.1,0.4c-0.3-0.4,0-0.8,0.5-1.2l0.3-0.3c0.1-0.2,0.1-0.5-0.1-0.6
		c-0.2-0.2-0.3-0.3,0-0.6c0.2-0.3,0.6-0.4,1-0.3c0.2,0.1,0.4,0,0.6-0.1c0.1-0.1,0.1-0.1,0.1-0.2c0-0.2-0.1-0.3-0.2-0.4l-0.1-0.2
		c0,0,0.1,0,0.1,0c0.5-0.3,1.2,0.1,1.5,0.3s0.2,0.1,0.4,0.1c0.1,0,0.2-0.1,0.2-0.2c0-0.2,0-0.3-0.1-0.5l-0.2-0.4
		c0.1-0.1,0.2-0.1,0.4-0.1c0.1,0,0.3,0,0.4,0c-0.1,0.1-0.2,0.3-0.2,0.5c0,0.1,0,0.2,0,0.2c0.1,0.2,0.3,0.3,0.5,0.4
		c-0.6,0.2-1.2,0.5-1.7,1c-0.3,0.3-1,0.8-1,1c0.9-0.4,1.8-0.8,2.7-1.3c0.3-0.1,0.7-0.2,1-0.3v0.1c-0.1,0.6-0.4,1.2-0.8,1.8
		 M59.5,37.9l0.2-0.2l0.2-0.5c0-0.3-0.3-0.3-0.6-0.3h-0.4h-0.1c-0.4,0-0.8-0.2-1-0.6c0,0.1,0.2-0.1,0.2-0.1s0.4-0.4,0.2-0.7
		l-0.5-0.2c-0.6-0.1-0.7-0.2-0.7-0.4c0,0,0.1-0.1,0.2-0.2s0.4-0.2,0.4-0.5l-0.3-0.5c-0.4-0.3-0.5-0.5-0.3-0.9c0-0.1,0.1-0.2,0.2-0.2
		c0.3,0,0.8,0.3,1,0.4l0.2,0.1c0.3,0.1,0.5-0.2,0.6-0.4c0.1-0.2,0-0.1,0.1-0.2c0.5,0.2,0.8,0.6,0.8,1.1c0,0.1,0.1,0.3,0.3,0.3
		c0.1,0,0.3-0.1,0.3-0.2c0-0.2,0.1-0.4,0.3-0.5c0.4,0.5,0.6,1.1,0.6,1.8c0,0.1,0.1,0.3,0.2,0.3c0.1,0,0.3,0,0.4-0.1
		c0.1-0.1,0.1-0.2,0.2-0.3c0.1,0.1,0.4,0.6,0.5,1.8v0.2c-0.4,0-0.8-0.2-1.1-0.5l0,0l-0.1-0.2c-0.3-0.2-0.7-0.5-1.1-0.8
		c0,0-1-0.7-1.1-0.5c-0.1,0.2,0.8,1,0.8,1c0.4,0.3,0.7,0.5,1.1,0.8H61c0.3,0.3,0.5,0.6,0.7,0.9c-1.1,0.4-1.9,0.4-2.2,0.1 M58.5,51.9
		L58.5,51.9L58.5,51.9L58.5,51.9 M58.9,54.7c-0.4,0-0.7-0.1-1-0.3c-0.1-0.1-0.3-0.1-0.4,0c-0.3,0.2-0.6,0.3-0.9,0.3
		c-0.6,0-1.1-0.2-1.5-0.7c-0.2-0.5-0.2-1.1,0-1.5c0.3-0.5,0.9-0.8,1.4-0.7c0.6,0,1.2,0.2,1.6,0.7l1.3,2c0.1,0.1,0.2,0.1,0.2,0.2
		C59.4,54.7,59.2,54.8,58.9,54.7 M68,54.8c-0.4,0-0.7-0.1-1-0.3c-0.1-0.1-0.3-0.1-0.4,0c0,0-0.2,0.3-0.8,0.3c-0.5,0-1-0.3-1.3-0.7
		l-1.3-1.8c-0.1-0.1-0.1-0.1-0.2-0.2c0.2-0.1,0.4-0.1,0.6-0.1c0.3,0,0.7,0.1,0.9,0.3c0.1,0.1,0.3,0.1,0.4,0c0.2-0.2,0.5-0.3,0.8-0.3
		c0.5,0,1,0.3,1.4,0.7l1.3,1.9c0,0.1,0.1,0.1,0.2,0.2C68.4,54.7,68.2,54.7,68,54.8 M65.2,51.3c-0.2,0-0.4,0.1-0.5,0.2
		c-0.3-0.2-0.7-0.3-1.1-0.3h0c0.5-0.2,1.1-0.3,1.7-0.2V51.3 M67.5,52L67.5,52L67.5,52L67.5,52 M69.2,51.5c-0.4-0.2-0.7-0.3-1.1-0.3
		c-0.1,0-0.3,0-0.4,0c0.1-0.4,0.5-0.7,0.9-0.7c0.2,0,0.3,0.1,0.4,0.2C69.1,50.9,69.2,51.2,69.2,51.5L69.2,51.5 M76.9,54.7
		c-0.3,0-0.6-0.1-0.9-0.2c-0.1-0.1-0.3-0.1-0.4,0c-0.2,0.2-0.5,0.3-0.8,0.3c-0.5,0-1-0.3-1.4-0.7l-1.4-1.8C72,52.1,71.9,52,71.9,52
		c0.2-0.1,0.4-0.1,0.7-0.1c0.3,0,0.7,0.1,0.9,0.3c0.1,0.1,0.3,0.1,0.4,0c0.2-0.2,0.5-0.3,0.8-0.3c0.5,0,1,0.3,1.3,0.7l1.3,1.9
		c0.1,0.1,0.1,0.1,0.2,0.2C77.4,54.7,77.1,54.7,76.9,54.7 M71.5,40.4c-1.6,2.5-0.8,6.2-0.4,6.9l0.1,0.1c0.7,1.2,1.8,2.1,3.1,2.6
		l0.3,0.1c0.8,0.2,1.6,0.6,2.3,1.1c-0.3,0-0.6,0.1-0.9,0.3c-0.5-0.3-1.1-0.4-1.7-0.3L74,50.9c-0.4-0.6-0.9-1-1.6-1.2
		c-1-0.3-1.8-1-2.1-1.9c-0.3-0.8-0.4-1.6-0.4-2.4c0-0.8-0.2-1.7-0.4-2.5c-0.2,0.8-0.3,1.7-0.2,2.5c0,0.9,0.2,1.8,0.5,2.6
		c0.4,1.1,1.3,1.9,2.4,2.3c0.6,0.3,1.1,0.5,1.3,1.1v0.1c-0.3-0.1-0.6-0.2-0.9-0.2c-0.4,0-0.8,0.1-1.2,0.3c-0.3-0.2-0.7-0.3-1.1-0.3
		h-0.4c-0.1-0.3-0.2-0.7-0.4-0.9c-0.2-0.2-0.5-0.4-0.9-0.4c-0.7,0-1.3,0.5-1.6,1.5c0,0,0,0,0,0.1l0,0c-0.3-0.2-0.7-0.3-1.1-0.3
		c0-0.1,0-0.3,0-0.4l0,0c0,0,0-0.1,0-0.1c0-0.2,0.1-0.5,0.2-0.7c0.1-0.2,0.2-0.4,0.4-0.7c0.7-1.2,0.8-2.4,0.6-2.4
		c-0.4,0.7-0.8,1.4-1.1,2.1c-0.1,0.2-0.3,0.5-0.4,0.7c-0.1,0.2-0.2,0.4-0.2,0.7c-1.1-0.2-2.2,0.2-2.8,1.1l0,0l0,0
		c-0.3-0.2-0.7-0.3-1.1-0.3c-0.4,0-0.8,0.1-1.1,0.3h-0.1c1-0.6,2-1.2,3-1.7l0.5-0.3c1.5-0.9,2.4-2.4,2.5-4.1c0-0.2,0-0.2-1-1.9
		c-0.5-0.7-1-1.7-1.1-1.9c-0.6-1.4-1.7-2.5-3-3.2c0.3-0.1,0.6-0.2,0.9-0.3c0.2-0.1,0.3-0.2,0.4-0.4c0,0,0-0.1,0-0.1
		c0-0.2-0.1-0.3-0.2-0.5c0.2,0.1,0.4,0.1,0.6,0c0.2-0.2,0.4-0.4,0.3-0.7c0-0.3,0-0.6-0.1-0.9l0,0c0.2,0,0.8,0.5,0.8,2.4
		c-0.1,2.8,2.8,4.7,3,4.7c0.1,0,0.2,0,0.3-0.1c0.2-0.4,0.3-0.8,0.3-1.2c0-0.8-0.1-1.5-0.3-2.3c-0.5-2.8-2.1-3.3-2.8-3.4h-0.2
		c0.3-0.2,0.6-0.5,0.7-0.9c0,0,0,0.1,0.1,0.1c0.5,0.1,1,0.1,1.4-0.2l0,0c-0.1,1,0.2,2.1,0.7,2.9l0.9,1.5l0.4,0.8
		c0.1,0.1,0.2,0.2,0.3,0.1c0.5-0.1,0.9-2.8,0.9-2.8s0-0.3,0-0.4c0-0.8-0.1-1.5-0.4-2.3l0,0c0,0,0.1,0.1,0.1,0.1
		c0.2,0,0.3-0.1,0.4-0.2c0.1-0.5,0.2-0.9,0.3-1.3c0,0.1,0,0.2,0,0.3l0.1,0.6c0.2,0.2,0.4,0.1,0.9-0.1l0.7-0.3
		c-0.4,0.6-0.7,1.2-1,1.8c-0.2,0.7-0.3,1.5-0.3,2.3c0,0.4,0,0.9-0.2,1.3c0,0,0,0.1,0,0.1c0,0.1,0.1,0.2,0.2,0.3
		c0.1,0.1,0.3,0,0.4-0.1c0.6-0.8,1.2-1.5,1.8-2.2c-0.1,0.3-0.2,0.5-0.3,0.8l0,0c0,0.1,0,0.2,0.1,0.3c0.1,0.1,0.2,0.1,0.3,0
		c0.4-0.2,0.7-0.2,1.1-0.2l0,0c-1.2,0.4-2.2,1.2-2.8,2.3 M73.3,37.4c0.1-0.3,0.3-0.8,0.5-1.1c0.2-0.2,0.4-0.4,0.6-0.5
		c0.1,0,0.9-0.5,0.8-0.7c-0.1-0.2-0.9,0.1-1.1,0.2c-0.3,0.2-0.6,0.3-0.9,0.5c-0.3,0.2-0.6,0.4-0.9,0.7c-0.1-0.2-0.1-0.5,0.1-0.7
		l0.3-0.2c0.3-0.1,0.6-0.4,0.6-0.7c0.3,0.1,0.6,0.1,0.9,0c0.2-0.1,0.3-0.3,0.3-0.6h0.1c0.7,0.3,1.4,0.2,2-0.2
		c0.1-0.1,0.2-0.2,0.2-0.4c0,0,0-0.1-0.1-0.2c0.2,0,0.4,0,0.6,0c0,0,0,0.1,0,0.1l0,0c0,0.1-0.1,0.2-0.3,0.4l-0.4,0.4
		c0,0.1,0,0.1,0,0.2c0,0.1,0.1,0.3,0.2,0.4c0.1,0.1,0.1,0.2,0.1,0.3c0,0,0,0,0,0.1c0,0.4-0.4,0.5-1.1,0.5l-0.6,0.2
		c-0.1,0.1-0.1,0.2-0.1,0.3c0,0.2,0.1,0.3,0.2,0.4l0.1,0.2l-0.1,0.1c-0.3,0.1-0.6,0.2-0.9,0.2l-0.4,0.1c-0.3,0-0.6,0-1,0.1
		 M80.8,41.2c-0.2,0.2-0.4,0.2-0.8,0.1l-0.3-0.1c-0.2,0-0.3,0.1-0.4,0.3c-0.1,0.1-0.2,0.2-0.4,0.3c-0.2,0-0.6-0.3-0.8-0.5l-0.4-0.3
		c-0.2,0-0.4,0.1-0.4,0.3c-0.1,0.1-0.1,0.2-0.4,0.2s-0.6-0.8-0.8-1.1c-0.1-0.4-0.2-0.6-0.4-0.6c-0.2-0.1-0.4,0-0.5,0.2
		c-0.3-0.6-0.5-1.2-0.5-1.8c0.6,0.2,1.1,0.5,1.6,0.8c0.3,0.3,1,0.8,1.1,0.6c0.2-0.1-0.4-0.8-0.8-1.1c-0.4-0.3-0.8-0.5-1.2-0.7
		c0.6-0.3,1.4-0.4,2.1-0.3c0,0,0,0.1,0,0.1v0.3c0,0.3,0.3,0.3,1,0.4c0.4,0,0.7,0.1,1,0.2l0,0c0,0.1-0.1,0.1-0.1,0.2
		c-0.1,0.1-0.1,0.2-0.1,0.4c0,0.1,0,0.1,0,0.2c0.1,0.2,0.3,0.3,0.7,0.4c0.2,0,0.4,0.1,0.6,0.3l-0.1,0.1c-0.1,0.1-0.2,0.3-0.2,0.4
		c0,0,0,0.1,0,0.1l0.3,0.4c0.2,0.2,0.3,0.3,0.3,0.4C80.8,41.1,80.8,41.2,80.8,41.2 M79.8,38.7L79.8,38.7L79.8,38.7L79.8,38.7
		 M82.9,38.5c0,0.1-0.2,0.1-0.5,0.1l-0.5,0.1l-0.2,0.4c0,0.1,0,0.2-0.1,0.2c-0.2,0.1-0.4,0.1-0.6,0h-0.2c-0.2-0.1-0.3-0.1-0.5-0.2
		l-0.2-0.1c0.1-0.1,0.1-0.3,0.1-0.5c0-0.1,0-0.3-0.1-0.4c-0.2-0.3-0.7-0.3-1.4-0.4l-0.4-0.1c0-0.1,0-0.1,0-0.2
		c0-0.2-0.1-0.4-0.2-0.5c-0.5-0.2-1.2-0.3-1.7-0.1l-0.2-0.4h0.1c0.4,0,0.9-0.2,1.3-0.4c0.8,0.4,1.8,0.5,2.7,0.2l0.1-0.1
		c0.1,0.1,0.2,0.3,0.4,0.3h0.7c0.2,0,0.6-0.1,0.8,0c0.1,0.1,0.2,0.3,0.1,0.5l-0.1,0.5c0,0.2,0.2,0.3,0.4,0.3
		C83,38.1,83,38.2,82.9,38.5 M83.8,37.8l0.2,0.1C84,37.9,83.9,37.9,83.8,37.8 M85.9,37L85.9,37L85.9,37L85.9,37L85.9,37z M87.1,36.1
		c0,0.1-0.1,0.3-0.2,0.4c-0.2,0.2-0.6,0.1-0.9,0h-0.5c-0.2,0.1-0.2,0.3-0.2,0.5c0,0.2-0.1,0.4-0.2,0.5c-0.1,0.1-0.6-0.1-0.9-0.2
		c-0.2-0.1-0.5-0.2-0.7,0l-0.1,0.3c0,0.1,0,0.2-0.1,0.2c-0.2-0.2-0.4-0.3-0.6-0.4l0,0c0.2-0.4,0.1-1-0.3-1.2c0,0,0,0,0,0
		c-0.3-0.3-0.9-0.1-1.3-0.1l-0.4,0.1c-0.1-0.1-0.2-0.2-0.2-0.3c0.2,0,0.3-0.1,0.4-0.1h0.4c0.6,0,2.7,0.3,2.7,0.1s-1.2-0.7-2.1-0.7
		c0.3-0.3,0.6-0.7,0.7-1.1c0,0,0-0.1,0-0.1s0.1,0,0.1,0c0.1,0.1,0.2,0.2,0.2,0.3c0,0.2,0.1,0.3,0.3,0.4c0.2,0.1,0.3,0,0.6-0.2
		c0.3-0.2,1.1-0.7,1.4-0.4c0.2,0.1,0.2,0.4,0.1,0.6c-0.1,0.3-0.1,0.5,0.1,0.6l0.3,0.1C86.8,35.4,87.1,35.6,87.1,36.1"/>
	<g class="st1">
		<path class="st0" d="M147.9,142h7.4v1.2l-1.9,0.2l-0.5,0.4v11c0,2.1,0.4,3.7,1.3,4.6c0.9,1,2.2,1.4,4.1,1.4c1.9,0,3.2-0.5,4.1-1.4
			c0.9-1,1.3-2.5,1.3-4.6v-10.8l-0.6-0.5l-1.8-0.3V142h6.4v1.2l-1.8,0.3l-0.5,0.5v11c0,1.4-0.1,2.6-0.3,3.3c-0.2,0.8-0.5,1.4-1,2
			c-0.6,0.7-1.5,1.3-2.6,1.7c-1.1,0.4-2.3,0.6-3.7,0.6c-1.4,0-2.6-0.2-3.7-0.6c-1.1-0.4-1.9-1-2.5-1.7c-0.5-0.6-0.8-1.3-1-2
			c-0.2-0.8-0.3-1.9-0.3-3.3v-11.2l-0.5-0.4l-1.7-0.2V142z"/>
		<path class="st0" d="M168.5,142h7.3v1.2l-1.8,0.2l-0.2,0.4l4,6.2l4.3-6.1l-0.3-0.4l-1.8-0.3V142h6.2v1.2l-2,0.3l-5.5,7.9l5.9,9.3
			l2.1,0.4v1.2h-7.7v-1.2l2-0.2l0.2-0.4l-4.3-6.9l-4.8,6.8l0.2,0.5l2,0.2v1.2h-6.4v-1.2l2-0.4l6.1-8.5l-5.5-8.6l-2-0.4V142z"/>
		<path class="st0" d="M194.8,142c3.5,0,6.3,0.9,8.3,2.7c2,1.8,2.9,4.3,2.9,7.5c0,1.8-0.3,3.4-1,4.8c-0.6,1.4-1.6,2.6-2.8,3.5
			c-0.9,0.7-1.9,1.2-3,1.4c-1.1,0.3-2.6,0.4-4.4,0.4h-7.5v-1.2l1.7-0.1l0.5-0.4v-16.7l-0.5-0.4l-1.7-0.2V142H194.8z M192.3,143.4
			V161h2.4c2.8,0,4.8-0.7,6.2-2.2c1.4-1.5,2-3.7,2-6.6c0-2.9-0.7-5.1-2-6.6c-1.4-1.4-3.4-2.2-6.2-2.2H192.3z"/>
		<path class="st0" d="M233.5,161.7c-1,0.3-2,0.6-3,0.8c-1,0.2-2.1,0.3-3.1,0.3c-1,0-1.9-0.1-2.8-0.3c-0.9-0.2-1.7-0.5-2.4-0.9
			c-1.6-0.9-2.9-2.2-3.8-3.9c-0.9-1.7-1.4-3.5-1.4-5.4c0-3.2,1-5.7,2.9-7.6s4.5-2.9,7.6-2.9c0.9,0,1.9,0.1,2.9,0.3
			c1,0.2,2,0.4,3.1,0.8v4.7h-1.7l-0.5-2.8l-0.4-0.5c-0.6-0.3-1.1-0.5-1.7-0.6c-0.6-0.1-1.1-0.2-1.7-0.2c-2.3,0-4.1,0.8-5.4,2.3
			c-1.3,1.6-2,3.7-2,6.4c0,2.8,0.7,5.1,2.1,6.7c1.4,1.6,3.3,2.4,5.8,2.4c0.4,0,0.9,0,1.3-0.1s0.9-0.2,1.3-0.3l0.5-0.5l0.7-3.4h1.6
			V161.7z"/>
		<path class="st0" d="M248.4,159.1v1.7c-0.9,0.6-1.8,1-2.8,1.3c-1,0.3-1.9,0.5-2.9,0.5c-2,0-3.6-0.7-4.9-2.1
			c-1.2-1.4-1.9-3.2-1.9-5.4c0-2.3,0.7-4.1,2-5.6c1.3-1.4,3-2.2,5-2.2c1.7,0,3,0.5,4,1.6s1.5,2.5,1.5,4.4c0,0.2,0,0.4,0,0.6
			c0,0.1,0,0.3,0,0.4h-9.8v0.3c0,1.9,0.5,3.4,1.4,4.5s2.2,1.7,3.7,1.7c0.7,0,1.5-0.1,2.2-0.4C246.7,160.2,247.5,159.7,248.4,159.1z
			 M245.7,153.1v-0.5c0-1.2-0.3-2.2-0.8-2.8c-0.5-0.6-1.3-1-2.3-1c-1,0-1.9,0.4-2.6,1.2c-0.7,0.8-1.1,1.8-1.2,3H245.7z"/>
		<path class="st0" d="M250.6,162.4v-1.1l1.6-0.1l0.5-0.5v-11h-2.1v-0.9l3.5-1.1h1.2v2.8c0.5-0.5,1-1,1.5-1.5c0.5-0.5,1.1-1,1.7-1.4
			c0.1,0,0.2,0,0.3-0.1c0.1,0,0.3,0,0.5,0c0.3,0,0.6,0,0.9,0.1c0.3,0.1,0.6,0.2,0.9,0.3v2.6h-1c-0.2-0.2-0.4-0.4-0.7-0.5
			c-0.3-0.1-0.5-0.2-0.9-0.2c-0.5,0-1,0.2-1.5,0.5c-0.5,0.4-1.1,0.9-1.8,1.7v8.7l0.5,0.5l2.1,0.1v1.1H250.6z"/>
		<path class="st0" d="M263.9,149.6H262v-0.9l2-0.9l1.3-2.8h1.1v3.2h4.6v1.4h-4.6v8c0,1.3,0.2,2.2,0.5,2.6c0.4,0.4,1,0.7,2,0.7
			c0.3,0,0.7,0,1-0.1c0.4,0,0.7-0.1,1.1-0.2v1.1c-0.7,0.2-1.4,0.4-2,0.5c-0.7,0.1-1.3,0.2-1.9,0.2c-1.2,0-2-0.2-2.4-0.7
			c-0.5-0.4-0.7-1.2-0.7-2.4V149.6z"/>
		<path class="st0" d="M275.9,147.6h1.2v13l0.5,0.5l1.6,0.1v1.1h-6.8v-1.1l1.6-0.1l0.5-0.5v-11h-2.1v-0.9L275.9,147.6z M276.1,140.9
			c0.5,0,0.9,0.2,1.2,0.5c0.3,0.3,0.5,0.8,0.5,1.2c0,0.5-0.2,0.9-0.5,1.2c-0.3,0.3-0.8,0.5-1.2,0.5c-0.5,0-0.9-0.2-1.2-0.5
			c-0.3-0.3-0.5-0.7-0.5-1.2c0-0.5,0.2-0.9,0.5-1.2S275.6,140.9,276.1,140.9z"/>
		<path class="st0" d="M280.7,162.4v-1.1l1.6-0.1l0.5-0.5v-11H281v-1l1.9-0.4v-0.3c0-2.4,0.6-4.4,1.7-5.8c1.1-1.5,2.6-2.2,4.5-2.2
			c0.7,0,1.2,0.2,1.7,0.5c0.4,0.3,0.7,0.7,0.7,1.2c0,0.4-0.1,0.7-0.3,1c-0.2,0.3-0.5,0.5-0.9,0.6l-2.8-1.8c-0.7,0.3-1.1,0.8-1.5,1.6
			c-0.3,0.8-0.5,1.8-0.5,3.1v2.2h4.2v1.4h-4.2v11l0.5,0.5l1.9,0.1v1.1H280.7z"/>
		<path class="st0" d="M294.1,147.6h1.2v13l0.5,0.5l1.6,0.1v1.1h-6.8v-1.1l1.6-0.1l0.5-0.5v-11h-2.1v-0.9L294.1,147.6z M294.2,140.9
			c0.5,0,0.9,0.2,1.2,0.5c0.3,0.3,0.5,0.8,0.5,1.2c0,0.5-0.2,0.9-0.5,1.2c-0.3,0.3-0.8,0.5-1.2,0.5c-0.5,0-0.9-0.2-1.2-0.5
			c-0.3-0.3-0.5-0.7-0.5-1.2c0-0.5,0.2-0.9,0.5-1.2S293.8,140.9,294.2,140.9z"/>
		<path class="st0" d="M310.9,161.1c-0.8,0.5-1.7,0.9-2.5,1.1c-0.8,0.2-1.6,0.4-2.4,0.4c-2.1,0-3.7-0.7-4.9-2.1
			c-1.2-1.4-1.9-3.2-1.9-5.4c0-2.2,0.7-4.1,2-5.5c1.3-1.4,3.1-2.1,5.2-2.1c1.4,0,2.5,0.3,3.3,0.8c0.8,0.5,1.2,1.3,1.2,2.2
			c0,0.5-0.2,0.9-0.5,1.2c-0.3,0.3-0.7,0.4-1.2,0.4c-0.2,0-0.5,0-0.7-0.1c-0.2-0.1-0.5-0.2-0.7-0.3v-2.5c-0.2-0.1-0.5-0.2-0.7-0.3
			c-0.2-0.1-0.5-0.1-0.7-0.1c-1.3,0-2.4,0.6-3.2,1.7s-1.2,2.6-1.2,4.5c0,1.8,0.5,3.3,1.4,4.4s2.2,1.6,3.8,1.6c0.7,0,1.3-0.1,1.9-0.3
			c0.6-0.2,1.3-0.5,1.9-1V161.1z"/>
		<path class="st0" d="M321.7,160.6c-1,0.7-1.9,1.2-2.7,1.5c-0.8,0.3-1.6,0.5-2.3,0.5c-1.2,0-2.1-0.4-2.8-1.1
			c-0.7-0.7-1.1-1.6-1.1-2.8c0-1.3,0.5-2.3,1.6-3c1.1-0.7,3.5-1.6,7.3-2.5v-1c0-1.3-0.2-2.2-0.6-2.6c-0.4-0.5-1.1-0.7-2.2-0.7
			c-0.4,0-0.8,0-1.1,0.1c-0.4,0.1-0.8,0.2-1.2,0.4v2.5h-2.1c-0.4,0-0.6-0.1-0.7-0.2c-0.1-0.1-0.2-0.4-0.2-0.7c0-1,0.6-1.8,1.7-2.5
			c1.1-0.7,2.6-1,4.4-1c1.6,0,2.7,0.3,3.5,1c0.7,0.7,1.1,1.8,1.1,3.3v8.8l0.5,0.5l1.6,0.1v1.1h-4.3L321.7,160.6z M321.7,159.6v-5.3
			c-2.5,0.7-4.2,1.3-5,1.9c-0.8,0.6-1.2,1.3-1.2,2.3c0,0.8,0.2,1.4,0.7,1.8c0.4,0.4,1,0.7,1.8,0.7c0.5,0,1-0.1,1.6-0.3
			C320.2,160.4,320.9,160,321.7,159.6z"/>
		<path class="st0" d="M329.6,149.6h-1.9v-0.9l2-0.9l1.3-2.8h1.1v3.2h4.6v1.4h-4.6v8c0,1.3,0.2,2.2,0.5,2.6c0.4,0.4,1,0.7,2,0.7
			c0.3,0,0.7,0,1-0.1s0.7-0.1,1.1-0.2v1.1c-0.7,0.2-1.4,0.4-2,0.5c-0.7,0.1-1.3,0.2-1.9,0.2c-1.2,0-2-0.2-2.4-0.7
			c-0.5-0.4-0.7-1.2-0.7-2.4V149.6z"/>
		<path class="st0" d="M350.6,159.1v1.7c-0.9,0.6-1.8,1-2.8,1.3c-1,0.3-1.9,0.5-2.9,0.5c-2,0-3.6-0.7-4.9-2.1
			c-1.2-1.4-1.9-3.2-1.9-5.4c0-2.3,0.7-4.1,2-5.6c1.3-1.4,3-2.2,5-2.2c1.7,0,3,0.5,4,1.6c1,1.1,1.5,2.5,1.5,4.4c0,0.2,0,0.4,0,0.6
			c0,0.1,0,0.3,0,0.4h-9.8v0.3c0,1.9,0.5,3.4,1.4,4.5c0.9,1.1,2.2,1.7,3.7,1.7c0.7,0,1.5-0.1,2.2-0.4
			C348.9,160.2,349.7,159.7,350.6,159.1z M347.9,153.1v-0.5c0-1.2-0.3-2.2-0.8-2.8c-0.5-0.6-1.3-1-2.3-1c-1,0-1.9,0.4-2.6,1.2
			c-0.7,0.8-1.1,1.8-1.2,3H347.9z"/>
	</g>
</g>
</svg>
