<?xml version="1.0" encoding="utf-8"?>
<!-- Generator: Adobe Illustrator 25.0.0, SVG Export Plug-In . SVG Version: 6.00 Build 0)  -->
<svg version="1.1" id="Layer_1" xmlns="http://www.w3.org/2000/svg" xmlns:xlink="http://www.w3.org/1999/xlink" x="0px" y="0px"
	 viewBox="0 0 200 200" style="enable-background:new 0 0 200 200;" xml:space="preserve">
<style type="text/css">
	.st0{fill-rule:evenodd;clip-rule:evenodd;}
</style>
<path class="st0" d="M48.4,46.8c5.2,4.2,7.1,3.9,16.8,3.2l91.3-5.5c1.9,0,0.3-1.9-0.3-2.3l-15.2-11c-2.9-2.3-6.8-4.8-14.2-4.2
	l-88.4,6.4c-3.2,0.3-3.9,1.9-2.6,3.2L48.4,46.8z M53.9,68.1v96c0,5.2,2.6,7.1,8.4,6.8l100.3-5.8c5.8-0.3,6.5-3.9,6.5-8.1V61.7
	c0-4.2-1.6-6.4-5.2-6.1L59.1,61.7C55.2,62,53.9,63.9,53.9,68.1L53.9,68.1z M152.9,73.3c0.6,2.9,0,5.8-2.9,6.1l-4.8,1v70.9
	c-4.2,2.3-8.1,3.5-11.3,3.5c-5.2,0-6.5-1.6-10.3-6.4L91.9,98.7v48l10,2.3c0,0,0,5.8-8.1,5.8l-22.2,1.3c-0.6-1.3,0-4.5,2.3-5.2
	l5.8-1.6V85.8l-8.1-0.6c-0.6-2.9,1-7.1,5.5-7.4l23.9-1.6l32.9,50.3V82l-8.4-1c-0.6-3.5,1.9-6.1,5.2-6.4L152.9,73.3z M31,24.9
	l91.9-6.8c11.3-1,14.2-0.3,21.3,4.8l29.3,20.6c4.8,3.5,6.5,4.5,6.5,8.4v113.1c0,7.1-2.6,11.3-11.6,11.9l-106.7,6.4
	c-6.8,0.3-10-0.6-13.6-5.2l-21.6-28c-3.9-5.2-5.5-9-5.5-13.5V36.2C21,30.4,23.6,25.6,31,24.9z"/>
</svg>
