<svg id="Layer_1" data-name="Layer 1" xmlns="http://www.w3.org/2000/svg" viewBox="0 0 200 200"><defs><style>.cls-1{fill:#fecf2f;}.cls-2{fill:#060138;}</style></defs><path class="cls-1" d="M183.4,100q0,41,0,81.91c0,1.17-.19,1.53-1.47,1.53q-82-.06-164,0c-1.21,0-1.4-.3-1.4-1.43q0-82,0-164c0-1.1.13-1.45,1.38-1.45q82.08.08,164.15,0c1.14,0,1.32.26,1.32,1.35Q183.37,59,183.4,100ZM127.34,62.57c-.45-.3-.91-.57-1.34-.89q-15-11-30-22a4,4,0,0,0-2.52-.85c-4.78,0-9.56,0-14.33,0H77L92.32,69.91a5.56,5.56,0,0,1-2-1.36Q75.49,54.29,60.66,40a3.84,3.84,0,0,0-3-1.18c-4.72.06-9.45,0-14.17,0H41.64c.25.67.41,1.12.57,1.57q7.2,19.15,14.39,38.32a5.29,5.29,0,0,1,.32,3q-7.55,39.11-15.09,78.23c-.22,1.12.08,1.27,1.07,1.26,4.94,0,9.89-.07,14.82,0A2,2,0,0,0,60,159.63Q75.6,119.06,91.26,78.54a2.77,2.77,0,0,1,1-1.71c-.08.74-.11,1.28-.21,1.8q-7.39,40.56-14.82,81.1c-.21,1.14,0,1.5,1.22,1.48,4.89-.07,9.77-.09,14.66,0a2,2,0,0,0,2.29-1.61q15.78-44.71,31.64-89.42c.12-.35.13-.81.78-1.08-.39,2.39-.76,4.63-1.13,6.87q-4.14,24.78-8.3,49.56-2.83,17-5.73,34c-.23,1.36,0,1.71,1.46,1.68,4.94-.1,9.88-.07,14.82,0a1.46,1.46,0,0,0,1.69-1.23q16.41-50.59,32.9-101.18c.31-1,.16-1.37-.73-1.87Q147,48.19,131.14,39.35a2.81,2.81,0,0,0-1.34-.53H112.46l15.15,23.56A1.85,1.85,0,0,0,127.34,62.57Z"/><path class="cls-2" d="M127.61,62.38,112.46,38.82H129.8a2.81,2.81,0,0,1,1.34.53Q147,48.16,162.83,56.92c.89.5,1,.9.73,1.87q-16.5,50.58-32.9,101.18A1.46,1.46,0,0,1,129,161.2c-4.94,0-9.88-.08-14.82,0-1.42,0-1.69-.32-1.46-1.68q2.93-17,5.73-34,4.15-24.78,8.3-49.56c.37-2.24.74-4.48,1.13-6.87-.65.27-.66.73-.78,1.08q-15.84,44.7-31.64,89.42a2,2,0,0,1-2.29,1.61c-4.89-.1-9.77-.08-14.66,0-1.22,0-1.43-.34-1.22-1.48q7.44-40.54,14.82-81.1c.1-.52.13-1.06.21-1.8a2.77,2.77,0,0,0-1,1.71Q75.63,119.07,60,159.63a2,2,0,0,1-2.32,1.59c-4.93-.09-9.88-.06-14.82,0-1,0-1.29-.14-1.07-1.26q7.58-39.1,15.09-78.23a5.29,5.29,0,0,0-.32-3Q49.39,59.56,42.21,40.39c-.16-.45-.32-.9-.57-1.57h1.85c4.72,0,9.45,0,14.17,0a3.84,3.84,0,0,1,3,1.18Q75.45,54.31,90.34,68.55a5.56,5.56,0,0,0,2,1.36L77,38.82H79.1c4.77,0,9.55,0,14.33,0a4,4,0,0,1,2.52.85q15,11,30.05,22c.43.32.89.59,1.34.89l.26.2Z"/><path class="cls-1" d="M127.61,62.38v.39l-.26-.2A1.85,1.85,0,0,1,127.61,62.38Z"/></svg>