<svg id="Layer_1" data-name="Layer 1" xmlns="http://www.w3.org/2000/svg" viewBox="0 0 200 200"><defs><style>.cls-1{fill:#fc63a1;}.cls-2{fill:#fefefe;}</style></defs><path class="cls-1" d="M174.44,41.8c-.57-.3-.62.87-1,.46-.56-.56-1.33-1.13-1-2.14C173.4,40.3,173.88,41.1,174.44,41.8Z"/><path class="cls-1" d="M118.75,189.36c1.6-.42,3.23-.08,4.84-.19A20.63,20.63,0,0,1,118.75,189.36Z"/><path class="cls-1" d="M13.32,110.76a20.53,20.53,0,0,1-.19,4.36A16.76,16.76,0,0,1,13.32,110.76Z"/><path class="cls-1" d="M13.15,119.38c.15,1.23.69,2.44.19,3.7A17,17,0,0,1,13.15,119.38Z"/><path class="cls-1" d="M111.56,189.16c1.45.12,2.91-.21,4.35.19A19.2,19.2,0,0,1,111.56,189.16Z"/><path class="cls-1" d="M17,139.78c.46-.08.77,0,.75.58s0,.85,0,1.27A3.58,3.58,0,0,1,17,139.78Z"/><path class="cls-1" d="M177.88,45.52c-.3-.34-.89-.47-.82-1.1A1.57,1.57,0,0,1,177.88,45.52Z"/><path class="cls-1" d="M14,104.11c-.07.63.26,1.31-.23,1.88A3.66,3.66,0,0,1,14,104.11Z"/><path class="cls-1" d="M13.52,108.77c0,.64.21,1.3-.18,1.9A3.73,3.73,0,0,1,13.52,108.77Z"/><path class="cls-1" d="M176.81,44.15c-.46,0-.72-.15-.67-.64A1.09,1.09,0,0,1,176.81,44.15Z"/><path class="cls-1" d="M16.13,137.39c.21,0,.5-.07.56.22s-.23.22-.39.27C16.09,137.77,16.1,137.58,16.13,137.39Z"/><path class="cls-1" d="M16.39,138.33c.51.08.42.45.38.8A1.13,1.13,0,0,1,16.39,138.33Z"/><path class="cls-1" d="M13.76,106c0,.24.06.49-.15.69C13.57,106.43,13.53,106.18,13.76,106Z"/><path class="cls-1" d="M177,44.39l-.2-.21Z"/><path class="cls-1" d="M16.86,139.51l.16.27Z"/><path class="cls-1" d="M175.84,43.19a.28.28,0,0,1-.15-.15Z"/><path class="cls-2" d="M51.52,80.9c0-3.43-.26-6.86.43-10.26C53.89,61,59.27,54.27,68.74,51.17c7.26-2.38,14.54-1.7,21.77.2A62,62,0,0,1,101,55.2a2,2,0,0,0,1.82,0,65,65,0,0,1,15.29-4.85c7.43-1.22,14.7-1,21.58,2.53,1.17.6,2.26,1.36,3.39,2.05h0l.25.22h0l.24.2c.21.19.34.48.66.52a.76.76,0,0,0,.5.46A43.15,43.15,0,0,1,148,60.09a14,14,0,0,0,1.58,2.37v0a.75.75,0,0,0,.3.62l.07.23.15.25c.64,1.76,1.31,3.5,1.79,5.33a46.24,46.24,0,0,1,.87,5.2c0,1.72,0,3.44,0,5.16a55.58,55.58,0,0,1-4.08,16.84,12.16,12.16,0,0,1-1.07,2.52,3.18,3.18,0,0,0,0,3.58,53.74,53.74,0,0,1,4.18,12.56,39.51,39.51,0,0,1,.87,12.54c-.78,8.22-4.24,15-11.28,19.62a26.66,26.66,0,0,1-5.06,2.41c-5.51,2.17-11.17,2-16.86,1.24A56,56,0,0,1,103,145.49a2.09,2.09,0,0,0-1.87,0,54.25,54.25,0,0,1-7.77,3.19,56.32,56.32,0,0,1-14.21,2.35A30.93,30.93,0,0,1,65,148.15a23.77,23.77,0,0,1-8.5-7.05c-.17-.3-.27-.64-.6-.83a28.6,28.6,0,0,1-4.15-10.22,27.22,27.22,0,0,1-.33-4.15c0-1.08,0-2.17,0-3.25a39.83,39.83,0,0,1,1.52-10.46,56.28,56.28,0,0,1,3.55-9.86,3.77,3.77,0,0,0,0-3.64,58.73,58.73,0,0,1-3.88-11.45.68.68,0,0,0-.18-.7l-.06-.47a.68.68,0,0,0-.18-.69l0-.25a.83.83,0,0,0-.18-.75l-.09-1.12a.67.67,0,0,0-.16-.69h0a3.12,3.12,0,0,0-.22-1.65Zm50.62,50.3c.3-.17.6-.32.9-.51a90.46,90.46,0,0,0,29.42-29.41,1.41,1.41,0,0,0,0-1.77,90.85,90.85,0,0,0-29.41-29.42,1.47,1.47,0,0,0-1.8,0,88.22,88.22,0,0,0-11.13,8.12A90,90,0,0,0,71.77,99.56a1.41,1.41,0,0,0,0,1.7,90.85,90.85,0,0,0,29.51,29.48C101.54,130.91,101.83,131,102.14,131.2ZM88.86,63.59C84.11,62.2,79.61,61.44,75,62.2c-5.46.89-9.17,3.84-10.68,9.3a22.23,22.23,0,0,0-.51,8.24,29.76,29.76,0,0,0,1.58,7.32A106.56,106.56,0,0,1,88.86,63.59Zm26.54,0a106.87,106.87,0,0,1,23.52,23.52c1.48-5,2.23-9.85,1.19-14.83a11.91,11.91,0,0,0-9.37-9.78C125.63,61.23,120.62,62.1,115.4,63.59ZM88.85,137.21a107.61,107.61,0,0,1-23.53-23.53c-1.5,5.2-2.34,10.2-1.1,15.31a11.69,11.69,0,0,0,8.3,9C77.91,139.64,83.22,138.81,88.85,137.21Zm26.58,0c5.2,1.55,10.14,2.29,15.18,1.13a11.67,11.67,0,0,0,8.49-6.71c1.86-4.07,1.73-8.34,1.07-12.63a23.76,23.76,0,0,0-1.31-5.22A107.8,107.8,0,0,1,115.43,137.19Z"/><path class="cls-1" d="M149.59,62.46A14,14,0,0,1,148,60.09c.58.16,1.09.22,1-.67,0-.19,0-.41.26-.45a.62.62,0,0,1,.42.11c.25.19.15.37,0,.57s-.43.6-.18.68c1.83.54.16,1.36.2,2A.36.36,0,0,1,149.59,62.46Z"/><path class="cls-1" d="M152.78,79.29c0-1.72,0-3.44,0-5.16.07,0,.19.05.2.09a13,13,0,0,1,0,5S152.85,79.26,152.78,79.29Z"/><path class="cls-1" d="M51.42,122.65c0,1.08,0,2.17,0,3.25A6.39,6.39,0,0,1,51.42,122.65Z"/><path class="cls-1" d="M17.59,137.7c-.38-.34-.34-.71-.15-1.17C18,136.91,17.67,137.33,17.59,137.7Z"/><path class="cls-1" d="M51.75,87.69c.23.49.33.79,0,1.14A.85.85,0,0,1,51.75,87.69Z"/><path class="cls-1" d="M55.92,140.27c.33.19.43.53.6.83C55.79,141.21,55.54,141,55.92,140.27Z"/><path class="cls-1" d="M149.89,63.12a.75.75,0,0,1-.3-.62.47.47,0,0,1,.65.23C150.38,63.05,150.11,63.08,149.89,63.12Z"/><path class="cls-1" d="M51.51,80.91a3.12,3.12,0,0,1,.22,1.65C51.28,82.06,51.57,81.47,51.51,80.91Z"/><path class="cls-1" d="M52.21,85.38a.68.68,0,0,1,.18.69C52.16,85.89,51.77,85.74,52.21,85.38Z"/><path class="cls-1" d="M52.45,86.54a.68.68,0,0,1,.18.7C52.39,87.06,52,86.91,52.45,86.54Z"/><polygon class="cls-1" points="13.76 105.99 13.76 105.99 13.76 105.99 13.76 105.99"/><path class="cls-1" d="M187.87,62.58a48.14,48.14,0,0,0-10-17.06c-.3-.34-.89-.47-.82-1.1l0,0-.2-.21,0,0c-.46,0-.72-.15-.67-.64l-.3-.32a.28.28,0,0,1-.15-.15l-1.25-1.24c-.57-.3-.62.87-1,.46-.56-.56-1.33-1.13-1-2.14L171.29,39h0c-.37-.34-.71-.72-1.11-1-9.07-7.12-19.29-12-30.16-15.75-3.25-1.11-6.45-2.35-9.76-3.3a211.78,211.78,0,0,0-24.88-5.81A131,131,0,0,0,89.46,11.4a77.63,77.63,0,0,0-17.8,1.3,53.53,53.53,0,0,0-18.81,7.35c-7.54,4.82-13.32,11.35-18,18.86-5.69,9-9.58,18.88-12.78,29a215,215,0,0,0-6.75,27A62.47,62.47,0,0,0,14,104.1h0c-.07.63.26,1.3-.23,1.88,0,.24.06.49-.15.69l-.09,2.09c0,.64.21,1.3-.18,1.9l0,.09a20.53,20.53,0,0,1-.19,4.36,31.87,31.87,0,0,0,0,4.26c.15,1.23.69,2.44.19,3.7a55.17,55.17,0,0,0,.79,6.42,52.11,52.11,0,0,0,2,7.89c.21,0,.5-.07.56.22s-.23.22-.39.26l.09.46c.51.08.42.45.38.8l.09.38.16.27h0c.46-.08.77,0,.75.58s0,.85,0,1.27a2.08,2.08,0,0,0,.33,1c4,9,10.33,16.14,18.23,21.94C45.1,171,55,175.39,65.19,179.06c5.58,2,11.3,3.61,17,5.14,3.88,1.05,7.8,1.92,11.76,2.65s7.77,1.32,11.68,1.84c1.95.26,3.94.32,5.91.47,1.45.12,2.91-.21,4.35.19h2.84c1.6-.42,3.23-.08,4.84-.19a60.66,60.66,0,0,0,13.92-2.26,51.33,51.33,0,0,0,21-11.83,57.52,57.52,0,0,0,8.45-9.72,96,96,0,0,0,9-16.25,179.37,179.37,0,0,0,7.15-19.51A181.08,181.08,0,0,0,190,98.18c.41-3.25.83-6.52,1-9.77A69,69,0,0,0,187.87,62.58ZM17.59,137.7c-.38-.34-.34-.71-.15-1.17C18,136.91,17.67,137.33,17.59,137.7ZM148.41,59.31h0c-.07,0-.15-.09-.19-.07S148.34,59.28,148.41,59.31ZM55.06,141c-.06,0-.17,0-.18-.09s0-.13.07-.19l.19.08A1.67,1.67,0,0,1,55.06,141ZM153,79.2s-.14.06-.21.09a55.58,55.58,0,0,1-4.08,16.84,12.16,12.16,0,0,1-1.07,2.52,3.18,3.18,0,0,0,0,3.58,53.74,53.74,0,0,1,4.18,12.56,39.51,39.51,0,0,1,.87,12.54c-.78,8.22-4.24,15-11.28,19.62a26.66,26.66,0,0,1-5.06,2.41c-5.51,2.17-11.17,2-16.86,1.24A56,56,0,0,1,103,145.49a2.09,2.09,0,0,0-1.87,0,54.25,54.25,0,0,1-7.77,3.19,56.32,56.32,0,0,1-14.21,2.35A30.93,30.93,0,0,1,65,148.15a23.77,23.77,0,0,1-8.5-7.05c-.73.11-1-.13-.6-.83a28.6,28.6,0,0,1-4.15-10.22,27.22,27.22,0,0,1-.33-4.15,6.39,6.39,0,0,1,0-3.25,39.83,39.83,0,0,1,1.52-10.46,56.28,56.28,0,0,1,3.55-9.86,3.77,3.77,0,0,0,0-3.64,58.73,58.73,0,0,1-3.88-11.45c-.24-.18-.63-.33-.18-.7l-.06-.47c-.23-.18-.62-.33-.18-.69,0-.09,0-.17,0-.25-.27-.2-.2-.48-.18-.75l-.09-1.12c-.22-.19-.17-.45-.16-.69h0c-.45-.5-.16-1.09-.22-1.65h0c0-3.43-.26-6.86.43-10.26C53.89,61,59.27,54.27,68.74,51.17c7.26-2.38,14.54-1.7,21.77.2A62,62,0,0,1,101,55.2a2,2,0,0,0,1.82,0,65,65,0,0,1,15.29-4.85c7.43-1.22,14.7-1,21.58,2.53,1.17.6,2.26,1.36,3.39,2.05h0l.25.22h0l.24.2c.21.19.34.48.66.53s.5.11.5.45A43.15,43.15,0,0,1,148,60.09c.58.16,1.09.22,1-.66,0-.2,0-.42.26-.46a.64.64,0,0,1,.42.11c.25.19.15.37,0,.57s-.43.6-.18.68c1.83.54.16,1.36.2,2a.36.36,0,0,1,0,.11v0a.47.47,0,0,1,.65.23c.14.32-.13.35-.35.39,0,.08.05.15.07.23l.26.1-.11.15c.64,1.76,1.31,3.5,1.79,5.33a46.24,46.24,0,0,1,.87,5.2c.07,0,.19.05.2.09A13,13,0,0,1,153,79.2ZM51.75,87.69c.23.49.33.79,0,1.14A.85.85,0,0,1,51.75,87.69Z"/><path class="cls-1" d="M55.14,140.84a1.67,1.67,0,0,1-.08.2c-.06,0-.17,0-.18-.09s0-.13.07-.19Z"/><path class="cls-1" d="M144.73,56.34a.76.76,0,0,1-.5-.46C144.56,55.86,144.73,56,144.73,56.34Z"/><path class="cls-1" d="M51.74,82.57a.67.67,0,0,1,.16.69C51.68,83.07,51.73,82.81,51.74,82.57Z"/><path class="cls-1" d="M52,84.38a.83.83,0,0,1,.18.75C51.9,84.93,52,84.65,52,84.38Z"/><path class="cls-1" d="M150.11,63.6l-.15-.25.26.1Z"/><path class="cls-1" d="M143.57,55.36l-.24-.2Z"/><path class="cls-1" d="M143.33,55.16l-.25-.22Z"/><path class="cls-1" d="M102.14,131.2c-.31-.16-.6-.29-.86-.46a90.85,90.85,0,0,1-29.51-29.48,1.41,1.41,0,0,1,0-1.7A90,90,0,0,1,90.12,78.19a88.22,88.22,0,0,1,11.13-8.12,1.47,1.47,0,0,1,1.8,0,90.85,90.85,0,0,1,29.41,29.42,1.41,1.41,0,0,1,0,1.77A90.46,90.46,0,0,1,103,130.69C102.74,130.88,102.44,131,102.14,131.2Z"/><path class="cls-1" d="M88.86,63.59a106.56,106.56,0,0,0-23.5,23.47,29.76,29.76,0,0,1-1.58-7.32,22.23,22.23,0,0,1,.51-8.24C65.8,66,69.51,63.09,75,62.2,79.61,61.44,84.11,62.2,88.86,63.59Z"/><path class="cls-1" d="M115.4,63.59c5.22-1.49,10.23-2.36,15.34-1.09a11.91,11.91,0,0,1,9.37,9.78c1,5,.29,9.8-1.19,14.83A106.87,106.87,0,0,0,115.4,63.59Z"/><path class="cls-1" d="M88.85,137.21c-5.63,1.6-10.94,2.43-16.33.79a11.69,11.69,0,0,1-8.3-9c-1.24-5.11-.4-10.11,1.1-15.31A107.61,107.61,0,0,0,88.85,137.21Z"/><path class="cls-1" d="M115.43,137.19a107.8,107.8,0,0,0,23.43-23.43,23.76,23.76,0,0,1,1.31,5.22c.66,4.29.79,8.56-1.07,12.63a11.67,11.67,0,0,1-8.49,6.71C125.57,139.48,120.63,138.74,115.43,137.19Z"/></svg>