<svg id="Layer_1" data-name="Layer 1" xmlns="http://www.w3.org/2000/svg" viewBox="0 0 200 200"><defs><style>.cls-1{fill:#adadad;}.cls-2{fill:none;}</style></defs><path class="cls-1" d="M142.25,114.83h0a8.43,8.43,0,0,0-8.51,8.51,8.54,8.54,0,0,0,8.49,8.55h0a8.53,8.53,0,1,0,0-17.06Z"/><path class="cls-2" d="M133.32,150.89a23.36,23.36,0,0,1,4.26-1.3A21.23,21.23,0,0,0,133.32,150.89Z"/><path class="cls-2" d="M149.55,150.34c.31.1.64.17.95.29C150.19,150.51,149.86,150.45,149.55,150.34Z"/><path class="cls-2" d="M49.73,75.28A4.81,4.81,0,0,0,45,70.51a4.68,4.68,0,0,0-4.77,4.77,4.77,4.77,0,1,0,9.54,0Z"/><path class="cls-2" d="M142.57,86.34a43.56,43.56,0,0,1,13.19,2,0,0,0,0,0,0,0V45.18s0,0,0,0L118.28,60.9s0,0,0,0V93.77s0,0,0,0A43.41,43.41,0,0,1,142.57,86.34Zm-21.9-10a2.67,2.67,0,0,1,3.68-1.31,14.47,14.47,0,0,1,5.86,5.64,2.77,2.77,0,0,1-.87,3.69,3.94,3.94,0,0,1-1.52.44,2.41,2.41,0,0,1-2.17-1.31A11.08,11.08,0,0,0,122,80.05,2.66,2.66,0,0,1,120.67,76.37Z"/><path class="cls-2" d="M137.6,149.59a24.07,24.07,0,0,1,4.37-.43A22.33,22.33,0,0,0,137.6,149.59Z"/><path class="cls-2" d="M145.91,149.42a29.56,29.56,0,0,0-3.44-.29,24.16,24.16,0,0,1,3.72.36C146.09,149.48,146,149.43,145.91,149.42Z"/><path class="cls-2" d="M25.87,60.81s0,0,0,0v85.92s0,0,0,0l37.25-15.66a0,0,0,0,0,0,0V45.18s0,0,0,0Zm16.7,26.62a4.74,4.74,0,0,1-.22-1.74A10.82,10.82,0,1,1,48,85.48V87a2.69,2.69,0,0,1-2.6,2.82A2.53,2.53,0,0,1,42.57,87.43Zm6.29,19.31A1.68,1.68,0,0,1,48,107a3.05,3.05,0,0,1-2.6-2,52.55,52.55,0,0,1-1.52-6.73,2.64,2.64,0,0,1,5.21-.86,25.11,25.11,0,0,0,1.3,6.07A2.59,2.59,0,0,1,48.86,106.74ZM61,117.58a2.6,2.6,0,0,1-2.6,2h-.65a15.23,15.23,0,0,1-6.73-3.9,2.76,2.76,0,0,1,3.91-3.91,10.13,10.13,0,0,0,4.33,2.61A2.69,2.69,0,0,1,61,117.58Z"/><path class="cls-2" d="M109.59,101.26V81.47s0,0,0,0c-.4.25-.81.52-1.25.78h0a3.94,3.94,0,0,1-1.52.44,2.21,2.21,0,0,1-2.17-1.09,2.56,2.56,0,0,1,.65-3.69,21,21,0,0,1,4.31-2.56l0,0V60.62s0,0,0,0L72.32,44.94s0,0,0,0v66.32s0,0,0,0c.33-.21.68-.44,1.06-.66a2.65,2.65,0,0,1,3,4.34c-1.46.87-2.82,1.65-4.15,2.33,0,0,0,0,0,0l-.16,13.53s0,0,0,0l29.2,12.26a0,0,0,0,0,0,0,47.43,47.43,0,0,1-2.15-13.61,43.06,43.06,0,0,1,10.39-28.23S109.59,101.27,109.59,101.26ZM89.43,102.4c-1.74,1.95-3.26,3.47-4.56,5a2.34,2.34,0,0,1-2,.86,3,3,0,0,1-2-.65,2.73,2.73,0,0,1,0-3.9,50.25,50.25,0,0,0,4.34-4.77,2.7,2.7,0,1,1,4.12,3.47Zm11.28-12.8c-1.09,1.3-2.39,2.82-4.12,4.77a3.91,3.91,0,0,1-2.17.87,2.5,2.5,0,0,1-1.74-.65,2.79,2.79,0,0,1-.43-3.91c1.73-2,3-3.69,4.34-5a2.75,2.75,0,0,1,3.9-.21A3.25,3.25,0,0,1,100.71,89.6Z"/><path class="cls-2" d="M130.69,152.29c.55-.32,1.09-.63,1.67-.9C131.8,151.67,131.23,152,130.69,152.29Z"/><path class="cls-2" d="M142.25,114.83h0a8.43,8.43,0,0,0-8.51,8.51,8.54,8.54,0,0,0,8.49,8.55h0a8.53,8.53,0,1,0,0-17.06Z"/><path class="cls-2" d="M142.57,94.94a34.68,34.68,0,0,0-24.14,59.59c5.62-7.84,13.59-12,23.73-12.4h.08c10.39.41,18.48,4.7,24.09,12.77a34.68,34.68,0,0,0-23.76-60Zm10.64,39.28a15.35,15.35,0,0,1-10.9,4.55h-.05a15.42,15.42,0,0,1-.07-30.83h.08a15.43,15.43,0,0,1,10.94,26.28Z"/><path class="cls-1" d="M123.83,158.82a34.59,34.59,0,0,0,37.05.28,22,22,0,0,0-10.38-8.47c-.31-.12-.64-.19-.95-.29a23,23,0,0,0-3.36-.85,24.16,24.16,0,0,0-3.72-.36c-.17,0-.33,0-.5,0a24.07,24.07,0,0,0-4.37.43h0a23.36,23.36,0,0,0-4.26,1.3c-.33.15-.64.34-1,.5-.58.27-1.12.58-1.67.9A24.83,24.83,0,0,0,123.83,158.82Z"/><path d="M48,87V85.48a10.05,10.05,0,1,0-5.64.21,4.74,4.74,0,0,0,.22,1.74,2.53,2.53,0,0,0,2.82,2.38A2.69,2.69,0,0,0,48,87Zm-7.8-11.71A4.68,4.68,0,0,1,45,70.51a4.77,4.77,0,1,1-4.77,4.77Z"/><path d="M50.38,103.48a25.11,25.11,0,0,1-1.3-6.07,2.64,2.64,0,0,0-5.21.86A52.55,52.55,0,0,0,45.39,105a3.05,3.05,0,0,0,2.6,2,1.68,1.68,0,0,0,.87-.21A2.59,2.59,0,0,0,50.38,103.48Z"/><path d="M59.27,114.33a10.13,10.13,0,0,1-4.33-2.61A2.76,2.76,0,0,0,51,115.63a15.23,15.23,0,0,0,6.73,3.9h.65a2.6,2.6,0,0,0,2.6-2A2.69,2.69,0,0,0,59.27,114.33Z"/><path d="M96.59,85.69c-1.31,1.3-2.61,3-4.34,5a2.79,2.79,0,0,0,.43,3.91,2.5,2.5,0,0,0,1.74.65,3.91,3.91,0,0,0,2.17-.87c1.73-2,3-3.47,4.12-4.77a3.25,3.25,0,0,0-.22-4.12A2.75,2.75,0,0,0,96.59,85.69Z"/><path d="M85.31,98.93A50.25,50.25,0,0,1,81,103.7a2.73,2.73,0,0,0,0,3.9,3,3,0,0,0,2,.65,2.34,2.34,0,0,0,2-.86c1.3-1.52,2.82-3,4.56-5a2.7,2.7,0,1,0-4.12-3.47Z"/><path d="M122,80.05a11.08,11.08,0,0,1,3.68,3.47,2.41,2.41,0,0,0,2.17,1.31,3.94,3.94,0,0,0,1.52-.44,2.77,2.77,0,0,0,.87-3.69,14.47,14.47,0,0,0-5.86-5.64,2.76,2.76,0,0,0-2.38,5Z"/><path d="M185.83,129.51a43.52,43.52,0,0,0-20.49-36.82,2.13,2.13,0,0,1-1-1.8V38.19a4.35,4.35,0,0,0-2-3.58c-.17-.12-.33-.26-.49-.39a3.34,3.34,0,0,0-.53-.37,2.92,2.92,0,0,0-2.61-.22c-10.91,5-44.28,18.74-44.28,18.74a2.2,2.2,0,0,1-1.67,0L68.87,33.8a2.12,2.12,0,0,0-.83-.17L18.77,54.05a4.3,4.3,0,0,0-2.15,3.88v95.88a4.11,4.11,0,0,0,2.26,3.72,4.76,4.76,0,0,0,2.29.62,3.58,3.58,0,0,0,1.81-.38l43.58-18.43a2.1,2.1,0,0,1,1.65,0L107,155.45a2.11,2.11,0,0,1,.87.67,44.28,44.28,0,0,0,12,10.68,22.59,22.59,0,0,1,10.8-14.51c.54-.34,1.11-.62,1.67-.9.33-.15.62-.36,1-.5a21.23,21.23,0,0,1,4.26-1.3h0a22.33,22.33,0,0,1,4.37-.43,3.31,3.31,0,0,1,.33,0h.17a29.56,29.56,0,0,1,3.44.29c.1,0,.18.06.28.07a24,24,0,0,1,3.36.85c.31.11.64.17.95.29a22.24,22.24,0,0,1,14.27,16.15A43.52,43.52,0,0,0,185.83,129.51ZM63.17,131.1a0,0,0,0,1,0,0L25.9,146.78s0,0,0,0V60.83s0,0,0,0L63.13,45.15s0,0,0,0Zm55.1-70.18s0,0,0,0l37.48-15.75s0,0,0,0V88.3a0,0,0,0,1,0,0,43.78,43.78,0,0,0-37.45,5.47s0,0,0,0ZM99.19,129.51a47.43,47.43,0,0,0,2.15,13.61,0,0,0,0,1,0,0L72.1,130.9s0,0,0,0l.16-13.53s0,0,0,0c1.33-.68,2.69-1.46,4.15-2.33a2.65,2.65,0,0,0-3-4.34c-.38.22-.73.45-1.06.66,0,0,0,0,0,0V45s0,0,0,0l37.25,15.65s0,0,0,0V75.29l0,0a21,21,0,0,0-4.31,2.56,2.56,2.56,0,0,0-.65,3.69,2.21,2.21,0,0,0,2.17,1.09,3.94,3.94,0,0,0,1.52-.44h0c.44-.26.85-.53,1.25-.78,0,0,0,0,0,0v19.79s0,0,0,0A43.06,43.06,0,0,0,99.19,129.51Zm43.05,12.62h-.08c-10.14.39-18.11,4.56-23.73,12.4a34.7,34.7,0,1,1,47.9.37C160.72,146.83,152.63,142.54,142.24,142.13Z"/><path d="M137.58,149.59h0Z"/><path d="M132.36,151.39c.32-.16.63-.35,1-.5C133,151,132.69,151.24,132.36,151.39Z"/><path d="M142.34,149.12h0a3.31,3.31,0,0,0-.33,0c.17,0,.33,0,.5,0Z"/><path d="M150.5,150.63a22,22,0,0,1,10.38,8.47,34.59,34.59,0,0,1-37-.28,24.83,24.83,0,0,1,6.86-6.53,22.59,22.59,0,0,0-10.8,14.51,43,43,0,0,0,44.88,0,22.24,22.24,0,0,0-14.27-16.15Z"/><path d="M146.19,149.49a23,23,0,0,1,3.36.85A24,24,0,0,0,146.19,149.49Z"/><path d="M142.27,107.94h-.08a15.42,15.42,0,0,0,.07,30.83h.05a15.42,15.42,0,0,0,0-30.83Zm0,23.95h0a8.54,8.54,0,0,1-8.49-8.55,8.43,8.43,0,0,1,8.51-8.51h0a8.53,8.53,0,1,1,0,17.06Z"/><path class="cls-1" d="M44.94,70.55h0a4.69,4.69,0,0,0-4.74,4.74,4.74,4.74,0,0,0,4.72,4.76h0a4.77,4.77,0,0,0,3.39-8.11A4.71,4.71,0,0,0,44.94,70.55Z"/></svg>