<?xml version="1.0" encoding="utf-8"?>
<!-- Generator: Adobe Illustrator 25.3.0, SVG Export Plug-In . SVG Version: 6.00 Build 0)  -->
<svg version="1.1" id="Layer_1" xmlns="http://www.w3.org/2000/svg" xmlns:xlink="http://www.w3.org/1999/xlink" x="0px" y="0px"
	 viewBox="0 0 433.6 200" style="enable-background:new 0 0 433.6 200;" xml:space="preserve">
<style type="text/css">
	.st0{fill:#494949;}
	.st1{enable-background:new    ;}
	.st2{fill-rule:evenodd;clip-rule:evenodd;fill:#494949;}
</style>
<g>
	<g>
		<path class="st0" d="M81.2,97c0.9,0,1.5,0,2.1,0.3s1.5,0.6,2.1,0.9l1.5-3.9c-1.8-0.9-3.6-1.2-5.7-1.2c-1.8,0-3.3,0.3-4.8,1.2
			c-1.5,0.9-2.4,1.8-3,3.3s-1.2,3-1.2,5.1c0,3,0.6,5.4,2.1,7.2c1.5,1.5,3.6,2.4,6.3,2.4c2.1,0,3.6-0.3,5.1-0.9v-4.2
			c-0.9,0.3-1.5,0.6-2.4,0.9s-1.5,0.3-2.4,0.3c-2.7,0-4.2-1.8-4.2-5.4c0-1.8,0.3-3,0.9-3.9C79.1,97.6,80,97,81.2,97z"/>
		<path class="st0" d="M103.4,107.8c-0.9,0-1.8,0-2.7-0.3c-0.9-0.3-2.1-0.6-3-1.2v4.5c0.9,0.3,1.8,0.6,2.7,0.9
			c0.9,0.3,1.8,0.3,3,0.3c1.5,0,2.7-0.3,3.9-0.6c1.2-0.6,1.8-1.2,2.4-2.1s0.9-1.8,0.9-3s-0.3-2.4-0.9-3c-0.6-0.9-1.8-1.5-3.3-2.4
			c-1.8-0.9-2.7-1.2-3-1.5s-0.6-0.6-0.6-0.9s0-0.6,0.3-0.9s0.9-0.3,1.5-0.3c1.2,0,2.7,0.3,4.5,1.2l1.5-3.9c-2.1-0.9-3.9-1.2-6-1.2
			s-3.9,0.6-5.1,1.5s-1.8,2.4-1.8,3.9c0,0.9,0,1.8,0.3,2.4s0.6,1.2,1.2,1.8c0.6,0.6,1.5,1.2,2.7,1.5c1.2,0.6,2.1,0.9,2.4,1.2
			c0.3,0.3,0.6,0.3,0.6,0.6c0,0.3,0.3,0.3,0.3,0.6c0,0.3-0.3,0.6-0.6,0.9C104.6,107.8,104,107.8,103.4,107.8z"/>
		<path class="st0" d="M126.8,107.8c-0.9,0-1.8,0-2.7-0.3c-0.9-0.3-2.1-0.6-3-1.2v4.5c0.9,0.3,1.8,0.6,2.7,0.9
			c0.9,0.3,1.8,0.3,3,0.3c1.5,0,2.7-0.3,3.9-0.6c1.2-0.6,1.8-1.2,2.4-2.1c0.6-0.9,0.9-1.8,0.9-3s-0.3-2.4-0.9-3
			c-0.6-0.9-1.8-1.5-3.3-2.4c-1.8-0.9-2.7-1.2-3-1.5s-0.6-0.6-0.6-0.9s0-0.6,0.3-0.9s0.9-0.3,1.5-0.3c1.2,0,2.7,0.3,4.5,1.2l1.5-3.9
			c-2.1-0.9-3.9-1.2-6-1.2c-2.1,0-3.9,0.6-5.1,1.5s-1.8,2.4-1.8,3.9c0,0.9,0,1.8,0.3,2.4s0.6,1.2,1.2,1.8c0.6,0.6,1.5,1.2,2.7,1.5
			c1.2,0.6,2.1,0.9,2.4,1.2c0.3,0.3,0.6,0.3,0.6,0.6c0,0.3,0.3,0.3,0.3,0.6c0,0.3-0.3,0.6-0.6,0.9
			C128.3,107.8,127.7,107.8,126.8,107.8z"/>
		<path class="st0" d="M161.4,102.1c0-3-0.9-5.1-2.4-6.6s-3.9-2.4-6.9-2.4h-6.3v18.6h6c3,0,5.4-0.9,7.2-2.4
			C160.5,107.5,161.4,105.1,161.4,102.1z M155.1,106.3c-0.6,0.9-1.8,1.2-3.3,1.2h-1.2V97h1.5c1.5,0,2.4,0.3,3,1.2
			c0.6,0.9,0.9,2.1,0.9,3.9C156.3,103.9,156,105.4,155.1,106.3z"/>
		<path class="st0" d="M183.9,108.1l0.9,3.6h5.4l-6-18.6h-6.6l-6,18.6h5.4l0.9-3.6H183.9z M180.3,98.2c0.3-0.9,0.3-1.8,0.3-2.1
			c0,0.6,0.3,1.2,0.6,2.4c0.3,1.2,0.6,2.1,0.6,2.7l0.9,3h-3.9C179.7,101.2,180.3,99.1,180.3,98.2z"/>
		<polygon class="st0" points="155.4,79.6 136.1,60.6 117.2,79.6 106.4,79.6 146.3,39.6 104.6,39.6 64.3,79.6 49.3,79.6 49.3,82.3 
			213.3,82.3 213.3,79.6 		"/>
		<polygon class="st0" points="49.3,125.2 107,125.2 125.6,143.9 144.5,125.2 154.7,125.2 115.1,164.6 157.2,164.6 177.9,143.9 
			196.8,125.2 213.3,125.2 213.3,122.2 49.3,122.2 		"/>
	</g>
	<g>
		<g class="st1">
			<path class="st0" d="M275,91c0,0.9-0.1,1.8-0.4,2.6c-0.3,0.8-0.7,1.5-1.3,2.1s-1.3,1-2.1,1.4c-0.8,0.3-1.8,0.5-2.9,0.5
				c-1.1,0-2.1-0.2-2.9-0.5c-0.8-0.3-1.5-0.8-2.1-1.4s-1-1.3-1.3-2.1c-0.3-0.8-0.4-1.7-0.4-2.6v-9.7h3.5v9.6c0,0.5,0.1,0.9,0.2,1.4
				c0.2,0.4,0.4,0.8,0.7,1.1c0.3,0.3,0.6,0.5,1,0.7c0.4,0.2,0.8,0.3,1.3,0.3s0.9-0.1,1.3-0.3c0.4-0.2,0.7-0.4,1-0.7
				c0.3-0.3,0.5-0.7,0.7-1.1c0.2-0.4,0.2-0.9,0.2-1.4v-9.6h3.5V91z"/>
			<path class="st0" d="M282.2,88.9l-5.2-7.6h4.4l3.4,5.5l3.2-5.5h4.2l-5.1,7.5l5.7,8.3h-4.4l-3.9-6.4l-3.8,6.4h-4.1L282.2,88.9z"/>
			<path class="st0" d="M306.2,81.3h2.9l6.9,15.8H312l-1.4-3.4h-6.1l-1.3,3.4h-3.8L306.2,81.3z M307.5,85.9l-1.9,4.9h3.9L307.5,85.9
				z"/>
			<path class="st0" d="M315.4,86.3h3.6l2.2,6.8h0l1.9-6.8h3.7l2,6.8h0l2-6.8h3.4l-3.9,10.9h-3.3l-2.3-7.2h0l-2,7.2h-3.4L315.4,86.3
				z"/>
			<path class="st0" d="M342.1,95.8L342.1,95.8c-0.4,0.6-0.9,1-1.5,1.3c-0.6,0.3-1.3,0.4-2,0.4c-0.5,0-1-0.1-1.5-0.2
				c-0.5-0.1-0.9-0.4-1.2-0.6c-0.4-0.3-0.6-0.6-0.8-1c-0.2-0.4-0.3-0.9-0.3-1.5c0-0.6,0.1-1.2,0.3-1.6c0.2-0.4,0.5-0.8,0.9-1.1
				s0.8-0.5,1.4-0.7c0.5-0.2,1-0.3,1.6-0.3c0.5-0.1,1.1-0.1,1.6-0.1c0.5,0,1,0,1.5,0c0-0.6-0.2-1.1-0.6-1.4
				c-0.4-0.3-0.9-0.5-1.5-0.5c-0.6,0-1.1,0.1-1.5,0.3c-0.5,0.2-0.9,0.5-1.2,1l-1.8-1.8c0.6-0.6,1.4-1,2.2-1.3
				c0.8-0.3,1.7-0.4,2.6-0.4c1,0,1.8,0.1,2.4,0.4c0.6,0.2,1.1,0.6,1.5,1.1c0.4,0.5,0.6,1.1,0.8,1.8c0.1,0.7,0.2,1.5,0.2,2.4v5.5
				h-3.1V95.8z M341.3,92.4c-0.3,0-0.6,0-0.9,0s-0.7,0.1-1.1,0.2c-0.4,0.1-0.6,0.3-0.9,0.5c-0.2,0.2-0.4,0.5-0.4,0.9
				c0,0.4,0.2,0.7,0.5,0.9c0.3,0.2,0.7,0.3,1.1,0.3c0.3,0,0.6,0,0.9-0.1c0.3-0.1,0.6-0.2,0.8-0.4s0.4-0.4,0.6-0.6
				c0.1-0.3,0.2-0.6,0.2-0.9v-0.7H341.3z"/>
			<path class="st0" d="M347.3,86.3h3.4V88h0c0.4-0.7,0.8-1.2,1.3-1.5c0.5-0.3,1.1-0.5,1.9-0.5c0.2,0,0.4,0,0.6,0s0.4,0,0.5,0.1v3.1
				c-0.2-0.1-0.5-0.1-0.7-0.2c-0.2,0-0.5-0.1-0.7-0.1c-0.6,0-1.1,0.1-1.5,0.3c-0.4,0.2-0.7,0.4-0.9,0.7s-0.3,0.7-0.4,1.2
				c-0.1,0.4-0.1,0.9-0.1,1.5v4.5h-3.4V86.3z"/>
			<path class="st0" d="M367.4,97.1h-3.1v-1.4h0c-0.1,0.2-0.3,0.4-0.5,0.6c-0.2,0.2-0.5,0.4-0.8,0.5c-0.3,0.2-0.6,0.3-1,0.4
				c-0.4,0.1-0.7,0.2-1.1,0.2c-0.8,0-1.5-0.1-2.2-0.4s-1.2-0.7-1.7-1.2c-0.5-0.5-0.8-1.1-1.1-1.8c-0.3-0.7-0.4-1.4-0.4-2.3
				c0-0.8,0.1-1.5,0.3-2.2c0.2-0.7,0.6-1.3,1-1.8c0.4-0.5,0.9-1,1.6-1.3c0.6-0.3,1.3-0.5,2.1-0.5c0.7,0,1.4,0.1,2,0.3
				s1.1,0.6,1.5,1.1h0v-7.2h3.4V97.1z M364.3,91.7c0-0.8-0.2-1.5-0.7-2c-0.5-0.5-1.1-0.8-2-0.8c-0.8,0-1.5,0.3-2,0.8
				c-0.5,0.5-0.7,1.2-0.7,2c0,0.8,0.2,1.5,0.7,2c0.5,0.5,1.1,0.8,2,0.8c0.8,0,1.5-0.3,2-0.8C364.1,93.2,364.3,92.5,364.3,91.7z"/>
			<path class="st0" d="M376.2,89.5c-0.5-0.6-1.1-0.9-1.9-0.9c-0.3,0-0.6,0.1-0.8,0.2c-0.3,0.1-0.4,0.4-0.4,0.7
				c0,0.3,0.1,0.5,0.4,0.6c0.3,0.1,0.6,0.2,1,0.3s0.9,0.2,1.4,0.3c0.5,0.1,0.9,0.3,1.4,0.5s0.8,0.6,1,1c0.3,0.4,0.4,1,0.4,1.6
				c0,0.7-0.2,1.3-0.5,1.7c-0.3,0.5-0.7,0.8-1.2,1.1c-0.5,0.3-1,0.5-1.6,0.6s-1.2,0.2-1.8,0.2c-0.8,0-1.5-0.1-2.3-0.3
				s-1.4-0.6-2-1.2l2-2.3c0.3,0.4,0.7,0.7,1,0.9c0.4,0.2,0.8,0.3,1.3,0.3c0.4,0,0.7-0.1,1-0.2c0.3-0.1,0.5-0.3,0.5-0.6
				c0-0.3-0.1-0.5-0.4-0.6c-0.3-0.1-0.6-0.3-1.1-0.4c-0.4-0.1-0.9-0.2-1.4-0.3c-0.5-0.1-0.9-0.3-1.4-0.5c-0.4-0.2-0.8-0.5-1-0.9
				c-0.3-0.4-0.4-1-0.4-1.6c0-0.6,0.1-1.2,0.4-1.7c0.3-0.5,0.6-0.8,1-1.1c0.4-0.3,0.9-0.5,1.5-0.7c0.6-0.1,1.1-0.2,1.7-0.2
				c0.7,0,1.4,0.1,2.2,0.3c0.7,0.2,1.3,0.6,1.9,1.1L376.2,89.5z"/>
		</g>
		<g class="st1">
			<path class="st0" d="M262.2,108.1h4.6c0.6,0,1.1,0.1,1.7,0.2c0.6,0.1,1.2,0.3,1.7,0.7s0.9,0.7,1.2,1.3c0.3,0.5,0.5,1.2,0.5,2
				c0,0.7-0.1,1.3-0.4,1.9s-0.6,0.9-1,1.3c-0.4,0.3-0.9,0.6-1.5,0.7s-1.2,0.2-1.8,0.2h-3.4v7.5h-1.5V108.1z M263.7,115.1h3.4
				c0.4,0,0.8,0,1.2-0.1s0.8-0.3,1.1-0.5s0.6-0.5,0.8-0.9c0.2-0.4,0.3-0.8,0.3-1.3c0-0.5-0.1-0.9-0.3-1.3c-0.2-0.4-0.5-0.7-0.8-0.9
				c-0.3-0.2-0.7-0.4-1.1-0.5c-0.4-0.1-0.8-0.2-1.3-0.2h-3.3V115.1z"/>
			<path class="st0" d="M274.1,118.8c0-0.8,0.1-1.5,0.4-2.2c0.3-0.7,0.6-1.2,1.1-1.7c0.5-0.5,1-0.9,1.7-1.1c0.7-0.3,1.4-0.4,2.2-0.4
				c0.8,0,1.5,0.1,2.2,0.4c0.7,0.3,1.2,0.6,1.7,1.1c0.5,0.5,0.9,1.1,1.1,1.7c0.3,0.7,0.4,1.4,0.4,2.2c0,0.8-0.1,1.5-0.4,2.2
				c-0.3,0.7-0.6,1.2-1.1,1.7c-0.5,0.5-1.1,0.9-1.7,1.1c-0.7,0.3-1.4,0.4-2.2,0.4c-0.8,0-1.5-0.1-2.2-0.4c-0.7-0.3-1.2-0.6-1.7-1.1
				c-0.5-0.5-0.8-1.1-1.1-1.7C274.2,120.3,274.1,119.6,274.1,118.8z M275.4,118.8c0,0.6,0.1,1.1,0.3,1.6c0.2,0.5,0.5,1,0.8,1.3
				s0.8,0.7,1.3,0.9c0.5,0.2,1.1,0.3,1.7,0.3s1.2-0.1,1.7-0.3c0.5-0.2,0.9-0.5,1.3-0.9s0.6-0.8,0.8-1.3c0.2-0.5,0.3-1.1,0.3-1.6
				s-0.1-1.1-0.3-1.6c-0.2-0.5-0.5-1-0.8-1.3c-0.4-0.4-0.8-0.7-1.3-0.9c-0.5-0.2-1.1-0.3-1.7-0.3s-1.2,0.1-1.7,0.3
				c-0.5,0.2-0.9,0.5-1.3,0.9c-0.4,0.4-0.6,0.8-0.8,1.3S275.4,118.2,275.4,118.8z"/>
			<path class="st0" d="M287.9,116.5c0-0.2,0-0.4,0-0.7c0-0.3,0-0.6,0-0.8c0-0.3,0-0.5,0-0.8c0-0.2,0-0.4,0-0.6h1.3
				c0,0.4,0,0.8,0,1.1c0,0.4,0,0.6,0.1,0.7c0.3-0.6,0.8-1.1,1.3-1.5c0.5-0.4,1.2-0.6,2-0.6c0.1,0,0.3,0,0.4,0c0.1,0,0.3,0,0.4,0.1
				l-0.2,1.3c-0.2-0.1-0.4-0.1-0.5-0.1c-0.6,0-1.1,0.1-1.5,0.3c-0.4,0.2-0.8,0.4-1,0.8c-0.3,0.3-0.5,0.7-0.6,1.2
				c-0.1,0.4-0.2,0.9-0.2,1.4v5.6h-1.3V116.5z"/>
			<path class="st0" d="M300.4,114.8h-2.9v6.7c0,0.5,0.1,0.8,0.4,1.1c0.3,0.3,0.6,0.4,1.1,0.4c0.3,0,0.5,0,0.8-0.1s0.5-0.2,0.7-0.3
				l0.1,1.2c-0.3,0.1-0.5,0.2-0.9,0.2c-0.3,0.1-0.6,0.1-0.9,0.1c-0.5,0-0.9-0.1-1.2-0.2c-0.3-0.1-0.6-0.3-0.8-0.6s-0.4-0.5-0.5-0.8
				s-0.1-0.7-0.1-1v-6.7h-2.2v-1.2h2.2v-3h1.3v3h2.9V114.8z"/>
			<path class="st0" d="M303.6,114.8h-2.1v-1.2h2.1v-3.4c0-0.7,0.1-1.2,0.3-1.7s0.5-0.8,0.7-1.1c0.3-0.3,0.6-0.5,1-0.6
				c0.4-0.1,0.7-0.2,1-0.2c0.6,0,1.1,0.1,1.5,0.3l-0.3,1.2c-0.3-0.1-0.7-0.2-1.2-0.2c-1.2,0-1.8,0.9-1.8,2.7v2.9h2.4v1.2h-2.4v9.1
				h-1.3V114.8z"/>
			<path class="st0" d="M308.9,118.8c0-0.8,0.1-1.5,0.4-2.2c0.3-0.7,0.6-1.2,1.1-1.7c0.5-0.5,1-0.9,1.7-1.1c0.7-0.3,1.4-0.4,2.2-0.4
				c0.8,0,1.5,0.1,2.2,0.4c0.7,0.3,1.2,0.6,1.7,1.1c0.5,0.5,0.9,1.1,1.1,1.7c0.3,0.7,0.4,1.4,0.4,2.2c0,0.8-0.1,1.5-0.4,2.2
				c-0.3,0.7-0.6,1.2-1.1,1.7c-0.5,0.5-1.1,0.9-1.7,1.1c-0.7,0.3-1.4,0.4-2.2,0.4c-0.8,0-1.5-0.1-2.2-0.4c-0.7-0.3-1.2-0.6-1.7-1.1
				c-0.5-0.5-0.8-1.1-1.1-1.7C309,120.3,308.9,119.6,308.9,118.8z M310.2,118.8c0,0.6,0.1,1.1,0.3,1.6c0.2,0.5,0.5,1,0.8,1.3
				s0.8,0.7,1.3,0.9c0.5,0.2,1.1,0.3,1.7,0.3s1.2-0.1,1.7-0.3c0.5-0.2,0.9-0.5,1.3-0.9s0.6-0.8,0.8-1.3c0.2-0.5,0.3-1.1,0.3-1.6
				s-0.1-1.1-0.3-1.6c-0.2-0.5-0.5-1-0.8-1.3c-0.4-0.4-0.8-0.7-1.3-0.9c-0.5-0.2-1.1-0.3-1.7-0.3s-1.2,0.1-1.7,0.3
				c-0.5,0.2-0.9,0.5-1.3,0.9c-0.4,0.4-0.6,0.8-0.8,1.3S310.2,118.2,310.2,118.8z"/>
			<path class="st0" d="M323,107.1h1.3v16.9H323V107.1z"/>
			<path class="st0" d="M328,109.5c0-0.3,0.1-0.5,0.3-0.7c0.2-0.2,0.4-0.3,0.7-0.3c0.3,0,0.5,0.1,0.7,0.3c0.2,0.2,0.3,0.4,0.3,0.7
				s-0.1,0.5-0.3,0.7c-0.2,0.2-0.4,0.3-0.7,0.3c-0.3,0-0.5-0.1-0.7-0.3C328.1,110.1,328,109.8,328,109.5z M328.3,113.6h1.3v10.3
				h-1.3V113.6z"/>
			<path class="st0" d="M332.9,118.8c0-0.8,0.1-1.5,0.4-2.2c0.3-0.7,0.6-1.2,1.1-1.7c0.5-0.5,1-0.9,1.7-1.1c0.7-0.3,1.4-0.4,2.2-0.4
				c0.8,0,1.5,0.1,2.2,0.4c0.7,0.3,1.2,0.6,1.7,1.1c0.5,0.5,0.9,1.1,1.1,1.7c0.3,0.7,0.4,1.4,0.4,2.2c0,0.8-0.1,1.5-0.4,2.2
				c-0.3,0.7-0.6,1.2-1.1,1.7c-0.5,0.5-1.1,0.9-1.7,1.1c-0.7,0.3-1.4,0.4-2.2,0.4c-0.8,0-1.5-0.1-2.2-0.4c-0.7-0.3-1.2-0.6-1.7-1.1
				c-0.5-0.5-0.8-1.1-1.1-1.7C333,120.3,332.9,119.6,332.9,118.8z M334.2,118.8c0,0.6,0.1,1.1,0.3,1.6c0.2,0.5,0.5,1,0.8,1.3
				c0.4,0.4,0.8,0.7,1.3,0.9c0.5,0.2,1.1,0.3,1.7,0.3c0.6,0,1.2-0.1,1.7-0.3s0.9-0.5,1.3-0.9s0.6-0.8,0.8-1.3
				c0.2-0.5,0.3-1.1,0.3-1.6s-0.1-1.1-0.3-1.6s-0.5-1-0.8-1.3c-0.4-0.4-0.8-0.7-1.3-0.9s-1.1-0.3-1.7-0.3c-0.6,0-1.2,0.1-1.7,0.3
				c-0.5,0.2-0.9,0.5-1.3,0.9c-0.4,0.4-0.6,0.8-0.8,1.3C334.3,117.7,334.2,118.2,334.2,118.8z"/>
		</g>
		<polygon class="st2" points="238,91.3 238,151.5 238.8,151.5 238.8,91.3 238.8,52.7 238,52.7 		"/>
	</g>
</g>
</svg>
