<?xml version="1.0" encoding="utf-8"?>
<!-- Generator: Adobe Illustrator 24.2.3, SVG Export Plug-In . SVG Version: 6.00 Build 0)  -->
<svg version="1.1" id="Layer_1" xmlns="http://www.w3.org/2000/svg" xmlns:xlink="http://www.w3.org/1999/xlink" x="0px" y="0px"
	 viewBox="0 0 200 200" style="enable-background:new 0 0 200 200;" xml:space="preserve">
<style type="text/css">
	.st0{fill:#330000;}
	.st1{fill:#FF9A00;}
</style>
<g id="Layer_2_1_">
	<g id="Surfaces">
		<g id="Drawing_Surface">
			<g id="Outline_no_shadow">
				<path class="st0" d="M45.2,17.8h109.6c16.6,0,30.1,13.4,30.1,30.1v105.4c0,16.6-13.4,30.1-30.1,30.1H45.2
					c-16.6,0-30.1-13.4-30.1-30.1V47.9C15.2,31.2,28.6,17.8,45.2,17.8z"/>
			</g>
		</g>
	</g>
	<g id="Outlined_Mnemonics_Logos">
		<g id="Ai">
			<path class="st1" d="M97.4,117.1H71.1l-5.4,16.6c-0.1,0.6-0.7,1.1-1.3,1H51.1c-0.8,0-1-0.4-0.8-1.3l22.8-65.6
				c0.2-0.7,0.4-1.5,0.7-2.3c0.3-1.5,0.4-3,0.4-4.6c-0.1-0.4,0.2-0.7,0.6-0.8c0.1,0,0.1,0,0.2,0h18.1c0.6,0,0.8,0.2,0.9,0.6
				l25.8,72.9c0.2,0.8,0,1.1-0.7,1.1h-14.8c-0.5,0.1-1-0.3-1.1-0.8L97.4,117.1z M75.2,102.8h18c-0.4-1.5-1-3.3-1.6-5.1
				c-0.6-1.9-1.3-4-1.9-6.1c-0.7-2.2-1.3-4.3-2.1-6.5s-1.3-4.2-1.9-6.3c-0.6-2-1.1-3.8-1.6-5.5H84c-0.6,3-1.4,6.1-2.4,9.1
				c-1.1,3.4-2.1,6.9-3.3,10.5C77.3,96.5,76.3,99.8,75.2,102.8L75.2,102.8z"/>
			<path class="st1" d="M135.3,72.3c-2.3,0.1-4.6-0.8-6.3-2.5c-1.6-1.8-2.5-4.1-2.4-6.5c-0.1-2.4,0.8-4.7,2.5-6.3
				c1.7-1.6,4-2.5,6.3-2.5c2.8,0,4.9,0.8,6.4,2.5c1.6,1.7,2.4,4,2.3,6.3c0.1,2.4-0.8,4.7-2.5,6.5C140.1,71.5,137.7,72.4,135.3,72.3z
				 M127.3,133.7V79.2c0-0.7,0.3-1,0.9-1h14c0.6,0,0.9,0.4,0.9,1v54.5c0,0.8-0.3,1.1-0.9,1.1h-13.9
				C127.7,134.8,127.3,134.4,127.3,133.7z"/>
		</g>
	</g>
</g>
</svg>
