<svg id="Layer_1" data-name="Layer 1" xmlns="http://www.w3.org/2000/svg" viewBox="0 0 433.59 200"><defs><style>.cls-1,.cls-2,.cls-5{isolation:isolate;}.cls-2,.cls-5{font-size:32.81px;}.cls-2,.cls-5,.cls-6{fill:#494949;}.cls-2{font-family:Avenir-Light, Avenir;font-weight:300;}.cls-3{letter-spacing:0em;}.cls-4{letter-spacing:0em;}.cls-5{font-family:Avenir-Black, Avenir;font-weight:800;}</style></defs><g class="cls-1"><text class="cls-2" transform="translate(266.02 156)">Cer<tspan class="cls-3" x="52.27" y="0">t</tspan><tspan class="cls-4" x="63.23" y="0">ified</tspan></text><text class="cls-5" transform="translate(41.06 156)">Design Sprint</text></g><path class="cls-6" d="M233.14,55.82h12.07v4.81l.28.18a13,13,0,0,1,11.57-6.13c4.9,0,8.82,1.86,11.4,6.4.37-.45.66-.8.94-1.16,4.79-6,14.18-7.15,20.06-2.38,3.57,2.9,5,7,5.11,11.35.2,8.1.08,16.22.09,24.33a3.11,3.11,0,0,1-.11.57H282V92.15c0-6.13,0-12.25,0-18.38a27.79,27.79,0,0,0-.28-4.08c-.37-2.24-1.42-4-3.83-4.53a5.63,5.63,0,0,0-6.06,2.28,8.79,8.79,0,0,0-1.62,5.36c0,6.39,0,12.78,0,19.17v1.81H257.54V92.21c0-6.48,0-13,0-19.44a17.78,17.78,0,0,0-.44-3.92,4.49,4.49,0,0,0-3.82-3.73,5.51,5.51,0,0,0-5.58,1.93,9.68,9.68,0,0,0-1.93,6.32V93.79H233.14Z"/><path class="cls-6" d="M101.63,93.88H95.25c-2.29,0-4.59,0-6.88,0a1.59,1.59,0,0,1-1.84-1.21c-1-2.85-2.25-5.65-3.33-8.49a1.33,1.33,0,0,0-1.46-1q-9.52,0-19,0a1.28,1.28,0,0,0-1.4,1c-1,2.9-2.13,5.79-3.27,8.65a1.67,1.67,0,0,1-1.15.94c-4.27.06-8.55,0-12.83,0a4,4,0,0,1-.61-.13c1.08-2.59,2.13-5.1,3.19-7.6q9.5-22.54,19-45.08a2,2,0,0,1,2.25-1.45c3.3.09,6.61.07,9.91,0a1.6,1.6,0,0,1,1.76,1.14Q90,66,100.57,91.28C100.91,92.08,101.23,92.89,101.63,93.88ZM78.18,72.66c-2.25-6.16-4.43-12.15-6.61-18.13l-.29,0L64.54,72.66Z"/><path class="cls-6" d="M353.09,93.81H340.54V55.87h12v4.75c1-.85,2-1.67,3-2.6a9.28,9.28,0,0,1,6.75-2.54c2.5,0,5,0,7.69,0V45.8h12.39v9.57h9V65.45h-8.81a10.91,10.91,0,0,0-.12,1.18c0,4.41,0,8.82,0,13.23a10.52,10.52,0,0,0,.13,1.58c.42,2.42,1.67,3.57,4.12,3.61,1.36,0,2.71-.2,4.34-.33,0,2.75,0,5.55,0,8.35,0,.29-.47.73-.79.82a21.71,21.71,0,0,1-12.89,0c-4.46-1.52-6.55-5-6.95-9.42-.33-3.63-.22-7.31-.27-11,0-2.59,0-5.19,0-7.95-3.81,0-7.53-.42-11.12.61a8.37,8.37,0,0,0-5.86,8.26c0,6,0,11.9,0,17.85Z"/><path class="cls-6" d="M187,87.29l8.15-7.83c.22-.21.45-.4.74-.66a17.79,17.79,0,0,0,6.82,4.7,13.14,13.14,0,0,0,8.17.55,5.22,5.22,0,0,0,4.21-4.24,4.78,4.78,0,0,0-2.47-5.49,40.32,40.32,0,0,0-5.41-2.41c-2.47-.94-5-1.68-7.46-2.68-5.77-2.35-9.4-6.39-9.77-12.88-.38-6.69,2.4-11.7,8.17-15,8.83-5.05,22.27-3.71,30,2.91.23.19.48.37.82.64l-8.4,8.81a13.68,13.68,0,0,0-6.67-4.17,11.21,11.21,0,0,0-7.39.3,4.82,4.82,0,0,0-3.3,4.38,4.33,4.33,0,0,0,2.84,4.49c2.43,1,4.94,1.87,7.41,2.81A67.76,67.76,0,0,1,219.86,64c9,4.47,11.56,15,5.78,23.21a17.93,17.93,0,0,1-11.45,7.25c-8.94,1.87-17.25.37-24.72-5.07C188.73,88.88,188.08,88.22,187,87.29Z"/><path class="cls-6" d="M150,72.49c-.71-.95-1.46-1.81-2.06-2.77a9,9,0,0,1,2.89-12.81,17.63,17.63,0,0,1,17.82-.5c6.24,3.25,6.85,11.06,1.42,15.54-1.14.94-2.42,1.72-3.74,2.66L168.83,77c.87-1.23,1.64-2.39,2.5-3.48a1.9,1.9,0,0,1,1.22-.77c4.06,0,8.11,0,12.17,0a2.59,2.59,0,0,1,.55.18l-9.1,11c3.4,3.24,6.77,6.43,10.32,9.8-.57.06-.85.12-1.14.12-4.32,0-8.64,0-13,0a2.83,2.83,0,0,1-1.59-.68,24.81,24.81,0,0,1-2-2c-5.37,4-11.25,4.19-17.33,2.57-6.27-1.67-9.78-6.88-8.75-12.73a10.38,10.38,0,0,1,4.31-6.72C148,73.64,148.93,73.12,150,72.49Zm11.88,11.22c-1.27-1.21-2.55-2.39-3.8-3.6s-2-1-2.79.42a3,3,0,0,0,.6,3.6A4.68,4.68,0,0,0,161.83,83.71Zm.93-18.63a2.25,2.25,0,0,0-2.41-2.38,2.38,2.38,0,0,0-2.46,2.52c0,1.26,1.38,3.18,2.22,3.11C161.28,68.23,162.78,66.39,162.76,65.08Z"/><path class="cls-6" d="M322.85,70.07c.24-2.74-.67-4.42-2.86-5.39a10.9,10.9,0,0,0-9.22.39c-1.46.68-2.8,1.63-4.36,2.55L300.19,61a21.39,21.39,0,0,1,7.56-4.73,28.18,28.18,0,0,1,15-1.26c6.29,1.11,9.91,5,11.3,11.09a23.5,23.5,0,0,1,.72,4.83c.07,7.58,0,15.15,0,22.86h-11.4V89.62a12.28,12.28,0,0,1-10.61,5.11,22,22,0,0,1-7.47-1.35c-4.61-1.77-6.88-5.39-7-10.37s2.63-8.13,6.89-10.16c4.47-2.14,9.32-2.52,14.17-2.77C320.51,70,321.65,70.07,322.85,70.07Zm.29,7.17c-3,.06-6.12,0-9.08.9a8.25,8.25,0,0,0-3,1.63,3.49,3.49,0,0,0,.63,5.72A8.36,8.36,0,0,0,320.4,85C322.68,83.56,323.79,80.3,323.14,77.24Z"/><path class="cls-6" d="M101.19,82.68l11.67-3.92c.3.66.53,1.23.82,1.76a5.2,5.2,0,0,0,4.15,2.91c2.79.34,4.68-.81,5.34-3.54a22.31,22.31,0,0,0,.55-5c0-11.11,0-22.22,0-33.33V39.77h13.18c0,.44.07.86.07,1.29,0,11.33.11,22.66-.06,34a33.08,33.08,0,0,1-1.5,9.6C133.35,91,128.67,94.47,122,95.16c-7.75.81-14.36-1.17-18.76-8.11A38.65,38.65,0,0,1,101.19,82.68Z"/></svg>