<svg id="Layer_1" data-name="Layer 1" xmlns="http://www.w3.org/2000/svg" viewBox="0 0 200 200"><defs><style>.cls-1{fill:#dc395f;}.cls-2{fill:#fff;}</style></defs><path class="cls-1" d="M168.84,15.92H31.16A15.24,15.24,0,0,0,15.92,31.16V168.84a15.24,15.24,0,0,0,15.24,15.24H168.84a15.24,15.24,0,0,0,15.24-15.24V31.16a15.24,15.24,0,0,0-15.24-15.24"/><path class="cls-2" d="M72.12,68.83A10.13,10.13,0,1,0,61.85,58.7,10.15,10.15,0,0,0,72.12,68.83M50.82,123a35.09,35.09,0,0,0-.91,7.61c0,8.91,4.84,14.83,15.11,14.83,8.52,0,15.43-5.06,20.4-13.23l-3,12.19H99.3L109,105.65c2.42-9.82,7.1-14.92,14.2-14.92,5.59,0,9.06,3.48,9.06,9.22a18.16,18.16,0,0,1-.75,5.43l-5,17.83a27,27,0,0,0-1,7.55c0,8.47,5,14.66,15.4,14.66,8.92,0,16-5.74,19.95-19.49l-6.65-2.57c-3.32,9.21-6.2,10.88-8.46,10.88s-3.48-1.51-3.48-4.53A20.23,20.23,0,0,1,143,125l4.83-17.36a38.31,38.31,0,0,0,1.67-11c0-13-7.86-19.77-17.38-19.77-8.91,0-18,8-22.51,16.5l3.33-15.19H87.07L83.44,91.56H95.53l-7.45,29.8c-5.84,13-16.58,13.2-17.92,12.9-2.22-.5-3.63-1.34-3.63-4.22a28.24,28.24,0,0,1,1.06-6.91L78.92,78.18H50.22L46.59,91.56H58.52L50.82,123"/></svg>